<svg width="15" height="15" viewBox="0 0 15 15" fill="none" xmlns="http://www.w3.org/2000/svg">
<path d="M5.76496 0.189324C2.36774 0.931989 0 3.98222 0 7.61596C0 9.84395 0.746354 11.4619 2.44495 13.0533C6.48557 16.7932 12.8682 14.8835 14.3866 9.5522C14.9528 7.50987 14.7727 7.03245 13.0741 6.31631C11.2725 5.54711 11.1953 4.91054 12.7395 3.45175C15.3646 0.985036 15.3646 0.958512 14.4381 0.401515C13.7175 0.00365808 7.38633 -0.155484 5.76496 0.189324Z" fill="white"/>
<path d="M7.6496 13.6579C7.5363 13.7678 7.13026 13.7953 6.94141 13.7953C7.16803 13.7953 7.50796 13.6122 7.6496 13.5206C7.98011 13.3375 8.72608 12.9439 9.06601 12.8341C9.40596 12.7242 9.77422 12.7883 9.91586 12.8341C9.57593 12.8341 9.11323 13.0172 8.92437 13.1087C8.54667 13.246 7.76292 13.5481 7.6496 13.6579Z" fill="#1EA8DF"/>
<path d="M3.84376 12.5164C3.14972 12.5164 2.64572 12.0055 2.48047 11.75L2.97621 12.1332C3.47195 12.4397 4.50476 12.4312 4.95918 12.3886C4.95918 12.4908 4.21557 12.5164 3.84376 12.5164Z" fill="#1EA8DF"/>
<path d="M7.64975 4.4417C7.64148 4.44891 7.63253 4.45578 7.62266 4.46255L7.64975 4.4417ZM7.64975 4.4417C7.66743 4.4381 7.68299 4.43494 7.69643 4.43236C7.69132 4.4171 7.68988 4.40433 7.68941 4.39825C7.67729 4.41483 7.66458 4.42883 7.64975 4.4417ZM8.16389 4.1265C8.16699 4.12844 8.17026 4.13028 8.1737 4.13199C8.17408 4.13074 8.17447 4.12949 8.17487 4.12819L8.16542 4.12114C8.16493 4.12292 8.16441 4.12471 8.16389 4.1265ZM8.1657 4.12024L8.17504 4.12762C8.17727 4.12042 8.17985 4.11232 8.18278 4.10328C8.18287 4.10295 8.183 4.10259 8.1831 4.10226C8.18399 4.09868 8.18473 4.09528 8.18535 4.09214L8.18575 4.0902L8.19408 4.05045L8.19445 4.04866C8.19153 4.04795 8.18865 4.04736 8.1858 4.04688C8.1855 4.04805 8.18518 4.04925 8.18488 4.05045C8.18089 4.06557 8.17643 4.08203 8.17157 4.09942C8.16966 4.10622 8.16771 4.11317 8.1657 4.12024ZM7.62217 4.46288C7.61238 4.46958 7.60169 4.47617 7.58984 4.48294L7.62551 4.48056L7.62217 4.46288Z" fill="white"/>
<path d="M7.64975 4.4417C7.64148 4.44891 7.63253 4.45578 7.62266 4.46255M7.64975 4.4417C7.66743 4.4381 7.68299 4.43494 7.69643 4.43236C7.69132 4.4171 7.68988 4.40433 7.68941 4.39825C7.67729 4.41483 7.66458 4.42883 7.64975 4.4417ZM7.64975 4.4417L7.62266 4.46255M7.62266 4.46255L7.62598 4.48053M8.16389 4.1265C8.16699 4.12844 8.17026 4.13028 8.1737 4.13199C8.17408 4.13074 8.17447 4.12949 8.17487 4.12819L8.16542 4.12114C8.16493 4.12292 8.16441 4.12471 8.16389 4.1265ZM8.1657 4.12024L8.17504 4.12762C8.17727 4.12042 8.17985 4.11232 8.18278 4.10328C8.18287 4.10295 8.183 4.10259 8.1831 4.10226C8.18399 4.09868 8.18473 4.09528 8.18535 4.09214L8.18575 4.0902L8.19408 4.05045L8.19445 4.04866C8.19153 4.04795 8.18865 4.04736 8.1858 4.04688C8.1855 4.04805 8.18518 4.04925 8.18488 4.05045C8.18089 4.06557 8.17643 4.08203 8.17157 4.09942C8.16966 4.10622 8.16771 4.11317 8.1657 4.12024ZM7.62217 4.46288C7.61238 4.46958 7.60169 4.47617 7.58984 4.48294L7.62551 4.48056L7.62217 4.46288Z" stroke="white"/>
<path d="M7.60253 4.38875C7.57286 4.411 7.5189 4.43047 7.48112 4.43047C7.36782 4.43047 7.28419 4.49165 7.21134 4.62234C7.17356 4.68909 7.11152 4.75582 7.07374 4.76695C7.009 4.79196 7.009 4.78918 7.06026 4.75025C7.15467 4.68074 7.18167 4.65016 7.18167 4.62513C7.18167 4.60844 7.15738 4.61123 7.13041 4.63069C7.08723 4.65849 7.05486 4.65294 6.95774 4.60288C6.85522 4.55005 6.75 4.52223 6.75 4.55005C6.75 4.55562 6.80126 4.61677 6.866 4.68631C7.04945 4.88929 7.1493 4.88929 7.27608 4.67795C7.32464 4.60009 7.38671 4.55005 7.48923 4.50276C7.56745 4.46662 7.6403 4.41657 7.64841 4.39154C7.66997 4.33871 7.6673 4.33871 7.60253 4.38875Z" fill="white"/>
<path d="M8.61719 4.67752C8.61719 4.73034 8.62259 4.75259 8.63067 4.72477C8.63607 4.69977 8.63607 4.65527 8.63067 4.62745C8.62259 4.60244 8.61719 4.62469 8.61719 4.67752Z" fill="white"/>
<path d="M6.60133 4.65023C6.631 4.66137 6.70385 4.72255 6.76322 4.78649C6.82526 4.85603 6.89271 4.9005 6.93048 4.9005C6.96555 4.9005 6.99255 4.90886 6.99255 4.92275C6.99255 4.93389 7.04111 4.93943 7.09774 4.93389C7.16521 4.92554 7.24885 4.945 7.32978 4.98115C7.40533 5.01451 7.51055 5.03955 7.58337 5.03676L7.70748 5.03398L7.59956 4.99783C7.54022 4.97837 7.4404 4.93389 7.37563 4.9005C7.26503 4.83935 7.16521 4.83935 7.02762 4.89218C6.99793 4.90329 6.98985 4.89774 7.00333 4.87828C7.01411 4.85603 7.00333 4.84489 6.97366 4.84489C6.94667 4.84489 6.88192 4.79485 6.82796 4.73367C6.74973 4.64469 6.71196 4.62244 6.63911 4.62523C6.56356 4.62523 6.55818 4.63077 6.60133 4.65023Z" fill="white"/>
<path d="M6.41603 4.78343C6.36747 4.8029 6.36747 4.80568 6.41063 4.82236C6.43762 4.8335 6.49158 4.84183 6.53474 4.84183C6.57521 4.84183 6.65344 4.8613 6.7101 4.88633C6.83959 4.93916 6.85578 4.92248 6.75866 4.83072C6.68043 4.75564 6.53203 4.73617 6.41603 4.78343Z" fill="white"/>
<path d="M6.17198 4.92826C6.18546 4.9672 6.47146 5.12014 6.5335 5.12014C6.58746 5.12014 6.56317 5.07842 6.47416 5.01445C6.42558 4.98109 6.34735 4.9533 6.30417 4.9533C6.25831 4.9533 6.20705 4.93662 6.18817 4.91715C6.1612 4.88933 6.1585 4.89212 6.17198 4.92826Z" fill="white"/>
<path d="M8.40401 5.18195C8.39861 5.32932 8.40401 5.34322 8.45527 5.34322C8.52002 5.34322 8.60365 5.38493 8.69539 5.46558C8.73316 5.49616 8.72506 5.48226 8.6765 5.43222C8.62794 5.38215 8.54969 5.33489 8.50653 5.32653C8.43368 5.30985 8.42828 5.29874 8.4175 5.16527L8.40942 5.02344L8.40401 5.18195Z" fill="white"/>
<mask id="mask0_1073_154" style="mask-type:luminance" maskUnits="userSpaceOnUse" x="8" y="5" width="1" height="1">
<path d="M8.40011 5.18976C8.3947 5.33713 8.40011 5.35103 8.45137 5.35103C8.51611 5.35103 8.59974 5.39274 8.69148 5.47339C8.72925 5.50397 8.72115 5.49007 8.67259 5.44003C8.62403 5.38996 8.54578 5.3427 8.50263 5.33435C8.42978 5.31767 8.42437 5.30655 8.41359 5.17308L8.40551 5.03125L8.40011 5.18976Z" fill="white"/>
</mask>
<g mask="url(#mask0_1073_154)">
<path d="M8.40187 5.18913L8.6496 5.19807L8.64957 5.19876L8.40187 5.18913ZM8.69325 5.47276L8.54009 5.67362L8.53617 5.67046L8.53238 5.66711L8.69325 5.47276ZM8.50439 5.33372L8.45871 5.5848L8.45465 5.58401L8.45061 5.58309L8.50439 5.33372ZM8.41536 5.17245L8.16836 5.19365L8.16808 5.19053L8.16791 5.18744L8.41536 5.17245ZM8.40728 5.03062L8.15956 5.02165L8.6547 5.01562L8.40728 5.03062ZM8.64957 5.19876C8.64821 5.23557 8.64786 5.25685 8.64818 5.26996C8.64863 5.28756 8.65012 5.27121 8.64142 5.24426C8.63609 5.22778 8.62538 5.20221 8.60421 5.17572C8.5818 5.14775 8.55439 5.1271 8.52606 5.11372C8.50003 5.10143 8.47817 5.09755 8.46759 5.09614C8.4573 5.09479 8.45088 5.09494 8.45313 5.09494V5.60585C8.43997 5.60585 8.38088 5.60718 8.31941 5.57813C8.23637 5.53887 8.19136 5.46844 8.17111 5.40581C8.15529 5.35696 8.15326 5.3095 8.15262 5.28303C8.15185 5.2521 8.15281 5.21636 8.15418 5.1795L8.64957 5.19876ZM8.45313 5.09494C8.60823 5.09494 8.74922 5.18619 8.85411 5.27841L8.53238 5.66711C8.49795 5.63684 8.47125 5.61947 8.4537 5.61058C8.43477 5.60097 8.43576 5.60585 8.45313 5.60585V5.09494ZM8.84641 5.2719C8.85674 5.28028 8.84983 5.27374 8.83528 5.26525C8.83114 5.26283 8.81812 5.25532 8.79978 5.24847C8.79066 5.24505 8.77318 5.23912 8.75031 5.23585C8.73055 5.23302 8.68375 5.2286 8.62912 5.24985C8.56227 5.27586 8.50719 5.3316 8.48253 5.4055C8.46233 5.46604 8.46974 5.51721 8.47401 5.53885C8.48248 5.58184 8.50003 5.61145 8.50253 5.61581C8.51639 5.64013 8.53077 5.65429 8.52043 5.64269C8.51681 5.6386 8.50997 5.63122 8.49909 5.62L8.84965 5.25877C8.86304 5.27259 8.87543 5.28572 8.88579 5.29737C8.88946 5.30148 8.91259 5.32659 8.92984 5.35681C8.93316 5.36266 8.95123 5.39344 8.95986 5.43728C8.96419 5.45935 8.97163 5.51085 8.95133 5.57165C8.92659 5.6458 8.87132 5.70172 8.80424 5.72783C8.74934 5.74919 8.7022 5.74479 8.68202 5.74188C8.65869 5.73853 8.6407 5.73248 8.63098 5.72885C8.61145 5.72155 8.59687 5.71324 8.59085 5.70974C8.56872 5.69682 8.54861 5.68052 8.54009 5.67362L8.84641 5.2719ZM8.49909 5.62C8.49631 5.61714 8.49113 5.61237 8.48357 5.60646C8.47616 5.60067 8.46806 5.59505 8.46015 5.59017C8.45207 5.58519 8.44604 5.58215 8.44297 5.58074C8.44153 5.5801 8.44178 5.58028 8.44364 5.58092C8.44525 5.58148 8.45048 5.58322 8.45871 5.5848L8.55008 5.08266C8.6147 5.09512 8.67493 5.12726 8.71454 5.15165C8.75913 5.17912 8.80799 5.21585 8.84965 5.25877L8.49909 5.62ZM8.45061 5.58309C8.42406 5.57701 8.29301 5.55438 8.22076 5.42244C8.19314 5.37203 8.18355 5.32197 8.17891 5.29254C8.17398 5.26119 8.17096 5.22589 8.16836 5.19365L8.66239 5.15122C8.66516 5.18573 8.66687 5.20188 8.66824 5.21066C8.66995 5.22139 8.66829 5.20017 8.65247 5.1713C8.64337 5.15469 8.63068 5.13737 8.61395 5.12166C8.59754 5.10629 8.58158 5.0965 8.56971 5.09055C8.55865 5.08501 8.55082 5.08263 8.54995 5.08237C8.54913 5.08212 8.55084 5.08268 8.55816 5.08434L8.45061 5.58309ZM8.16791 5.18744L8.15983 5.04562L8.6547 5.01562L8.66281 5.15743L8.16791 5.18744ZM8.65498 5.03959L8.6496 5.19807L8.15415 5.18016L8.15956 5.02165L8.65498 5.03959Z" fill="white"/>
</g>
<path d="M7.20775 5.67226C7.17268 5.71676 7.17538 5.71954 7.21856 5.6834C7.26172 5.64725 7.27522 5.625 7.25363 5.625C7.24823 5.625 7.22664 5.64725 7.20775 5.67226Z" fill="white"/>
<path d="M8.88169 5.85797C8.91676 5.91915 8.96532 6.03873 8.98959 6.12214C9.04625 6.30011 9.06784 6.31125 9.3808 6.31125L9.59663 6.30847L9.32144 6.28065C9.1191 6.26118 9.04355 6.2445 9.04355 6.21671C9.04355 6.14996 8.93563 5.88579 8.87899 5.81626C8.82503 5.75232 8.82773 5.7551 8.88169 5.85797Z" fill="white"/>
<mask id="mask1_1073_154" style="mask-type:luminance" maskUnits="userSpaceOnUse" x="8" y="5" width="2" height="2">
<path d="M8.88169 5.86579C8.91676 5.92697 8.96532 6.04654 8.98959 6.12995C9.04625 6.30793 9.06784 6.31906 9.3808 6.31906L9.59663 6.31628L9.32144 6.28846C9.1191 6.26899 9.04355 6.25231 9.04355 6.22452C9.04355 6.15777 8.93563 5.8936 8.87899 5.82407C8.82503 5.76013 8.82773 5.76291 8.88169 5.86579Z" fill="white"/>
</mask>
<g mask="url(#mask1_1073_154)">
<path d="M8.87958 5.86343L8.66616 5.99338L8.66376 5.98919L8.6615 5.9849L8.87958 5.86343ZM8.98748 6.1276L8.75197 6.20725L8.75098 6.20413L8.75007 6.20102L8.98748 6.1276ZM9.37869 6.31671L9.38179 6.57217H9.37869V6.31671ZM9.59451 6.31393L9.6187 6.0597L9.59761 6.56936L9.59451 6.31393ZM9.31933 6.28611L9.34238 6.03175L9.34352 6.03188L9.31933 6.28611ZM8.87688 5.82172L9.06392 5.65412L9.06531 5.65575L9.06667 5.65744L8.87688 5.82172ZM9.09297 5.73348C9.14059 5.81653 9.19636 5.95614 9.22491 6.05421L8.75007 6.20102C8.73006 6.13225 8.68869 6.0327 8.66616 5.99338L9.09297 5.73348ZM9.223 6.04797C9.22972 6.0691 9.23445 6.08302 9.23837 6.09324C9.24224 6.10341 9.24355 6.1052 9.24214 6.10272C9.24028 6.09945 9.23475 6.09063 9.22444 6.08052C9.21371 6.06999 9.20228 6.06248 9.19252 6.05776C9.17744 6.05045 9.17549 6.05446 9.21304 6.05753C9.24873 6.06044 9.29925 6.06126 9.37869 6.06126V6.57217C9.30163 6.57217 9.2321 6.57158 9.17395 6.56685C9.11766 6.56225 9.04811 6.55237 8.98143 6.52003C8.81984 6.44165 8.77532 6.28062 8.75197 6.20725L9.223 6.04797ZM9.37559 6.06126L9.59141 6.0585L9.59761 6.56936L9.38179 6.57217L9.37559 6.06126ZM9.57032 6.56816L9.29513 6.54036L9.34352 6.03188L9.6187 6.0597L9.57032 6.56816ZM9.2963 6.54046C9.19561 6.53078 9.11201 6.52062 9.05093 6.50667C9.02282 6.50028 8.97922 6.48881 8.93738 6.46523C8.90112 6.44477 8.79357 6.37176 8.79357 6.22217H9.28931C9.28931 6.1602 9.26655 6.10829 9.2383 6.07206C9.21329 6.04 9.18699 6.02358 9.17544 6.01706C9.1541 6.00503 9.142 6.00419 9.15809 6.00784C9.18538 6.01408 9.2407 6.02197 9.34238 6.03175L9.2963 6.54046ZM8.79357 6.22217C8.79357 6.24286 8.79686 6.25372 8.7951 6.2458C8.79414 6.24138 8.79188 6.23272 8.78774 6.21946C8.77951 6.19315 8.76704 6.15894 8.75207 6.12241C8.73718 6.08606 8.72124 6.05096 8.70691 6.02276C8.69015 5.98978 8.68299 5.98102 8.68706 5.98603L9.06667 5.65744C9.09909 5.69721 9.12666 5.74753 9.14606 5.78573C9.1679 5.82869 9.18957 5.87685 9.20873 5.92357C9.22781 5.97011 9.24586 6.0188 9.25966 6.06297C9.2698 6.09544 9.28931 6.1602 9.28931 6.22217H8.79357ZM8.68981 5.98935C8.68284 5.98107 8.67754 5.97479 8.67313 5.9696C8.67097 5.96707 8.66931 5.96516 8.66804 5.9637C8.66673 5.96219 8.66619 5.96161 8.66624 5.96166C8.66629 5.96171 8.66666 5.96212 8.66728 5.96275C8.66787 5.96339 8.66899 5.96457 8.67052 5.96608C8.67199 5.96756 8.68056 5.97617 8.6935 5.9859C8.69962 5.99052 8.71395 6.00094 8.73428 6.0107C8.74774 6.01714 8.80187 6.04266 8.8744 6.0316C8.91636 6.02521 8.96204 6.00672 9.00168 5.97078C9.04005 5.93596 9.06077 5.89572 9.0716 5.86402C9.09069 5.80813 9.08526 5.7611 9.0837 5.74833C9.07983 5.71645 9.07064 5.69317 9.07004 5.69156C9.06759 5.68495 9.06558 5.68053 9.06528 5.67992C9.06461 5.67843 9.06511 5.67961 9.06823 5.68574C9.07433 5.69767 9.08335 5.71476 9.09763 5.74197L8.6615 5.9849C8.64881 5.96066 8.63726 5.93882 8.62935 5.92331C8.62549 5.9157 8.62063 5.90602 8.61626 5.89641C8.61413 5.89174 8.61069 5.88395 8.60722 5.8746C8.60561 5.87031 8.59584 5.84496 8.5918 5.8117C8.59016 5.79824 8.58476 5.75068 8.60397 5.69443C8.61485 5.66254 8.63567 5.62216 8.67417 5.58724C8.7139 5.55119 8.75973 5.53262 8.80187 5.52618C8.87472 5.5151 8.9293 5.54072 8.94333 5.54744C8.96418 5.55743 8.97917 5.56828 8.98609 5.57347C9.00899 5.59074 9.02622 5.61038 9.02763 5.61194C9.03829 5.62361 9.05239 5.64045 9.06392 5.65412L8.68981 5.98935Z" fill="#FFEAEA"/>
</g>
<path d="M9.75846 6.01739C9.74768 6.04799 9.74768 6.08135 9.75576 6.08968C9.76386 6.10082 9.77197 6.08692 9.77197 6.0591C9.77197 6.02853 9.78816 6.0146 9.82053 6.02017C9.8475 6.02574 9.86368 6.05075 9.8583 6.08414C9.8529 6.13975 9.8529 6.13975 9.88257 6.08692C9.90956 6.04242 9.90416 6.02574 9.86368 5.99514C9.79894 5.94509 9.77735 5.94788 9.75846 6.01739Z" fill="white"/>
<path d="M9.64716 6.2705C9.5959 6.33446 9.59593 6.33446 9.65256 6.28439C9.73082 6.21767 9.79554 6.226 9.82521 6.30943C9.86298 6.40676 9.85758 6.43458 9.80094 6.5152C9.75506 6.57638 9.74157 6.57916 9.67413 6.5458C9.60938 6.5152 9.60401 6.51798 9.63638 6.55413C9.75508 6.70707 9.94664 6.44847 9.85222 6.26217C9.81445 6.18985 9.7092 6.19542 9.64716 6.2705Z" fill="white"/>
<path d="M9.50613 6.67517C9.44947 6.81421 9.44947 6.81421 9.36584 6.7864C9.20936 6.728 9.25254 6.7864 9.43058 6.86983C9.65721 6.97548 9.71658 6.99495 9.71658 6.9588C9.71658 6.9449 9.69228 6.92265 9.66261 6.9143C9.59787 6.89208 9.59517 6.87261 9.64913 6.7419C9.69499 6.62789 9.69769 6.61399 9.66532 6.63346C9.65451 6.64181 9.62754 6.70575 9.60865 6.77528C9.57358 6.90597 9.56547 6.9143 9.50343 6.87537C9.47106 6.85315 9.47376 6.82811 9.52232 6.70296C9.55469 6.62234 9.57898 6.55281 9.57358 6.54724C9.56817 6.5417 9.5385 6.60009 9.50613 6.67517Z" fill="white"/>
<path d="M4.50214 10.4333C4.44278 10.5 4.19726 10.6057 3.87892 10.703C3.42837 10.8365 3.15856 11.0033 3.02367 11.2286C2.95622 11.3453 2.96163 11.3815 3.03715 11.2786C3.18015 11.0784 3.42296 10.9421 3.96255 10.7586C4.27819 10.6502 4.48864 10.5334 4.53989 10.4388C4.57497 10.3665 4.56148 10.3637 4.50214 10.4333Z" fill="white"/>
<path d="M5.02019 10.428C5.03638 10.4335 5.06877 10.4335 5.08764 10.428C5.10385 10.4196 5.09034 10.4141 5.05259 10.4141C5.01481 10.4141 5.0013 10.4196 5.02019 10.428Z" fill="white"/>
<path d="M5.18476 10.5354C4.2108 10.7996 4.21891 10.7968 4.3538 10.7996C4.5831 10.7996 5.15506 10.6466 5.48962 10.4937C5.6515 10.4186 5.57055 10.4297 5.18476 10.5354Z" fill="white"/>
<path d="M9.23216 12.0303C8.96778 12.0803 8.76274 12.1443 7.42726 12.5781C6.81212 12.7755 6.1997 12.9646 6.06481 12.9952C5.71137 13.0731 4.80486 13.0953 4.35971 13.0341C3.76886 12.9535 3.33181 12.8145 3.03233 12.6115L2.85156 12.4891L2.99456 12.6282C3.15104 12.7811 3.41004 12.9201 3.73649 13.0286C4.27067 13.2066 5.26622 13.3345 6.17001 13.3345C6.72308 13.3372 6.82022 13.3289 7.06844 13.2733C7.50279 13.1732 7.98304 13.0035 8.57118 12.7477C9.79604 12.2083 10.0712 12.1332 10.3221 12.2639C10.4246 12.3195 10.4246 12.3195 10.3761 12.2639C10.3086 12.1888 10.0307 12.0553 9.85808 12.0192C9.67463 11.9802 9.48578 11.983 9.23216 12.0303ZM10.0739 12.1332C10.171 12.1693 10.1683 12.1693 9.93904 12.1693C9.65034 12.1693 9.33738 12.2667 8.50374 12.6142C7.35441 13.0925 6.58011 13.2705 5.70597 13.2649L5.33367 13.2622L5.64393 13.2232C6.14844 13.1621 6.09178 13.1787 8.30138 12.4335C8.74653 12.2833 9.19708 12.1415 9.2996 12.1165C9.51815 12.0664 9.92015 12.0748 10.0739 12.1332Z" fill="white"/>
<path d="M5.71875 1.57861C3.55654 1.97064 1.79786 4.06423 1.34706 6.77784C1.25523 7.33668 1.23575 7.5897 1.23853 8.22361C1.23853 8.74911 1.24966 8.95485 1.29975 9.27179C1.40549 9.97524 1.63368 10.7676 1.89247 11.3459C2.00378 11.599 2.21806 12.0049 2.23475 12.0049C2.24032 12.0049 2.17631 11.8547 2.09561 11.674C1.08826 9.45531 1.15226 6.58878 2.25423 4.52576C3.08348 2.97712 4.34128 1.97342 5.77439 1.72041C6.17788 1.64812 6.81513 1.65646 7.21864 1.74265C8.65453 2.04293 9.85668 3.03552 10.6637 4.58137C11.4206 6.03828 11.6793 7.79823 11.4011 9.63323C11.2953 10.3339 11.0644 11.1124 10.7917 11.6935C10.7137 11.8547 10.6553 11.991 10.6609 11.9938C10.6664 11.9993 10.7472 11.8436 10.8445 11.6518C11.1531 11.2385 11.5068 9.98356 11.6153 9.04382C11.671 8.57394 11.6543 7.48405 11.5875 7.0392C11.3204 5.27368 10.6136 3.82791 9.50882 2.79363C9.12201 2.43217 8.79366 2.20141 8.35676 1.98454C7.69725 1.65924 7.26038 1.55081 6.53407 1.53413C6.10832 1.52578 5.96639 1.53412 5.71875 1.57861Z" fill="#020202"/>
<path d="M5.71875 1.57861C3.55654 1.97064 1.79786 4.06423 1.34706 6.77784C1.25523 7.33668 1.23575 7.5897 1.23853 8.22361C1.23853 8.74911 1.24966 8.95485 1.29975 9.27179C1.40549 9.97524 1.63368 10.7676 1.89247 11.3459C2.00378 11.599 2.21806 12.0049 2.23475 12.0049C2.24032 12.0049 2.17631 11.8547 2.09561 11.674C1.08826 9.45531 1.15226 6.58878 2.25423 4.52576C3.08348 2.97712 4.34128 1.97342 5.77439 1.72041C6.17788 1.64812 6.81513 1.65646 7.21864 1.74265C8.65453 2.04293 9.85668 3.03552 10.6637 4.58137C11.4206 6.03828 11.6793 7.79823 11.4011 9.63323C11.2953 10.3339 11.0644 11.1124 10.7917 11.6935C10.7137 11.8547 10.6553 11.991 10.6609 11.9938C10.6664 11.9993 10.7472 11.8436 10.8445 11.6518C11.1531 11.2385 11.5068 9.98356 11.6153 9.04382C11.671 8.57394 11.6543 7.48405 11.5875 7.0392C11.3204 5.27368 10.6136 3.82791 9.50882 2.79363C9.12201 2.43217 8.79366 2.20141 8.35676 1.98454C7.69725 1.65924 7.26038 1.55081 6.53407 1.53413C6.10832 1.52578 5.96639 1.53412 5.71875 1.57861Z" stroke="white"/>
<path d="M7.32944 4.34014C7.32116 4.34735 7.31221 4.35422 7.30235 4.36099ZM7.32944 4.34014C7.34712 4.33654 7.36268 4.33337 7.37612 4.33079C7.37101 4.31554 7.36957 4.30277 7.3691 4.29669C7.35698 4.31327 7.34426 4.32727 7.32944 4.34014ZM7.32944 4.34014L7.30235 4.36099ZM7.8436 4.02494C7.84667 4.02688 7.84995 4.02872 7.85339 4.03043C7.85376 4.02918 7.85416 4.02793 7.85456 4.02665L7.84514 4.01957C7.84462 4.02136 7.8441 4.02315 7.8436 4.02494ZM7.84539 4.01868L7.85473 4.02606C7.85696 4.01886 7.85954 4.01076 7.86246 4.00172C7.86256 4.00138 7.86269 4.00103 7.86279 4.00069C7.86368 3.99712 7.86442 3.99372 7.86504 3.99058L7.86544 3.98864L7.87377 3.94889L7.87414 3.9471C7.87121 3.94639 7.86834 3.9458 7.86549 3.94531C7.86519 3.94649 7.86487 3.94769 7.86457 3.94889C7.86058 3.96401 7.85612 3.98046 7.85126 3.99786C7.84935 4.00468 7.84739 4.0116 7.84539 4.01868ZM7.30185 4.36132C7.29206 4.36801 7.28138 4.3746 7.26953 4.38137L7.30522 4.379L7.30185 4.36132Z" fill="white"/>
<path d="M7.32944 4.34014C7.32116 4.34735 7.31221 4.35422 7.30235 4.36099M7.32944 4.34014C7.34712 4.33654 7.36268 4.33337 7.37612 4.33079C7.37101 4.31554 7.36957 4.30277 7.3691 4.29669C7.35698 4.31327 7.34426 4.32727 7.32944 4.34014ZM7.32944 4.34014L7.30235 4.36099M7.30235 4.36099L7.30567 4.37897M7.8436 4.02494C7.84667 4.02688 7.84995 4.02872 7.85339 4.03043C7.85376 4.02918 7.85416 4.02793 7.85456 4.02665L7.84514 4.01957C7.84462 4.02136 7.8441 4.02315 7.8436 4.02494ZM7.84539 4.01868L7.85473 4.02606C7.85696 4.01886 7.85954 4.01076 7.86246 4.00172C7.86256 4.00138 7.86269 4.00103 7.86279 4.00069C7.86368 3.99712 7.86442 3.99372 7.86504 3.99058L7.86544 3.98864L7.87377 3.94889L7.87414 3.9471C7.87121 3.94639 7.86834 3.9458 7.86549 3.94531C7.86519 3.94649 7.86487 3.94769 7.86457 3.94889C7.86058 3.96401 7.85612 3.98046 7.85126 3.99786C7.84935 4.00468 7.84739 4.0116 7.84539 4.01868ZM7.30185 4.36132C7.29206 4.36801 7.28138 4.3746 7.26953 4.38137L7.30522 4.379L7.30185 4.36132Z" stroke="black"/>
<path d="M7.27833 4.28721C7.24866 4.30946 7.1947 4.32893 7.15693 4.32893C7.04362 4.32893 6.95999 4.39008 6.88714 4.5208C6.84937 4.58752 6.78733 4.65427 6.74955 4.66539C6.68478 4.69042 6.68478 4.68764 6.73604 4.6487C6.83048 4.57919 6.85745 4.54859 6.85745 4.52356C6.85745 4.50688 6.83318 4.50966 6.80619 4.52913C6.76303 4.55694 6.73066 4.55138 6.63352 4.50133C6.531 4.44848 6.42578 4.42069 6.42578 4.44848C6.42578 4.45405 6.47704 4.51523 6.54181 4.58474C6.72526 4.78775 6.82508 4.78775 6.95189 4.57641C7.00045 4.49855 7.06251 4.44848 7.16503 4.40122C7.24326 4.36507 7.31611 4.315 7.32419 4.29C7.34578 4.23714 7.34308 4.23714 7.27833 4.28721Z" fill="black"/>
<path d="M8.29688 4.58376C8.29688 4.63661 8.30225 4.65883 8.31036 4.63104C8.31576 4.60601 8.31576 4.56153 8.31036 4.53371C8.30225 4.50868 8.29688 4.53093 8.29688 4.58376Z" fill="black"/>
<path d="M6.28101 4.55648C6.31071 4.56762 6.38353 4.6288 6.4429 4.69274C6.50494 4.76228 6.57241 4.80675 6.61016 4.80675C6.64523 4.80675 6.67223 4.81511 6.67223 4.829C6.67223 4.84014 6.72079 4.84568 6.77745 4.84014C6.84489 4.83179 6.92853 4.85125 7.00946 4.8874C7.08501 4.92076 7.19023 4.9458 7.26308 4.94301L7.38716 4.94023L7.27926 4.90408C7.2199 4.88462 7.12008 4.84014 7.05534 4.80675C6.94471 4.7456 6.84489 4.7456 6.7073 4.79843C6.67761 4.80954 6.66953 4.80399 6.68301 4.78453C6.69382 4.76228 6.68301 4.75114 6.65334 4.75114C6.62635 4.75114 6.5616 4.7011 6.50764 4.63992C6.42941 4.55094 6.39164 4.52869 6.31879 4.53148C6.24326 4.53148 6.23786 4.53702 6.28101 4.55648Z" fill="black"/>
<path d="M6.09181 4.68968C6.04325 4.70915 6.04325 4.71193 6.08643 4.72861C6.1134 4.73975 6.16736 4.74808 6.21051 4.74808C6.25099 4.74808 6.32922 4.76755 6.38588 4.79258C6.51539 4.84541 6.53158 4.82873 6.43444 4.73697C6.35621 4.66189 6.20784 4.64242 6.09181 4.68968Z" fill="black"/>
<mask id="mask2_1073_154" style="mask-type:luminance" maskUnits="userSpaceOnUse" x="4" y="4" width="6" height="8">
<path d="M7.73507 4.83142C7.71618 4.92042 7.64604 5.0233 7.62177 5.00105C7.61367 4.98993 7.63255 4.94543 7.66763 4.89817C7.74048 4.79528 7.71618 4.75078 7.62985 4.83142C7.59748 4.86203 7.50577 4.91486 7.42481 4.94822C7.26563 5.01773 7.10377 5.01218 6.95807 4.93432C6.85555 4.87871 6.83937 4.88704 6.89873 4.95379C6.96618 5.03165 7.07678 5.08726 7.21437 5.11784C7.3277 5.14287 7.3277 5.14287 7.1874 5.13176C7.04711 5.12062 6.96888 5.08726 6.8097 4.96768C6.76114 4.93154 6.65051 4.88982 6.56688 4.87314C6.48055 4.85646 6.38881 4.83421 6.35914 4.8231C6.25932 4.78416 6.33215 4.87871 6.45355 4.94543C6.5534 5.00105 6.55878 5.0094 6.49133 4.9955C6.44818 4.98436 6.36454 4.94265 6.31058 4.9065C6.25662 4.86479 6.16218 4.83142 6.09474 4.8231C5.98144 4.81196 5.98144 4.81474 6.06507 4.84256C6.11092 4.85924 6.20536 4.92318 6.27281 4.98158C6.34295 5.03719 6.44277 5.10116 6.49944 5.12062C6.5534 5.14009 6.65051 5.1818 6.71526 5.21795C6.78 5.2541 6.88522 5.29024 6.95267 5.30138L7.07407 5.31806L7.02282 5.37925C6.99585 5.40982 6.96077 5.45711 6.94999 5.47933C6.93918 5.50158 6.96618 5.47657 7.01203 5.42093C7.08758 5.33196 7.24674 5.23185 7.27103 5.25967C7.27373 5.26524 7.30611 5.34864 7.33848 5.44319C7.39514 5.60169 7.39784 5.61838 7.35466 5.68234C7.3304 5.72127 7.22518 5.82138 7.11725 5.90479C6.90951 6.06887 6.73414 6.24406 6.80159 6.21902C6.82858 6.20789 6.86904 6.25239 6.9284 6.35807L7.01473 6.51101L6.95267 6.60277L6.89063 6.69731L6.77732 6.55827C6.71256 6.48319 6.62084 6.35807 6.56958 6.28299L6.47785 6.14395L6.53181 6.03548C6.56148 5.97433 6.64241 5.85475 6.70988 5.76575L6.83666 5.60448L6.72066 5.7157C6.60196 5.8325 6.45088 6.07441 6.45088 6.14949C6.45088 6.19956 6.59115 6.39976 6.75303 6.58609C6.8124 6.65281 6.87174 6.74181 6.88792 6.78907C6.90411 6.83636 6.9338 6.86972 6.96077 6.86972C6.98774 6.86972 7.03362 6.89754 7.06599 6.93368L7.12536 7.00041L7.04711 7.17838C6.88522 7.55099 6.82318 7.98759 6.82048 8.76061C6.82048 9.05817 6.82858 9.36683 6.83937 9.4447L6.85825 9.5865L6.56688 9.71721C6.18918 9.88962 5.67118 10.0731 5.18284 10.2066C4.73229 10.329 4.74307 10.3484 5.20443 10.2483C6.16488 10.037 7.05251 9.67271 7.71348 9.22222C8.0777 8.97474 8.46892 8.62992 8.66585 8.38522C8.75759 8.27122 8.83852 8.17667 8.84392 8.17667C8.86551 8.17667 8.84392 8.66886 8.80885 8.96641C8.72522 9.6755 8.57144 10.3178 8.39337 10.7238L8.31514 10.9018H8.37718C8.477 10.9018 8.71173 10.7655 8.79266 10.6571C9.00581 10.379 9.138 9.9063 9.20006 9.21111C9.21355 9.0526 9.23244 8.91634 9.23781 8.9108C9.254 8.89133 9.33225 9.23336 9.36463 9.45581C9.3997 9.72554 9.37541 10.3206 9.31337 10.6098C9.25132 10.9101 9.12181 11.2883 8.995 11.5553C8.94644 11.6609 8.92218 11.7249 8.94644 11.6943C9.01929 11.6025 9.22163 11.1521 9.29718 10.9157C9.46174 10.4096 9.52381 9.7339 9.44826 9.25839C9.4051 8.98031 9.29448 8.61324 9.19466 8.40748L9.10292 8.22393L9.08674 8.67442C9.05437 9.42801 8.95455 9.99528 8.79266 10.3373C8.67936 10.5765 8.62 10.621 8.69014 10.418C8.77378 10.1677 8.87359 9.71997 8.93566 9.33069C8.98152 9.04427 8.995 8.81068 9.00311 8.20171L9.01389 7.43422L9.11103 7.20342C9.16229 7.07549 9.20006 6.95869 9.19466 6.9448C9.18385 6.91143 8.79807 7.84854 8.79807 7.90694C8.79807 7.9264 8.74951 8.01259 8.69014 8.09324C8.63078 8.17389 8.58222 8.23228 8.58222 8.22117C8.58222 8.21282 8.69014 7.93752 8.82233 7.61217C9.05977 7.02544 9.12721 6.8419 9.07055 6.92533C9.05437 6.94758 8.98962 7.09774 8.92755 7.25903L8.81425 7.55099L8.77648 7.41197C8.73062 7.24511 8.67126 7.17281 8.47162 7.04769C8.38529 6.99484 8.30974 6.93368 8.30163 6.90865C8.26118 6.79742 8.30433 6.38029 8.37178 6.24682C8.39607 6.19956 8.40955 6.21346 8.4824 6.35528C8.59033 6.55827 8.64429 6.58609 8.86011 6.5388C8.95185 6.51934 9.06245 6.48597 9.10833 6.46372C9.15148 6.44147 9.16499 6.43036 9.13529 6.44147C8.97344 6.49154 8.70093 6.52769 8.65237 6.50822C8.55255 6.46929 8.43925 6.21624 8.43385 6.02437C8.43114 5.92147 8.40955 5.81582 8.37988 5.75742C8.31784 5.63227 7.9563 5.24853 7.79984 5.1373C7.73237 5.09283 7.67303 5.04833 7.66763 5.04276C7.66222 5.03998 7.67573 5.01218 7.7 4.98436C7.72429 4.95657 7.75396 4.8926 7.76207 4.84532C7.78363 4.73688 7.75936 4.72577 7.73507 4.83142ZM6.79081 5.09559C6.90681 5.17624 6.94459 5.18737 7.10647 5.18737C7.27644 5.18737 7.28452 5.19013 7.21437 5.22074C7.12266 5.26245 6.98774 5.24299 6.85555 5.17067C6.63163 5.04555 6.57496 5.00661 6.61544 5.00661C6.63973 5.00661 6.71796 5.04833 6.79081 5.09559ZM7.61637 5.55441C7.65144 5.62116 7.68651 5.67399 7.69462 5.67399C7.7027 5.67399 7.7 5.61559 7.68922 5.54051C7.65684 5.34586 7.66492 5.31249 7.7081 5.43764C7.76207 5.58501 7.90774 6.16896 7.90774 6.22735C7.90504 6.2941 7.76477 6.1078 7.65414 5.89646C7.57589 5.74352 7.4464 5.37925 7.4491 5.31528C7.45181 5.28746 7.55162 5.43207 7.61637 5.55441ZM7.47069 5.81303C7.46259 5.86864 7.34929 5.96876 7.32229 5.94094C7.31689 5.93815 7.33308 5.86586 7.35737 5.78521C7.39784 5.64341 7.40322 5.63784 7.4383 5.68791C7.45989 5.71849 7.47607 5.7741 7.47069 5.81303ZM8.2153 5.90201C8.218 6.02158 8.16136 6.20234 8.12358 6.20234C8.11278 6.20234 8.09659 6.15506 8.08851 6.09666C8.0777 6.04105 8.06422 5.94929 8.05614 5.89646C8.03995 5.80192 8.03995 5.80192 8.0777 5.86586L8.11548 5.93261L8.13437 5.82693C8.16136 5.68791 8.21262 5.73795 8.2153 5.90201ZM7.26833 5.92704C7.23326 6.05219 7.23326 6.08833 7.27103 6.26353C7.3277 6.51655 7.3277 6.67228 7.27373 6.69174C7.21977 6.71399 7.15233 6.6556 7.15233 6.58887C7.15233 6.56105 7.13074 6.53326 7.10647 6.52491C7.07948 6.51655 7.01203 6.43315 6.95537 6.3386L6.85555 6.16896L6.9257 6.11058C6.96618 6.07998 7.06599 5.99379 7.14963 5.92147C7.23326 5.84639 7.3034 5.788 7.3034 5.78521C7.30611 5.78521 7.28992 5.84918 7.26833 5.92704ZM7.60018 6.0494C7.64874 6.17452 7.64874 6.17452 7.56781 6.17452C7.51115 6.17452 7.50036 6.16341 7.51115 6.11891C7.52463 6.06052 7.49226 6.04105 7.46259 6.09112C7.45448 6.10502 7.42481 6.11891 7.40055 6.11891C7.37085 6.11891 7.38704 6.09388 7.4491 6.03548C7.50036 5.99101 7.54622 5.95486 7.55162 5.95208C7.55703 5.95208 7.57859 5.99655 7.60018 6.0494ZM7.57321 6.25796H7.68111L7.77825 6.50544L7.87537 6.75571L7.7081 6.77239C7.49496 6.79186 7.41943 6.7835 7.36547 6.72789C7.33308 6.69453 7.3304 6.66673 7.34658 6.61666C7.36007 6.58052 7.36277 6.47486 7.35196 6.38586C7.33578 6.22459 7.33578 6.22181 7.39784 6.23849C7.43292 6.2496 7.51115 6.25796 7.57321 6.25796ZM7.02822 6.70567C6.93918 6.80854 6.89873 6.74181 6.97966 6.62223C7.02014 6.56384 7.02822 6.56105 7.04981 6.60555C7.0687 6.63891 7.06329 6.66673 7.02822 6.70567ZM7.20089 6.72235C7.24136 6.75014 7.27914 6.77796 7.28722 6.78907C7.29532 6.79742 7.33848 6.82522 7.38436 6.85025C7.53274 6.92811 7.51925 7.11999 7.36547 7.11999C7.3007 7.11999 7.25485 7.08941 7.15773 6.97816C7.00395 6.80297 7.00125 6.79742 7.06059 6.72789C7.11725 6.66395 7.10915 6.66395 7.20089 6.72235ZM8.13437 6.76404C8.12359 6.7835 8.08581 6.8419 8.05074 6.89197C8.00756 6.95036 7.99677 6.98373 8.01836 6.97816C8.03995 6.97537 8.08581 6.97537 8.12358 6.97816L8.19103 6.98094L8.12629 7.03377C8.09121 7.06159 8.06962 7.09774 8.08041 7.1172C8.09121 7.13667 8.08041 7.14778 8.04533 7.14778C8.01296 7.14778 7.95362 7.09217 7.89155 7.00598C7.78363 6.85304 7.78903 6.83079 7.93473 6.79742C7.97251 6.78907 8.02644 6.77239 8.05614 6.75849C8.13437 6.72513 8.15596 6.72513 8.13437 6.76404ZM7.8457 7.5677C7.85648 7.81518 7.8457 8.05431 7.81332 8.35741C7.78903 8.59935 7.77285 8.84126 7.78095 8.89687C7.79174 8.9803 7.78095 9.00534 7.72429 9.04981C7.61366 9.13881 7.20089 9.4002 7.17392 9.4002C7.16311 9.4002 7.15233 9.36683 7.15233 9.3279C7.15233 9.2695 7.16041 9.26115 7.20899 9.27507C7.26025 9.29176 7.26295 9.28619 7.24406 9.18607C7.23056 9.09988 7.23326 9.08596 7.26295 9.11378C7.28182 9.13325 7.3277 9.14993 7.36277 9.14993C7.41403 9.14993 7.42481 9.13603 7.42211 9.07206C7.41943 9.03035 7.41673 8.96084 7.41943 8.91912L7.42211 8.84126L7.49496 8.89687C7.58399 8.97195 7.60018 8.95527 7.54352 8.84683C7.50036 8.75786 7.51925 8.73282 7.58129 8.794C7.60018 8.81347 7.5894 8.7634 7.55703 8.67999C7.52463 8.59656 7.49226 8.44641 7.48418 8.34629L7.46799 8.16278L7.56781 8.274C7.62447 8.33518 7.66492 8.36576 7.65684 8.34351C7.65144 8.32126 7.63796 8.274 7.62715 8.24064C7.61096 8.19057 7.61637 8.17946 7.64874 8.19335C7.7027 8.2156 7.7027 8.19614 7.65414 8.09881C7.63525 8.05709 7.60829 7.99313 7.59748 7.95698C7.57859 7.89304 7.57859 7.89304 7.64066 7.93752C7.74048 8.00705 7.74588 7.99313 7.69192 7.82908L7.64066 7.67614L7.7081 7.72064C7.78633 7.77625 7.78633 7.78179 7.71618 7.5927C7.68381 7.50651 7.67573 7.45369 7.69462 7.47315C7.74856 7.52876 7.77285 7.51484 7.74856 7.44533C7.73777 7.41197 7.71889 7.348 7.7081 7.3035C7.68922 7.22843 7.69192 7.22564 7.73507 7.26181C7.77825 7.29796 7.77825 7.28682 7.76477 7.10609L7.74856 6.91143L7.78903 7.06437C7.81062 7.14778 7.83759 7.37582 7.8457 7.5677ZM8.33133 7.49538C8.35829 7.58438 8.37718 7.78458 8.38529 8.05431L8.39877 8.47144L8.23419 8.61881C8.14517 8.69946 8.06962 8.7495 8.06962 8.73004C8.06962 8.71336 8.09929 8.63271 8.13707 8.55206C8.18563 8.45473 8.2153 8.32126 8.23689 8.13774C8.27196 7.81796 8.24769 7.67335 8.11548 7.3925C8.02915 7.21175 8.02915 7.20618 8.08311 7.19506C8.15866 7.18117 8.27736 7.32297 8.33133 7.49538ZM8.74681 7.70671C8.71711 7.77903 8.70093 7.7985 8.69555 7.76511C8.69014 7.7401 8.67126 7.65389 8.64967 7.57324L8.61459 7.43144L8.70363 7.51763L8.78996 7.60106L8.74681 7.70671ZM8.17755 7.96812C8.17755 8.28233 8.14247 8.50202 8.08041 8.58267C8.04533 8.62992 8.04263 8.59935 8.05074 8.2879C8.06422 7.9264 8.1101 7.6372 8.15326 7.66502C8.16674 7.67335 8.17755 7.80961 8.17755 7.96812ZM8.67126 7.88469C8.65237 7.94308 8.63618 7.93752 8.63618 7.86801C8.63618 7.83743 8.64699 7.81796 8.66318 7.82908C8.67666 7.83743 8.68204 7.86244 8.67126 7.88469Z" fill="white"/>
</mask>
<g mask="url(#mask2_1073_154)">
<path d="M7.73507 4.83142C7.71618 4.92042 7.64604 5.0233 7.62177 5.00105C7.61367 4.98993 7.63255 4.94543 7.66763 4.89817C7.74048 4.79528 7.71618 4.75078 7.62985 4.83142C7.59748 4.86203 7.50577 4.91486 7.42481 4.94822C7.26563 5.01773 7.10377 5.01218 6.95807 4.93432C6.85555 4.87871 6.83937 4.88704 6.89873 4.95379C6.96618 5.03165 7.07678 5.08726 7.21437 5.11784C7.3277 5.14287 7.3277 5.14287 7.1874 5.13176C7.04711 5.12062 6.96888 5.08726 6.8097 4.96768C6.76114 4.93154 6.65051 4.88982 6.56688 4.87314C6.48055 4.85646 6.38881 4.83421 6.35914 4.8231C6.25932 4.78416 6.33215 4.87871 6.45355 4.94543C6.5534 5.00105 6.55878 5.0094 6.49133 4.9955C6.44818 4.98436 6.36454 4.94265 6.31058 4.9065C6.25662 4.86479 6.16218 4.83142 6.09474 4.8231C5.98144 4.81196 5.98144 4.81474 6.06507 4.84256C6.11092 4.85924 6.20536 4.92318 6.27281 4.98158C6.34295 5.03719 6.44277 5.10116 6.49944 5.12062C6.5534 5.14009 6.65051 5.1818 6.71526 5.21795C6.78 5.2541 6.88522 5.29024 6.95267 5.30138L7.07407 5.31806L7.02282 5.37925C6.99585 5.40982 6.96077 5.45711 6.94999 5.47933C6.93918 5.50158 6.96618 5.47657 7.01203 5.42093C7.08758 5.33196 7.24674 5.23185 7.27103 5.25967C7.27373 5.26524 7.30611 5.34864 7.33848 5.44319C7.39514 5.60169 7.39784 5.61838 7.35466 5.68234C7.3304 5.72127 7.22518 5.82138 7.11725 5.90479C6.90951 6.06887 6.73414 6.24406 6.80159 6.21902C6.82858 6.20789 6.86904 6.25239 6.9284 6.35807L7.01473 6.51101L6.95267 6.60277L6.89063 6.69731L6.77732 6.55827C6.71256 6.48319 6.62084 6.35807 6.56958 6.28299L6.47785 6.14395L6.53181 6.03548C6.56148 5.97433 6.64241 5.85475 6.70988 5.76575L6.83666 5.60448L6.72066 5.7157C6.60196 5.8325 6.45088 6.07441 6.45088 6.14949C6.45088 6.19956 6.59115 6.39976 6.75303 6.58609C6.8124 6.65281 6.87174 6.74181 6.88792 6.78907C6.90411 6.83636 6.9338 6.86972 6.96077 6.86972C6.98774 6.86972 7.03362 6.89754 7.06599 6.93368L7.12536 7.00041L7.04711 7.17838C6.88522 7.55099 6.82318 7.98759 6.82048 8.76061C6.82048 9.05817 6.82858 9.36683 6.83937 9.4447L6.85825 9.5865L6.56688 9.71721C6.18918 9.88962 5.67118 10.0731 5.18284 10.2066C4.73229 10.329 4.74307 10.3484 5.20443 10.2483C6.16488 10.037 7.05251 9.67271 7.71348 9.22222C8.0777 8.97474 8.46892 8.62992 8.66585 8.38522C8.75759 8.27122 8.83852 8.17667 8.84392 8.17667C8.86551 8.17667 8.84392 8.66886 8.80885 8.96641C8.72522 9.6755 8.57144 10.3178 8.39337 10.7238L8.31514 10.9018H8.37718C8.477 10.9018 8.71173 10.7655 8.79266 10.6571C9.00581 10.379 9.138 9.9063 9.20006 9.21111C9.21355 9.0526 9.23244 8.91634 9.23781 8.9108C9.254 8.89133 9.33225 9.23336 9.36463 9.45581C9.3997 9.72554 9.37541 10.3206 9.31337 10.6098C9.25132 10.9101 9.12181 11.2883 8.995 11.5553C8.94644 11.6609 8.92218 11.7249 8.94644 11.6943C9.01929 11.6025 9.22163 11.1521 9.29718 10.9157C9.46174 10.4096 9.52381 9.7339 9.44826 9.25839C9.4051 8.98031 9.29448 8.61324 9.19466 8.40748L9.10292 8.22393L9.08674 8.67442C9.05437 9.42801 8.95455 9.99528 8.79266 10.3373C8.67936 10.5765 8.62 10.621 8.69014 10.418C8.77378 10.1677 8.87359 9.71997 8.93566 9.33069C8.98152 9.04427 8.995 8.81068 9.00311 8.20171L9.01389 7.43422L9.11103 7.20342C9.16229 7.07549 9.20006 6.95869 9.19466 6.9448C9.18385 6.91143 8.79807 7.84854 8.79807 7.90694C8.79807 7.9264 8.74951 8.01259 8.69014 8.09324C8.63078 8.17389 8.58222 8.23228 8.58222 8.22117C8.58222 8.21282 8.69014 7.93752 8.82233 7.61217C9.05977 7.02544 9.12721 6.8419 9.07055 6.92533C9.05437 6.94758 8.98962 7.09774 8.92755 7.25903L8.81425 7.55099L8.77648 7.41197C8.73062 7.24511 8.67126 7.17281 8.47162 7.04769C8.38529 6.99484 8.30974 6.93368 8.30163 6.90865C8.26118 6.79742 8.30433 6.38029 8.37178 6.24682C8.39607 6.19956 8.40955 6.21346 8.4824 6.35528C8.59033 6.55827 8.64429 6.58609 8.86011 6.5388C8.95185 6.51934 9.06245 6.48597 9.10833 6.46372C9.15148 6.44147 9.16499 6.43036 9.13529 6.44147C8.97344 6.49154 8.70093 6.52769 8.65237 6.50822C8.55255 6.46929 8.43925 6.21624 8.43385 6.02437C8.43114 5.92147 8.40955 5.81582 8.37988 5.75742C8.31784 5.63227 7.9563 5.24853 7.79984 5.1373C7.73237 5.09283 7.67303 5.04833 7.66763 5.04276C7.66222 5.03998 7.67573 5.01218 7.7 4.98436C7.72429 4.95657 7.75396 4.8926 7.76207 4.84532C7.78363 4.73688 7.75936 4.72577 7.73507 4.83142ZM6.79081 5.09559C6.90681 5.17624 6.94459 5.18737 7.10647 5.18737C7.27644 5.18737 7.28452 5.19013 7.21437 5.22074C7.12266 5.26245 6.98774 5.24299 6.85555 5.17067C6.63163 5.04555 6.57496 5.00661 6.61544 5.00661C6.63973 5.00661 6.71796 5.04833 6.79081 5.09559ZM7.61637 5.55441C7.65144 5.62116 7.68651 5.67399 7.69462 5.67399C7.7027 5.67399 7.7 5.61559 7.68922 5.54051C7.65684 5.34586 7.66492 5.31249 7.7081 5.43764C7.76207 5.58501 7.90774 6.16896 7.90774 6.22735C7.90504 6.2941 7.76477 6.1078 7.65414 5.89646C7.57589 5.74352 7.4464 5.37925 7.4491 5.31528C7.45181 5.28746 7.55162 5.43207 7.61637 5.55441ZM7.47069 5.81303C7.46259 5.86864 7.34929 5.96876 7.32229 5.94094C7.31689 5.93815 7.33308 5.86586 7.35737 5.78521C7.39784 5.64341 7.40322 5.63784 7.4383 5.68791C7.45989 5.71849 7.47607 5.7741 7.47069 5.81303ZM8.2153 5.90201C8.218 6.02158 8.16136 6.20234 8.12358 6.20234C8.11278 6.20234 8.09659 6.15506 8.08851 6.09666C8.0777 6.04105 8.06422 5.94929 8.05614 5.89646C8.03995 5.80192 8.03995 5.80192 8.0777 5.86586L8.11548 5.93261L8.13437 5.82693C8.16136 5.68791 8.21262 5.73795 8.2153 5.90201ZM7.26833 5.92704C7.23326 6.05219 7.23326 6.08833 7.27103 6.26353C7.3277 6.51655 7.3277 6.67228 7.27373 6.69174C7.21977 6.71399 7.15233 6.6556 7.15233 6.58887C7.15233 6.56105 7.13074 6.53326 7.10647 6.52491C7.07948 6.51655 7.01203 6.43315 6.95537 6.3386L6.85555 6.16896L6.9257 6.11058C6.96618 6.07998 7.06599 5.99379 7.14963 5.92147C7.23326 5.84639 7.3034 5.788 7.3034 5.78521C7.30611 5.78521 7.28992 5.84918 7.26833 5.92704ZM7.60018 6.0494C7.64874 6.17452 7.64874 6.17452 7.56781 6.17452C7.51115 6.17452 7.50036 6.16341 7.51115 6.11891C7.52463 6.06052 7.49226 6.04105 7.46259 6.09112C7.45448 6.10502 7.42481 6.11891 7.40055 6.11891C7.37085 6.11891 7.38704 6.09388 7.4491 6.03548C7.50036 5.99101 7.54622 5.95486 7.55162 5.95208C7.55703 5.95208 7.57859 5.99655 7.60018 6.0494ZM7.57321 6.25796H7.68111L7.77825 6.50544L7.87537 6.75571L7.7081 6.77239C7.49496 6.79186 7.41943 6.7835 7.36547 6.72789C7.33308 6.69453 7.3304 6.66673 7.34658 6.61666C7.36007 6.58052 7.36277 6.47486 7.35196 6.38586C7.33578 6.22459 7.33578 6.22181 7.39784 6.23849C7.43292 6.2496 7.51115 6.25796 7.57321 6.25796ZM7.02822 6.70567C6.93918 6.80854 6.89873 6.74181 6.97966 6.62223C7.02014 6.56384 7.02822 6.56105 7.04981 6.60555C7.0687 6.63891 7.06329 6.66673 7.02822 6.70567ZM7.20089 6.72235C7.24136 6.75014 7.27914 6.77796 7.28722 6.78907C7.29532 6.79742 7.33848 6.82522 7.38436 6.85025C7.53274 6.92811 7.51925 7.11999 7.36547 7.11999C7.3007 7.11999 7.25485 7.08941 7.15773 6.97816C7.00395 6.80297 7.00125 6.79742 7.06059 6.72789C7.11725 6.66395 7.10915 6.66395 7.20089 6.72235ZM8.13437 6.76404C8.12359 6.7835 8.08581 6.8419 8.05074 6.89197C8.00756 6.95036 7.99677 6.98373 8.01836 6.97816C8.03995 6.97537 8.08581 6.97537 8.12358 6.97816L8.19103 6.98094L8.12629 7.03377C8.09121 7.06159 8.06962 7.09774 8.08041 7.1172C8.09121 7.13667 8.08041 7.14778 8.04533 7.14778C8.01296 7.14778 7.95362 7.09217 7.89155 7.00598C7.78363 6.85304 7.78903 6.83079 7.93473 6.79742C7.97251 6.78907 8.02644 6.77239 8.05614 6.75849C8.13437 6.72513 8.15596 6.72513 8.13437 6.76404ZM7.8457 7.5677C7.85648 7.81518 7.8457 8.05431 7.81332 8.35741C7.78903 8.59935 7.77285 8.84126 7.78095 8.89687C7.79174 8.9803 7.78095 9.00534 7.72429 9.04981C7.61366 9.13881 7.20089 9.4002 7.17392 9.4002C7.16311 9.4002 7.15233 9.36683 7.15233 9.3279C7.15233 9.2695 7.16041 9.26115 7.20899 9.27507C7.26025 9.29176 7.26295 9.28619 7.24406 9.18607C7.23056 9.09988 7.23326 9.08596 7.26295 9.11378C7.28182 9.13325 7.3277 9.14993 7.36277 9.14993C7.41403 9.14993 7.42481 9.13603 7.42211 9.07206C7.41943 9.03035 7.41673 8.96084 7.41943 8.91912L7.42211 8.84126L7.49496 8.89687C7.58399 8.97195 7.60018 8.95527 7.54352 8.84683C7.50036 8.75786 7.51925 8.73282 7.58129 8.794C7.60018 8.81347 7.5894 8.7634 7.55703 8.67999C7.52463 8.59656 7.49226 8.44641 7.48418 8.34629L7.46799 8.16278L7.56781 8.274C7.62447 8.33518 7.66492 8.36576 7.65684 8.34351C7.65144 8.32126 7.63796 8.274 7.62715 8.24064C7.61096 8.19057 7.61637 8.17946 7.64874 8.19335C7.7027 8.2156 7.7027 8.19614 7.65414 8.09881C7.63525 8.05709 7.60829 7.99313 7.59748 7.95698C7.57859 7.89304 7.57859 7.89304 7.64066 7.93752C7.74048 8.00705 7.74588 7.99313 7.69192 7.82908L7.64066 7.67614L7.7081 7.72064C7.78633 7.77625 7.78633 7.78179 7.71618 7.5927C7.68381 7.50651 7.67573 7.45369 7.69462 7.47315C7.74856 7.52876 7.77285 7.51484 7.74856 7.44533C7.73777 7.41197 7.71889 7.348 7.7081 7.3035C7.68922 7.22843 7.69192 7.22564 7.73507 7.26181C7.77825 7.29796 7.77825 7.28682 7.76477 7.10609L7.74856 6.91143L7.78903 7.06437C7.81062 7.14778 7.83759 7.37582 7.8457 7.5677ZM8.33133 7.49538C8.35829 7.58438 8.37718 7.78458 8.38529 8.05431L8.39877 8.47144L8.23419 8.61881C8.14517 8.69946 8.06962 8.7495 8.06962 8.73004C8.06962 8.71336 8.09929 8.63271 8.13707 8.55206C8.18563 8.45473 8.2153 8.32126 8.23689 8.13774C8.27196 7.81796 8.24769 7.67335 8.11548 7.3925C8.02915 7.21175 8.02915 7.20618 8.08311 7.19506C8.15866 7.18117 8.27736 7.32297 8.33133 7.49538ZM8.74681 7.70671C8.71711 7.77903 8.70093 7.7985 8.69555 7.76511C8.69014 7.7401 8.67126 7.65389 8.64967 7.57324L8.61459 7.43144L8.70363 7.51763L8.78996 7.60106L8.74681 7.70671ZM8.17755 7.96812C8.17755 8.28233 8.14247 8.50202 8.08041 8.58267C8.04533 8.62992 8.04263 8.59935 8.05074 8.2879C8.06422 7.9264 8.1101 7.6372 8.15326 7.66502C8.16674 7.67335 8.17755 7.80961 8.17755 7.96812ZM8.67126 7.88469C8.65237 7.94308 8.63618 7.93752 8.63618 7.86801C8.63618 7.83743 8.64699 7.81796 8.66318 7.82908C8.67666 7.83743 8.68204 7.86244 8.67126 7.88469Z" fill="white" stroke="black" stroke-width="50"/>
</g>
<path d="M5.84776 4.83451C5.86127 4.87345 6.14724 5.02639 6.20928 5.02639C6.26324 5.02639 6.23898 4.98467 6.14994 4.9207C6.10138 4.88734 6.02313 4.85955 5.97998 4.85955C5.93409 4.85955 5.88283 4.84287 5.86395 4.8234C5.83698 4.79558 5.83428 4.79837 5.84776 4.83451Z" fill="black"/>
<path d="M8.07979 5.08817C8.07439 5.23557 8.07979 5.24947 8.13105 5.24947C8.1958 5.24947 8.27943 5.29118 8.37117 5.37183C8.40894 5.40241 8.40084 5.38851 8.35228 5.33844C8.30372 5.2884 8.22547 5.24111 8.18231 5.23278C8.10946 5.2161 8.10406 5.20496 8.09328 5.07149L8.08517 4.92969L8.07979 5.08817Z" fill="black"/>
<mask id="mask3_1073_154" style="mask-type:luminance" maskUnits="userSpaceOnUse" x="8" y="4" width="1" height="2">
<path d="M8.07589 5.09598C8.07048 5.24338 8.07589 5.25728 8.12715 5.25728C8.19189 5.25728 8.27552 5.29899 8.36726 5.37964C8.40504 5.41022 8.39693 5.39632 8.34837 5.34625C8.29981 5.29621 8.22156 5.24892 8.17841 5.2406C8.10556 5.22392 8.10015 5.21278 8.08937 5.0793L8.08127 4.9375L8.07589 5.09598Z" fill="white"/>
</mask>
<g mask="url(#mask3_1073_154)">
<path d="M8.07768 5.09535L8.32537 5.10432L8.32535 5.10498L8.07768 5.09535ZM8.36905 5.37901L8.21589 5.57987L8.21197 5.57668L8.20818 5.57336L8.36905 5.37901ZM8.1802 5.23997L8.13451 5.49105L8.13045 5.49026L8.12641 5.48934L8.1802 5.23997ZM8.09116 5.07867L7.84413 5.0999L7.84389 5.09678L7.84371 5.09367L8.09116 5.07867ZM8.08306 4.93687L7.83533 4.9279L8.33051 4.92188L8.08306 4.93687ZM8.32535 5.10498C8.32401 5.14182 8.32366 5.1631 8.32399 5.17621C8.32441 5.19381 8.32592 5.17746 8.31719 5.15051C8.31187 5.13403 8.30118 5.10843 8.28001 5.08197C8.25761 5.05397 8.23019 5.03336 8.20186 5.01997C8.17583 5.00766 8.15397 5.0038 8.14339 5.00239C8.13308 5.00104 8.12666 5.00119 8.12894 5.00119V5.5121C8.11577 5.5121 8.05668 5.51343 7.99521 5.48439C7.91217 5.44512 7.86716 5.37469 7.84691 5.31206C7.8311 5.26321 7.82906 5.21575 7.82839 5.18928C7.82762 5.15832 7.82862 5.12259 7.82998 5.08572L8.32535 5.10498ZM8.12894 5.00119C8.284 5.00119 8.42502 5.09244 8.52992 5.18466L8.20818 5.57336C8.17375 5.54309 8.14706 5.52572 8.12948 5.51683C8.11055 5.50722 8.11156 5.5121 8.12894 5.5121V5.00119ZM8.52218 5.17815C8.53255 5.18653 8.52561 5.17999 8.51108 5.17148C8.50694 5.16908 8.49393 5.16154 8.47558 5.15472C8.46646 5.1513 8.44899 5.14537 8.42611 5.1421C8.40635 5.13927 8.35953 5.13485 8.3049 5.1561C8.23807 5.18211 8.183 5.23785 8.15833 5.31175C8.13813 5.37229 8.14554 5.42343 8.14981 5.4451C8.15829 5.48806 8.17583 5.5177 8.17831 5.52206C8.19219 5.54638 8.20655 5.56054 8.19623 5.54891C8.19259 5.54485 8.18575 5.53747 8.17487 5.52625L8.52543 5.16502C8.53884 5.17881 8.55121 5.19194 8.5616 5.20362C8.56526 5.20773 8.58839 5.23281 8.60562 5.26306C8.60896 5.26888 8.62703 5.29969 8.63566 5.3435C8.64 5.36557 8.64741 5.41707 8.62713 5.4779C8.60239 5.55203 8.54712 5.60797 8.48002 5.63408C8.42514 5.65544 8.378 5.65102 8.3578 5.64813C8.3345 5.64478 8.3165 5.6387 8.30678 5.63508C8.28725 5.6278 8.27268 5.61949 8.26665 5.61597C8.24452 5.60304 8.22442 5.58677 8.21589 5.57987L8.52218 5.17815ZM8.17487 5.52625C8.17209 5.52339 8.16694 5.51862 8.15938 5.51269C8.15196 5.50692 8.14386 5.50127 8.13595 5.49642C8.12787 5.49144 8.12185 5.48837 8.11877 5.48699C8.11734 5.48633 8.11758 5.48653 8.11944 5.48717C8.12105 5.48773 8.12628 5.48944 8.13451 5.49105L8.22588 4.98888C8.2905 5.00137 8.35073 5.03348 8.39034 5.0579C8.43491 5.08537 8.48379 5.1221 8.52543 5.16502L8.17487 5.52625ZM8.12641 5.48934C8.09986 5.48326 7.96881 5.46063 7.89656 5.32869C7.86892 5.27826 7.85935 5.22819 7.85472 5.19879C7.84976 5.16744 7.84674 5.13211 7.84413 5.0999L8.33816 5.05747C8.34097 5.09198 8.34265 5.1081 8.34404 5.11691C8.34573 5.12764 8.34406 5.10642 8.32825 5.07755C8.31915 5.06094 8.30649 5.04362 8.28973 5.02791C8.27335 5.01254 8.25738 5.00273 8.24551 4.99677C8.23446 4.99123 8.22662 4.98888 8.22576 4.98863C8.22494 4.98837 8.22665 4.98893 8.23396 4.99059L8.12641 5.48934ZM7.84371 5.09367L7.83563 4.95187L8.33051 4.92188L8.33861 5.06368L7.84371 5.09367ZM8.33078 4.94581L8.32537 5.10432L7.82995 5.08641L7.83533 4.9279L8.33078 4.94581Z" fill="black"/>
</g>
<path d="M6.88354 5.57851C6.84846 5.62301 6.85117 5.62579 6.89432 5.58965C6.9375 5.55347 6.95098 5.53125 6.92939 5.53125C6.92402 5.53125 6.90243 5.55347 6.88354 5.57851Z" fill="black"/>
<path d="M8.56136 5.76424C8.59643 5.8254 8.64501 5.94498 8.66928 6.02841C8.72594 6.20638 8.74753 6.21749 9.06049 6.21749L9.27632 6.21471L9.00113 6.18692C8.79879 6.16745 8.72324 6.15074 8.72324 6.12295C8.72324 6.0562 8.61532 5.79203 8.55868 5.72253C8.50472 5.65856 8.50742 5.66134 8.56136 5.76424Z" fill="black"/>
<mask id="mask4_1073_154" style="mask-type:luminance" maskUnits="userSpaceOnUse" x="8" y="5" width="2" height="2">
<path d="M8.55745 5.76424C8.59252 5.8254 8.64111 5.94498 8.66537 6.02841C8.72204 6.20638 8.74363 6.21749 9.05659 6.21749L9.27241 6.21471L8.99722 6.18692C8.79489 6.16745 8.71934 6.15074 8.71934 6.12295C8.71934 6.0562 8.61141 5.79203 8.55477 5.72253C8.50081 5.65856 8.50351 5.66134 8.55745 5.76424Z" fill="white"/>
</mask>
<g mask="url(#mask4_1073_154)">
<path d="M8.55924 5.76188L8.34585 5.89181L8.34344 5.88762L8.34119 5.88333L8.55924 5.76188ZM8.66716 6.02605L8.43164 6.10567L8.43067 6.10258L8.42975 6.09944L8.66716 6.02605ZM9.05838 6.21514L9.06148 6.47059H9.05838V6.21514ZM9.2742 6.21235L9.29839 5.95812L9.2773 6.46778L9.2742 6.21235ZM8.99901 6.18456L9.02204 5.9302L9.02321 5.9303L8.99901 6.18456ZM8.55656 5.72017L8.74361 5.55254L8.74499 5.5542L8.74636 5.55586L8.55656 5.72017ZM8.77266 5.63193C8.82027 5.71496 8.87604 5.85456 8.90457 5.95266L8.42975 6.09944C8.40973 6.03067 8.36838 5.93112 8.34585 5.89181L8.77266 5.63193ZM8.90269 5.9464C8.90941 5.96752 8.91414 5.98145 8.91803 5.99166C8.92193 6.00186 8.92324 6.00362 8.92183 6.00114C8.91997 5.9979 8.91444 5.98906 8.90413 5.97897C8.8934 5.96844 8.88194 5.96091 8.8722 5.95618C8.85713 5.94888 8.85517 5.95289 8.89273 5.95595C8.92842 5.95886 8.97894 5.95968 9.05838 5.95968V6.47059C8.98132 6.47059 8.91179 6.47 8.85364 6.46528C8.79735 6.46068 8.72779 6.45082 8.66109 6.41845C8.4995 6.34008 8.45501 6.17906 8.43164 6.10567L8.90269 5.9464ZM9.05528 5.95971L9.2711 5.95692L9.2773 6.46778L9.06148 6.47059L9.05528 5.95971ZM9.25001 6.46658L8.97482 6.43879L9.02321 5.9303L9.29839 5.95812L9.25001 6.46658ZM8.97599 6.43889C8.8753 6.42921 8.79167 6.41904 8.73062 6.40512C8.70251 6.3987 8.65889 6.38726 8.61707 6.36366C8.58081 6.34319 8.47325 6.27021 8.47325 6.12059H8.969C8.969 6.05862 8.94622 6.00674 8.91798 5.97049C8.89297 5.93845 8.86668 5.92203 8.8551 5.91549C8.83378 5.90346 8.82169 5.90261 8.83777 5.90629C8.86506 5.9125 8.92039 5.92042 9.02204 5.9302L8.97599 6.43889ZM8.47325 6.12059C8.47325 6.14131 8.47655 6.15214 8.47479 6.14422C8.4738 6.13983 8.47157 6.13114 8.46743 6.11788C8.4592 6.09157 8.44673 6.05737 8.43176 6.02084C8.41686 5.98449 8.40093 5.94939 8.3866 5.92118C8.36984 5.88823 8.36265 5.87944 8.36674 5.88445L8.74636 5.55586C8.77878 5.59563 8.80634 5.64596 8.82575 5.68415C8.84759 5.72712 8.86925 5.77527 8.88841 5.82199C8.9075 5.86853 8.92554 5.91722 8.93933 5.96139C8.94946 5.99386 8.969 6.05862 8.969 6.12059H8.47325ZM8.3695 5.88777C8.36253 5.87952 8.35723 5.87321 8.35279 5.86802C8.35066 5.86552 8.349 5.86358 8.34773 5.86212C8.34639 5.86062 8.34587 5.86003 8.34592 5.86008C8.34597 5.86013 8.34634 5.86054 8.34696 5.8612C8.34756 5.86182 8.34867 5.86299 8.35021 5.86452C8.35167 5.86598 8.36025 5.87461 8.37316 5.88435C8.37931 5.88897 8.39364 5.89939 8.41396 5.90913C8.42742 5.91559 8.48156 5.94108 8.55409 5.93005C8.59605 5.92364 8.64173 5.90514 8.68137 5.8692C8.71974 5.83438 8.74046 5.79415 8.75129 5.76244C8.77035 5.70655 8.76495 5.65955 8.76339 5.64678C8.75952 5.61487 8.75032 5.5916 8.74973 5.59001C8.74728 5.58337 8.74524 5.57898 8.74497 5.57834C8.7443 5.57686 8.7448 5.57803 8.74792 5.58416C8.75402 5.59612 8.76304 5.61321 8.77732 5.64041L8.34119 5.88333C8.32847 5.85911 8.31695 5.83727 8.30904 5.82174C8.30515 5.81415 8.30031 5.80447 8.29595 5.79486C8.29382 5.79016 8.29038 5.78237 8.2869 5.77305C8.28529 5.76873 8.2755 5.74341 8.27149 5.71013C8.26985 5.69667 8.26445 5.64913 8.28366 5.59285C8.29454 5.56097 8.31536 5.52058 8.35383 5.48566C8.39359 5.44962 8.4394 5.43104 8.48156 5.42463C8.55441 5.41352 8.60899 5.43914 8.62302 5.44586C8.64386 5.45587 8.65886 5.46671 8.66575 5.47192C8.68865 5.48916 8.70591 5.5088 8.70732 5.51036C8.71795 5.52204 8.73206 5.53887 8.74361 5.55254L8.3695 5.88777Z" fill="black"/>
</g>
<path d="M9.43426 5.92364C9.42345 5.95422 9.42345 5.9876 9.43156 5.99593C9.43964 6.00707 9.44774 5.99315 9.44774 5.96535C9.44774 5.93475 9.46393 5.92085 9.4963 5.92642C9.52327 5.93199 9.53948 5.957 9.53408 5.99036C9.52867 6.046 9.52867 6.046 9.55834 5.99315C9.58534 5.94867 9.57993 5.93199 9.53948 5.90139C9.47471 5.85134 9.45315 5.85413 9.43426 5.92364Z" fill="black"/>
<path d="M9.32686 6.17675C9.2756 6.24071 9.2756 6.24071 9.33226 6.19064C9.41051 6.12392 9.47526 6.13225 9.50493 6.21568C9.5427 6.31301 9.5373 6.34083 9.48064 6.42145C9.43478 6.48263 9.4213 6.48541 9.35385 6.45205C9.28911 6.42145 9.2837 6.42423 9.31607 6.46038C9.43478 6.61332 9.62633 6.35472 9.5319 6.16842C9.49414 6.0961 9.38892 6.10167 9.32686 6.17675Z" fill="black"/>
<path d="M9.18582 6.5814C9.12916 6.72044 9.12916 6.72044 9.04553 6.69262C8.88904 6.63423 8.93222 6.69262 9.11027 6.77605C9.3369 6.88171 9.39626 6.90118 9.39626 6.86503C9.39626 6.85113 9.37197 6.82888 9.3423 6.82053C9.27756 6.7983 9.27486 6.77884 9.32882 6.64812C9.37467 6.53411 9.37737 6.52022 9.345 6.53968C9.3342 6.54804 9.30723 6.61198 9.28834 6.68151C9.25327 6.8122 9.24519 6.82053 9.18312 6.7816C9.15075 6.75937 9.15345 6.73434 9.20201 6.60919C9.23438 6.52857 9.25867 6.45904 9.25327 6.45349C9.24786 6.44792 9.21819 6.50632 9.18582 6.5814Z" fill="black"/>
<path d="M4.17791 10.3395C4.11857 10.4062 3.87305 10.5119 3.55469 10.6092C3.10413 10.7427 2.83435 10.9096 2.69946 11.1348C2.63201 11.2516 2.63739 11.2877 2.71294 11.1848C2.85594 10.9846 3.09875 10.8484 3.63832 10.6649C3.95398 10.5564 4.16443 10.4396 4.21569 10.3451C4.25076 10.2728 4.23727 10.27 4.17791 10.3395Z" fill="#213F96"/>
<path d="M4.69596 10.3342C4.71217 10.3398 4.74454 10.3398 4.76343 10.3342C4.77962 10.3259 4.76611 10.3203 4.72836 10.3203C4.69058 10.3203 4.6771 10.3259 4.69596 10.3342Z" fill="white"/>
<path d="M4.86444 10.4338C3.89051 10.698 3.89859 10.6952 4.03348 10.698C4.26281 10.698 4.83477 10.5451 5.16932 10.3921C5.33118 10.317 5.25025 10.3282 4.86444 10.4338Z" fill="#213F96"/>
<path d="M8.90794 11.9365C8.64353 11.9866 8.4385 12.0506 7.10302 12.4843C6.4879 12.6818 5.87546 12.8709 5.74057 12.9014C5.38715 12.9793 4.48064 13.0016 4.03549 12.9404C3.44464 12.8598 3.00757 12.7207 2.70812 12.5177L2.52734 12.3954L2.67034 12.5344C2.82682 12.6874 3.08582 12.8264 3.41227 12.9348C3.94645 13.1128 4.94198 13.2407 5.84579 13.2407C6.39886 13.2435 6.49601 13.2351 6.7442 13.1795C7.17857 13.0794 7.65879 12.9098 8.24694 12.654C9.4718 12.1145 9.74701 12.0394 9.9979 12.1701C10.1004 12.2257 10.1004 12.2257 10.0519 12.1701C9.98442 12.095 9.70653 11.9616 9.53386 11.9254C9.35039 11.8865 9.16154 11.8893 8.90794 11.9365ZM9.74968 12.0394C9.84682 12.0756 9.84412 12.0756 9.61479 12.0756C9.32612 12.0756 9.01316 12.1729 8.1795 12.5205C7.03019 12.9988 6.25587 13.1768 5.38175 13.1712L5.00942 13.1684L5.31971 13.1295C5.8242 13.0683 5.76756 13.085 7.97716 12.3398C8.42231 12.1896 8.87286 12.0478 8.97538 12.0227C9.19393 11.9727 9.5959 11.981 9.74968 12.0394Z" fill="#213F96"/>
</svg>
