<svg width="48" height="48" viewBox="0 0 48 48" fill="none" xmlns="http://www.w3.org/2000/svg">
<path d="M16.9688 22.2852C16.9688 23.6198 17.5954 25.0765 18.8486 26.6553C20.1019 28.234 21.6888 29.5768 23.6094 30.6836C23.7396 30.7487 23.8698 30.7812 24 30.7812C24.1302 30.7812 24.2604 30.7487 24.3906 30.6836C26.3112 29.5768 27.8981 28.234 29.1514 26.6553C30.4046 25.0765 31.0312 23.6198 31.0312 22.2852C31.0312 20.9831 30.6569 19.9902 29.9082 19.3066C29.1595 18.623 28.3457 18.2812 27.4668 18.2812C26.7507 18.2812 26.0915 18.5091 25.4893 18.9648C24.887 19.4206 24.3906 19.9902 24 20.6738C23.6094 19.9902 23.113 19.4206 22.5107 18.9648C21.9085 18.5091 21.2493 18.2812 20.5332 18.2812C19.6543 18.2812 18.8405 18.623 18.0918 19.3066C17.3431 19.9902 16.9688 20.9831 16.9688 22.2852ZM20.5332 19.8438C21.1191 19.8438 21.6644 20.153 22.1689 20.7715C22.6735 21.39 23.0397 22.0573 23.2676 22.7734C23.3001 22.9362 23.3896 23.0664 23.5361 23.1641C23.6826 23.2617 23.8372 23.3105 24 23.3105C24.1628 23.3105 24.3174 23.2617 24.4639 23.1641C24.6104 23.0664 24.6999 22.9362 24.7324 22.7734C24.9603 22.0573 25.3265 21.39 25.8311 20.7715C26.3356 20.153 26.8809 19.8438 27.4668 19.8438C27.9551 19.8438 28.4108 20.0553 28.834 20.4785C29.2572 20.9017 29.4688 21.5039 29.4688 22.2852C29.4688 23.1641 28.9886 24.2546 28.0283 25.5566C27.068 26.8587 25.7253 28.0306 24 29.0723C22.2747 28.0306 20.932 26.8587 19.9717 25.5566C19.0114 24.2546 18.5312 23.1641 18.5312 22.2852C18.5312 21.5039 18.7428 20.9017 19.166 20.4785C19.5892 20.0553 20.0449 19.8438 20.5332 19.8438ZM44.3125 25.459V25.3125C44.3125 24.4987 43.9707 23.8558 43.2871 23.3838C42.6035 22.9118 41.8711 22.8385 41.0898 23.1641C40.7318 21.8294 39.8773 21.2516 38.5264 21.4307C37.1755 21.6097 36.5 22.3828 36.5 23.75V23.8965C35.7188 23.6035 35.0026 23.7012 34.3516 24.1895C33.7005 24.6777 33.375 25.3125 33.375 26.0938V34.0527C32.8867 33.5319 32.4554 32.9867 32.0811 32.417C31.7067 31.8473 31.0964 31.5625 30.25 31.5625C29.306 31.5625 28.6143 31.9694 28.1748 32.7832C27.7354 33.597 27.7598 34.3945 28.248 35.1758C30.1361 38.0404 31.3324 39.8958 31.8369 40.7422C32.3415 41.5885 32.903 42.321 33.5215 42.9395C33.9772 43.4277 34.3271 43.9648 34.5713 44.5508C34.8154 45.1367 34.9375 45.7552 34.9375 46.4062C34.9375 46.9271 35.1979 47.1875 35.7188 47.1875C36.2396 47.1875 36.5 46.9271 36.5 46.4062C36.5 44.7786 36.1257 43.5824 35.377 42.8174C34.6283 42.0524 34.0098 41.2793 33.5215 40.498C33.4889 40.4329 32.8135 39.3669 31.4951 37.2998C30.1768 35.2327 29.5339 34.2318 29.5664 34.2969C29.3385 33.8737 29.4199 33.5319 29.8105 33.2715C30.2012 33.0111 30.543 33.0599 30.8359 33.418L33.375 36.543V37.0312C33.375 37.5521 33.6354 37.8125 34.1562 37.8125C34.6771 37.8125 34.9375 37.5521 34.9375 37.0312V26.0938C34.9375 25.5729 35.1979 25.3125 35.7188 25.3125C36.2396 25.3125 36.5 25.5729 36.5 26.0938V33.125C36.5 33.3529 36.5732 33.54 36.7197 33.6865C36.8662 33.833 37.0534 33.9062 37.2812 33.9062C37.5091 33.9062 37.6963 33.833 37.8428 33.6865C37.9893 33.54 38.0625 33.3529 38.0625 33.125V23.75C38.0625 23.2292 38.3229 22.9688 38.8438 22.9688C39.3646 22.9688 39.625 23.2292 39.625 23.75V33.125C39.625 33.3529 39.6982 33.54 39.8447 33.6865C39.9912 33.833 40.1784 33.9062 40.4062 33.9062C40.6341 33.9062 40.8213 33.833 40.9678 33.6865C41.1143 33.54 41.1875 33.3529 41.1875 33.125V25.3125C41.1875 24.7917 41.4479 24.5312 41.9688 24.5312C42.4896 24.5312 42.75 24.7917 42.75 25.3125V33.125C42.75 33.3529 42.8232 33.54 42.9697 33.6865C43.1162 33.833 43.3034 33.9062 43.5312 33.9062C43.7591 33.9062 43.9463 33.833 44.0928 33.6865C44.2393 33.54 44.3125 33.3529 44.3125 33.125V27.6562C44.3125 27.1354 44.5729 26.875 45.0938 26.875C45.6146 26.875 45.875 27.1354 45.875 27.6562V37.666C45.875 39.196 45.6146 40.3678 45.0938 41.1816C44.5729 41.9954 44.3125 43.265 44.3125 44.9902V46.4062C44.3125 46.9271 44.5729 47.1875 45.0938 47.1875C45.6146 47.1875 45.875 46.9271 45.875 46.4062V44.9902C45.875 43.4603 46.1354 42.2884 46.6562 41.4746C47.1771 40.6608 47.4375 39.3913 47.4375 37.666V27.6562C47.4375 26.875 47.112 26.2402 46.4609 25.752C45.8099 25.2637 45.0938 25.166 44.3125 25.459ZM46.6562 11.25C45.0286 11.25 43.8324 11.6243 43.0674 12.373C42.3024 13.1217 41.5293 13.7402 40.748 14.2285L34.5469 18.1836C34.1237 18.4115 33.7819 18.3301 33.5215 17.9395C33.2611 17.5488 33.3099 17.207 33.668 16.9141L36.793 14.375H37.2812C37.8021 14.375 38.0625 14.1146 38.0625 13.5938C38.0625 13.0729 37.8021 12.8125 37.2812 12.8125H26.3438C25.8229 12.8125 25.5625 12.5521 25.5625 12.0312C25.5625 11.5104 25.8229 11.25 26.3438 11.25H33.375C33.8958 11.25 34.1562 10.9896 34.1562 10.4688C34.1562 9.94792 33.8958 9.6875 33.375 9.6875H24C23.4792 9.6875 23.2188 9.42708 23.2188 8.90625C23.2188 8.38542 23.4792 8.125 24 8.125H33.375C33.8958 8.125 34.1562 7.86458 34.1562 7.34375C34.1562 6.82292 33.8958 6.5625 33.375 6.5625H25.5625C25.0417 6.5625 24.7812 6.30208 24.7812 5.78125C24.7812 5.26042 25.0417 5 25.5625 5H33.375C33.8958 5 34.1562 4.73958 34.1562 4.21875C34.1562 3.69792 33.8958 3.4375 33.375 3.4375H27.9062C27.3854 3.4375 27.125 3.17708 27.125 2.65625C27.125 2.13542 27.3854 1.875 27.9062 1.875H37.916C39.446 1.875 40.6178 2.13542 41.4316 2.65625C42.2454 3.17708 43.515 3.4375 45.2402 3.4375H46.6562C47.1771 3.4375 47.4375 3.17708 47.4375 2.65625C47.4375 2.13542 47.1771 1.875 46.6562 1.875H45.2402C43.7103 1.875 42.5384 1.61458 41.7246 1.09375C40.9108 0.572917 39.6413 0.3125 37.916 0.3125H27.9062C27.125 0.3125 26.4902 0.638021 26.002 1.28906C25.5137 1.9401 25.416 2.65625 25.709 3.4375H25.5625C24.7487 3.4375 24.1058 3.7793 23.6338 4.46289C23.1618 5.14648 23.0885 5.87891 23.4141 6.66016C22.0794 7.01823 21.5016 7.87272 21.6807 9.22363C21.8597 10.5745 22.6328 11.25 24 11.25H24.1465C23.8535 12.0312 23.9512 12.7474 24.4395 13.3984C24.9277 14.0495 25.5625 14.375 26.3438 14.375H34.3027C33.7819 14.8633 33.2367 15.2946 32.667 15.6689C32.0973 16.0433 31.8125 16.6536 31.8125 17.5C31.8125 18.4115 32.2194 19.0951 33.0332 19.5508C33.847 20.0065 34.6445 19.9902 35.4258 19.502L41.5781 15.5469C42.457 14.9935 43.1976 14.3994 43.7998 13.7646C44.402 13.1299 45.3542 12.8125 46.6562 12.8125C47.1771 12.8125 47.4375 12.5521 47.4375 12.0312C47.4375 11.5104 47.1771 11.25 46.6562 11.25ZM3.6875 22.041V22.1875C3.6875 23.0013 4.0293 23.6442 4.71289 24.1162C5.39648 24.5882 6.12891 24.6615 6.91016 24.3359C7.26823 25.6706 8.12272 26.2484 9.47363 26.0693C10.8245 25.8903 11.5 25.1172 11.5 23.75V23.6035C12.2812 23.8965 12.9974 23.7988 13.6484 23.3105C14.2995 22.8223 14.625 22.1875 14.625 21.4062V13.4473C15.1133 13.9681 15.5446 14.5133 15.9189 15.083C16.2933 15.6527 16.9036 15.9375 17.75 15.9375C18.694 15.9375 19.3857 15.5306 19.8252 14.7168C20.2646 13.903 20.2402 13.1055 19.752 12.3242C17.8639 9.45964 16.6758 7.60417 16.1875 6.75781C15.6992 5.91146 15.1296 5.17904 14.4785 4.56055C14.0228 4.07227 13.6729 3.53516 13.4287 2.94922C13.1846 2.36328 13.0625 1.74479 13.0625 1.09375C13.0625 0.572917 12.8021 0.3125 12.2812 0.3125C11.7604 0.3125 11.5 0.572917 11.5 1.09375C11.5 1.9401 11.6628 2.76204 11.9883 3.55957C12.3138 4.3571 12.7858 5.04883 13.4043 5.63477C13.6647 5.89518 14.0716 6.44857 14.625 7.29492C15.1784 8.10872 15.7399 8.95508 16.3096 9.83398C16.8792 10.7129 17.3757 11.4941 17.7988 12.1777C18.222 12.8613 18.4336 13.2031 18.4336 13.2031C18.6615 13.6263 18.5801 13.9681 18.1895 14.2285C17.7988 14.4889 17.457 14.4401 17.1641 14.082L14.625 10.957V10.4688C14.625 9.94792 14.3646 9.6875 13.8438 9.6875C13.3229 9.6875 13.0625 9.94792 13.0625 10.4688V21.4062C13.0625 21.9271 12.8021 22.1875 12.2812 22.1875C11.7604 22.1875 11.5 21.9271 11.5 21.4062V14.375C11.5 13.8542 11.2396 13.5938 10.7188 13.5938C10.1979 13.5938 9.9375 13.8542 9.9375 14.375V23.75C9.9375 24.2708 9.67708 24.5312 9.15625 24.5312C8.63542 24.5312 8.375 24.2708 8.375 23.75V14.375C8.375 13.8542 8.11458 13.5938 7.59375 13.5938C7.07292 13.5938 6.8125 13.8542 6.8125 14.375V22.1875C6.8125 22.7083 6.55208 22.9688 6.03125 22.9688C5.51042 22.9688 5.25 22.7083 5.25 22.1875V14.375C5.25 13.8542 4.98958 13.5938 4.46875 13.5938C3.94792 13.5938 3.6875 13.8542 3.6875 14.375V19.8438C3.6875 20.3646 3.42708 20.625 2.90625 20.625C2.38542 20.625 2.125 20.3646 2.125 19.8438V9.83398C2.125 9.31315 2.17383 8.80046 2.27148 8.2959C2.36914 7.79134 2.51562 7.29492 2.71094 6.80664L3.00391 6.07422C3.23177 5.52083 3.40267 4.94303 3.5166 4.34082C3.63053 3.73861 3.6875 3.12826 3.6875 2.50977V1.09375C3.6875 0.572917 3.42708 0.3125 2.90625 0.3125C2.38542 0.3125 2.125 0.572917 2.125 1.09375V2.50977C2.125 3.0306 2.07617 3.54329 1.97852 4.04785C1.88086 4.55241 1.73438 5.04883 1.53906 5.53711L1.24609 6.26953C1.01823 6.82292 0.847331 7.40072 0.733398 8.00293C0.619466 8.60514 0.5625 9.21549 0.5625 9.83398V19.8438C0.5625 20.625 0.888021 21.2598 1.53906 21.748C2.1901 22.2363 2.90625 22.334 3.6875 22.041ZM24 36.25H23.8535C24.1465 35.4688 24.0488 34.7526 23.5605 34.1016C23.0723 33.4505 22.4375 33.125 21.6562 33.125H13.6973C14.2181 32.6367 14.7633 32.2054 15.333 31.8311C15.9027 31.4567 16.1875 30.8464 16.1875 30C16.1875 29.349 15.9596 28.7956 15.5039 28.3398C15.0482 27.8841 14.4948 27.6562 13.8438 27.6562C13.2578 27.6562 12.6393 27.9004 11.9883 28.3887C11.3372 28.877 9.48177 30.0651 6.42188 31.9531C5.54297 32.5065 4.80241 33.1006 4.2002 33.7354C3.59798 34.3701 2.64583 34.6875 1.34375 34.6875C0.822917 34.6875 0.5625 34.9479 0.5625 35.4688C0.5625 35.9896 0.822917 36.25 1.34375 36.25C2.1901 36.25 3.01204 36.0872 3.80957 35.7617C4.6071 35.4362 5.29883 34.9642 5.88477 34.3457C6.14518 34.0853 6.69857 33.6784 7.54492 33.125C8.35872 32.5716 9.20508 32.0101 10.084 31.4404C10.9629 30.8708 11.7441 30.3743 12.4277 29.9512C13.1113 29.528 13.4531 29.3164 13.4531 29.3164C13.4857 29.2839 13.5345 29.2594 13.5996 29.2432C13.6647 29.2269 13.7461 29.2188 13.8438 29.2188C14.2018 29.2188 14.446 29.3896 14.5762 29.7314C14.7064 30.0732 14.625 30.3581 14.332 30.5859L11.207 33.125H10.7188C10.1979 33.125 9.9375 33.3854 9.9375 33.9062C9.9375 34.4271 10.1979 34.6875 10.7188 34.6875H21.6562C22.1771 34.6875 22.4375 34.9479 22.4375 35.4688C22.4375 35.9896 22.1771 36.25 21.6562 36.25H14.625C14.1042 36.25 13.8438 36.5104 13.8438 37.0312C13.8438 37.5521 14.1042 37.8125 14.625 37.8125H24C24.5208 37.8125 24.7812 38.0729 24.7812 38.5938C24.7812 39.1146 24.5208 39.375 24 39.375H14.625C14.1042 39.375 13.8438 39.6354 13.8438 40.1562C13.8438 40.6771 14.1042 40.9375 14.625 40.9375H22.4375C22.9583 40.9375 23.2188 41.1979 23.2188 41.7188C23.2188 42.2396 22.9583 42.5 22.4375 42.5H14.625C14.1042 42.5 13.8438 42.7604 13.8438 43.2812C13.8438 43.8021 14.1042 44.0625 14.625 44.0625H20.0938C20.6146 44.0625 20.875 44.3229 20.875 44.8438C20.875 45.3646 20.6146 45.625 20.0938 45.625H10.084C9.56315 45.625 9.05046 45.5762 8.5459 45.4785C8.04134 45.3809 7.54492 45.2344 7.05664 45.0391L6.32422 44.7461C5.77083 44.5182 5.19303 44.3473 4.59082 44.2334C3.98861 44.1195 3.37826 44.0625 2.75977 44.0625H1.34375C1.11589 44.0625 0.928711 44.1357 0.782227 44.2822C0.635742 44.4287 0.5625 44.6159 0.5625 44.8438C0.5625 45.0716 0.635742 45.2588 0.782227 45.4053C0.928711 45.5518 1.11589 45.625 1.34375 45.625H2.75977C3.2806 45.625 3.79329 45.6738 4.29785 45.7715C4.80241 45.8691 5.29883 46.0156 5.78711 46.2109L6.51953 46.5039C7.07292 46.7318 7.65072 46.9027 8.25293 47.0166C8.85514 47.1305 9.46549 47.1875 10.084 47.1875H20.0938C20.875 47.1875 21.5098 46.862 21.998 46.2109C22.4863 45.5599 22.584 44.8438 22.291 44.0625H22.4375C23.2513 44.0625 23.8942 43.7207 24.3662 43.0371C24.8382 42.3535 24.9115 41.6211 24.5859 40.8398C25.9206 40.4818 26.4984 39.6273 26.3193 38.2764C26.1403 36.9255 25.3672 36.25 24 36.25Z" fill="#FFA415"/>
</svg>
