<svg width="50" height="51" viewBox="0 0 50 51" fill="none" xmlns="http://www.w3.org/2000/svg">
<path d="M49.8535 40.8867C49.7233 40.3984 49.3408 39.8206 48.7061 39.1533C48.0713 38.486 47.1029 38.1849 45.8008 38.25C45.8008 38.25 45.7926 38.25 45.7764 38.25C45.7601 38.25 45.752 38.25 45.752 38.25L43.2617 38.4941C43.8477 37.8431 44.3034 37.1025 44.6289 36.2725C44.9544 35.4424 45.1172 34.5553 45.1172 33.6113V27.2637C45.1172 25.1803 44.6696 23.1947 43.7744 21.3066C42.8792 19.4186 41.6178 17.8073 39.9902 16.4727L37.1582 14.1289C37.4837 13.8359 37.7441 13.4779 37.9395 13.0547C38.1348 12.6315 38.2324 12.1921 38.2324 11.7363C38.2324 11.1829 38.1022 10.6702 37.8418 10.1982C37.5814 9.72624 37.2396 9.34375 36.8164 9.05078L38.8184 5.38867C38.9811 5.06315 39.0544 4.72949 39.0381 4.3877C39.0218 4.0459 38.9323 3.72852 38.7695 3.43555C38.5742 3.14258 38.3301 2.91471 38.0371 2.75195C37.7441 2.58919 37.4186 2.50781 37.0605 2.50781H23.3398C22.9818 2.50781 22.6562 2.58919 22.3633 2.75195C22.0703 2.91471 21.8424 3.14258 21.6797 3.43555C21.4844 3.72852 21.3867 4.0459 21.3867 4.3877C21.3867 4.72949 21.4681 5.06315 21.6309 5.38867L23.584 9.05078C23.1608 9.34375 22.819 9.72624 22.5586 10.1982C22.2982 10.6702 22.168 11.1829 22.168 11.7363C22.168 12.1921 22.2656 12.6315 22.4609 13.0547C22.6562 13.4779 22.9167 13.8359 23.2422 14.1289L20.4102 16.4727C18.7826 17.8073 17.5293 19.4186 16.6504 21.3066C15.7715 23.1947 15.332 25.1803 15.332 27.2637V28.2891C15.332 28.2891 15.3239 28.2891 15.3076 28.2891C15.2913 28.2891 15.2832 28.2891 15.2832 28.2891C14.2415 28.4518 13.3464 28.6878 12.5977 28.9971C11.849 29.3063 11.3281 29.526 11.0352 29.6562H9.57031V29.2656C9.57031 28.8099 9.375 28.4111 8.98438 28.0693C8.59375 27.7275 8.12175 27.5566 7.56836 27.5566H2.00195C1.48112 27.5566 1.02539 27.7275 0.634766 28.0693C0.244141 28.4111 0.0488281 28.8099 0.0488281 29.2656V31.1211C0.0488281 31.3815 0.146484 31.6094 0.341797 31.8047C0.537109 32 0.764974 32.0977 1.02539 32.0977C1.28581 32.0977 1.51367 32 1.70898 31.8047C1.9043 31.6094 2.00195 31.3815 2.00195 31.1211V29.5098H7.61719V41.668C7.61719 41.668 7.60905 41.668 7.59277 41.668C7.5765 41.668 7.56836 41.668 7.56836 41.668H2.00195V40.0566C2.00195 39.7637 1.9043 39.5277 1.70898 39.3486C1.51367 39.1696 1.28581 39.0801 1.02539 39.0801C0.764974 39.0801 0.537109 39.1696 0.341797 39.3486C0.146484 39.5277 0.0488281 39.7637 0.0488281 40.0566V41.9121C0.0488281 42.4004 0.244141 42.8073 0.634766 43.1328C1.02539 43.4583 1.48112 43.6211 2.00195 43.6211H7.56836C8.08919 43.6211 8.53678 43.4665 8.91113 43.1572C9.28548 42.848 9.48893 42.4655 9.52148 42.0098H11.084L20.2637 46.9414C20.2637 46.9414 20.2799 46.9414 20.3125 46.9414C21.6797 47.625 23.1201 48.1377 24.6338 48.4795C26.1475 48.8213 27.653 48.9922 29.1504 48.9922C29.7363 48.9922 30.3223 48.9678 30.9082 48.9189C31.4941 48.8701 32.0638 48.7806 32.6172 48.6504L47.3633 45.4766C47.3958 45.444 47.4202 45.4277 47.4365 45.4277C47.4528 45.4277 47.4772 45.4277 47.5098 45.4277C48.4538 45.1022 49.1455 44.5081 49.585 43.6455C50.0244 42.7829 50.1139 41.8633 49.8535 40.8867ZM25.4395 13.0059C25.0814 13.0059 24.7721 12.8838 24.5117 12.6396C24.2513 12.3955 24.1211 12.0944 24.1211 11.7363C24.1211 11.3783 24.2513 11.069 24.5117 10.8086C24.7721 10.5482 25.0814 10.418 25.4395 10.418H35.0098C35.3353 10.418 35.6283 10.5482 35.8887 10.8086C36.1491 11.069 36.2793 11.3783 36.2793 11.7363C36.2793 12.0944 36.1572 12.3955 35.9131 12.6396C35.6689 12.8838 35.3678 13.0059 35.0098 13.0059H25.4395ZM37.0605 4.46094L34.9121 8.46484H25.5371L23.3398 4.46094H37.0605ZM17.2852 27.2637C17.2852 25.4733 17.6676 23.7643 18.4326 22.1367C19.1976 20.5091 20.2799 19.1094 21.6797 17.9375L25.293 14.959H35.1562L38.7695 17.9375C40.1367 19.1094 41.2109 20.5091 41.9922 22.1367C42.7734 23.7643 43.1641 25.4733 43.1641 27.2637V33.6113C43.1641 34.8483 42.7979 35.9551 42.0654 36.9316C41.333 37.9082 40.3809 38.5755 39.209 38.9336L35.9375 39.2754C36.0352 38.5592 35.9294 37.8757 35.6201 37.2246C35.3109 36.5736 34.847 36.069 34.2285 35.7109L25.4883 30.3887C23.9909 29.4447 22.5342 28.818 21.1182 28.5088C19.7021 28.1995 18.4245 28.0612 17.2852 28.0938V27.2637ZM46.9238 43.5723L32.2266 46.7461C30.5339 47.1042 28.6947 47.1449 26.709 46.8682C24.7233 46.5915 22.8678 46.0462 21.1426 45.2324L11.7676 40.1543C11.7025 40.1217 11.6292 40.0973 11.5479 40.0811C11.4665 40.0648 11.3932 40.0566 11.3281 40.0566H9.57031V31.6094H11.3281C11.3932 31.6094 11.4746 31.6012 11.5723 31.585C11.6699 31.5687 11.7513 31.5443 11.8164 31.5117C11.8164 31.4792 12.1745 31.3001 12.8906 30.9746C13.6068 30.6491 14.5508 30.3887 15.7227 30.1934C15.8203 30.1608 15.9261 30.1364 16.04 30.1201C16.154 30.1038 16.276 30.0957 16.4062 30.0957C17.806 29.9329 19.1813 30.0143 20.5322 30.3398C21.8831 30.6654 23.1771 31.235 24.4141 32.0488C24.4141 32.0488 24.8698 32.3255 25.7812 32.8789C26.7253 33.4323 27.7425 34.0426 28.833 34.71C29.9235 35.3773 30.9245 35.9876 31.8359 36.541C32.7799 37.0944 33.252 37.3711 33.252 37.3711C33.5775 37.5664 33.8053 37.8512 33.9355 38.2256C34.0658 38.5999 34.0658 38.9661 33.9355 39.3242C33.8053 39.7474 33.5449 40.0566 33.1543 40.252C32.7637 40.4473 32.3568 40.4961 31.9336 40.3984L25.3418 37.2246C25.0814 37.127 24.8291 37.1188 24.585 37.2002C24.3408 37.2816 24.1536 37.4525 24.0234 37.7129C23.8932 37.9408 23.877 38.1849 23.9746 38.4453C24.0723 38.7057 24.235 38.8848 24.4629 38.9824C24.4629 38.9824 25.5941 39.5195 27.8564 40.5938C30.1188 41.668 31.2663 42.2214 31.2988 42.2539C31.9824 42.4492 32.6497 42.4574 33.3008 42.2783C33.9518 42.0993 34.5052 41.7819 34.9609 41.3262L45.8984 40.2031C46.7122 40.1706 47.2493 40.3333 47.5098 40.6914C47.7702 41.0495 47.9167 41.2773 47.9492 41.375C47.9492 41.375 47.9492 41.3913 47.9492 41.4238C48.112 41.9121 48.0957 42.3434 47.9004 42.7178C47.7051 43.0921 47.3796 43.377 46.9238 43.5723ZM27.3438 29.168C27.7018 29.3958 28.0192 29.5667 28.2959 29.6807C28.5726 29.7946 28.8737 29.8678 29.1992 29.9004V30.2422C29.1992 30.5026 29.2887 30.7305 29.4678 30.9258C29.6468 31.1211 29.8828 31.2188 30.1758 31.2188C30.4362 31.2188 30.6641 31.1211 30.8594 30.9258C31.0547 30.7305 31.1523 30.5026 31.1523 30.2422V29.8027C31.8034 29.6074 32.3242 29.2575 32.7148 28.7529C33.1055 28.2484 33.3496 27.7031 33.4473 27.1172C33.5775 26.3685 33.4554 25.6849 33.0811 25.0664C32.7067 24.4479 32.1615 24.0085 31.4453 23.748C31.0221 23.5853 30.6152 23.4225 30.2246 23.2598C29.834 23.097 29.5085 22.918 29.248 22.7227C29.1829 22.6901 29.1423 22.6169 29.126 22.5029C29.1097 22.389 29.1178 22.2669 29.1504 22.1367C29.1504 22.0716 29.1911 21.9495 29.2725 21.7705C29.3538 21.5915 29.5085 21.4694 29.7363 21.4043C30.1921 21.2741 30.6071 21.3066 30.9814 21.502C31.3558 21.6973 31.543 21.7949 31.543 21.7949C31.7708 21.9577 32.015 22.0309 32.2754 22.0146C32.5358 21.9984 32.7637 21.8763 32.959 21.6484C33.1217 21.4531 33.1868 21.2171 33.1543 20.9404C33.1217 20.6637 33.0078 20.444 32.8125 20.2812C32.7799 20.2812 32.6172 20.1755 32.3242 19.9639C32.0312 19.7523 31.6406 19.5977 31.1523 19.5V19.1582C31.1523 18.8978 31.0547 18.6699 30.8594 18.4746C30.6641 18.2793 30.4362 18.1816 30.1758 18.1816C29.8828 18.1816 29.6468 18.2793 29.4678 18.4746C29.2887 18.6699 29.1992 18.8978 29.1992 19.1582V19.5488C29.1667 19.5488 29.1504 19.5488 29.1504 19.5488C28.6621 19.679 28.2389 19.9476 27.8809 20.3545C27.5228 20.7614 27.2949 21.2253 27.1973 21.7461C27.0996 22.2669 27.1322 22.7471 27.2949 23.1865C27.4577 23.626 27.7181 23.9922 28.0762 24.2852C28.4342 24.5456 28.8493 24.7816 29.3213 24.9932C29.7933 25.2048 30.2734 25.3919 30.7617 25.5547C31.1849 25.7174 31.429 25.929 31.4941 26.1895C31.5592 26.4499 31.5755 26.6615 31.543 26.8242C31.4779 27.0846 31.3314 27.3451 31.1035 27.6055C30.8757 27.8659 30.5501 27.9961 30.127 27.9961C29.7038 27.9961 29.3945 27.9717 29.1992 27.9229C29.0039 27.874 28.7435 27.752 28.418 27.5566C28.1901 27.3939 27.946 27.3451 27.6855 27.4102C27.4251 27.4753 27.2135 27.6217 27.0508 27.8496C26.9206 28.0449 26.8799 28.2809 26.9287 28.5576C26.9775 28.8343 27.1159 29.0378 27.3438 29.168ZM1.95312 35.6133C1.95312 35.8737 1.85547 36.1016 1.66016 36.2969C1.46484 36.4922 1.23698 36.5898 0.976562 36.5898C0.716146 36.5898 0.488281 36.4922 0.292969 36.2969C0.0976562 36.1016 0 35.8737 0 35.6133C0 35.3203 0.0976562 35.0843 0.292969 34.9053C0.488281 34.7262 0.716146 34.6367 0.976562 34.6367C1.23698 34.6367 1.46484 34.7262 1.66016 34.9053C1.85547 35.0843 1.95312 35.3203 1.95312 35.6133Z" fill="#FF5528"/>
</svg>
