<svg width="50" height="51" viewBox="0 0 50 51" fill="none" xmlns="http://www.w3.org/2000/svg">
<g clip-path="url(#clip0_1_118)">
<path d="M45.8496 0.75H22.5098C21.3379 0.75 20.3532 1.1569 19.5557 1.9707C18.7581 2.7845 18.3431 3.76107 18.3105 4.90039V24.9199C18.3431 25.4082 18.4326 25.8639 18.5791 26.2871C18.7256 26.7103 18.9453 27.1009 19.2383 27.459H19.1895C18.2454 27.9798 17.2119 28.3786 16.0889 28.6553C14.9658 28.932 13.8021 29.0703 12.5977 29.0703C12.5651 29.0703 12.5407 29.0703 12.5244 29.0703C12.5081 29.0703 12.5 29.0703 12.5 29.0703H6.68945C4.83398 29.1029 3.26335 29.762 1.97754 31.0479C0.691732 32.3337 0.0488281 33.9043 0.0488281 35.7598C0.0488281 37.485 0.626628 38.9824 1.78223 40.252C2.93783 41.5215 4.36198 42.2376 6.05469 42.4004H6.10352L8.78906 49.1875C8.98438 49.6432 9.29362 50.0176 9.7168 50.3105C10.14 50.6035 10.612 50.75 11.1328 50.75H13.3301C14.0137 50.75 14.5996 50.5059 15.0879 50.0176C15.5762 49.5293 15.8203 48.9434 15.8203 48.2598C15.8203 48.097 15.804 47.9342 15.7715 47.7715C15.7389 47.6087 15.6901 47.446 15.625 47.2832L15.6738 47.332L13.7207 42.4492C15.5436 42.612 17.2363 43.0758 18.7988 43.8408C20.3613 44.6058 21.7448 45.5905 22.9492 46.7949C23.1445 46.9902 23.3724 47.1449 23.6328 47.2588C23.8932 47.3727 24.1699 47.4297 24.4629 47.4297C24.6257 47.4297 24.7803 47.4134 24.9268 47.3809C25.0732 47.3483 25.2116 47.2995 25.3418 47.2344H25.293C25.7161 47.0716 26.0498 46.8112 26.2939 46.4531C26.5381 46.0951 26.6602 45.6882 26.6602 45.2324V39.8125C27.6367 39.6172 28.4342 39.1452 29.0527 38.3965C29.6712 37.6478 29.9805 36.7689 29.9805 35.7598C29.9805 34.7507 29.6712 33.8636 29.0527 33.0986C28.4342 32.3337 27.653 31.8535 26.709 31.6582H26.6602V29.0703H32.5195V34.7344C32.5195 35.125 32.6172 35.4668 32.8125 35.7598C33.0078 36.0527 33.2682 36.2643 33.5938 36.3945C33.724 36.4596 33.846 36.5085 33.96 36.541C34.0739 36.5736 34.2122 36.5898 34.375 36.5898C34.6029 36.5898 34.8226 36.5492 35.0342 36.4678C35.2458 36.3864 35.4329 36.2643 35.5957 36.1016L43.3105 29.0703H45.8496C46.9889 29.0703 47.9655 28.6634 48.7793 27.8496C49.5931 27.0358 50 26.0592 50 24.9199V4.90039C50 3.76107 49.5931 2.7845 48.7793 1.9707C47.9655 1.1569 46.9889 0.75 45.8496 0.75ZM1.66016 35.7598C1.66016 34.36 2.14844 33.1719 3.125 32.1953C4.10156 31.2188 5.28971 30.7305 6.68945 30.7305H11.6699V40.7402H6.68945C5.28971 40.7402 4.10156 40.252 3.125 39.2754C2.14844 38.2988 1.66016 37.127 1.66016 35.7598ZM14.1113 47.918C14.1113 47.9831 14.1195 48.04 14.1357 48.0889C14.152 48.1377 14.1602 48.1947 14.1602 48.2598C14.1602 48.4876 14.0788 48.6829 13.916 48.8457C13.7533 49.0085 13.5579 49.0898 13.3301 49.0898H11.1328C10.9701 49.0898 10.8154 49.041 10.6689 48.9434C10.5225 48.8457 10.4167 48.7155 10.3516 48.5527L7.91016 42.4004H11.9141L14.1113 47.918ZM25 45.2324C25 45.3301 24.9674 45.4277 24.9023 45.5254C24.8372 45.623 24.7559 45.6882 24.6582 45.7207C24.6257 45.7207 24.5931 45.7288 24.5605 45.7451C24.528 45.7614 24.4954 45.7695 24.4629 45.7695C24.3978 45.7695 24.3327 45.7533 24.2676 45.7207C24.2025 45.6882 24.1536 45.6556 24.1211 45.623C22.7214 44.1908 21.1019 43.0514 19.2627 42.2051C17.4235 41.3587 15.4622 40.8867 13.3789 40.7891H13.3301V30.7305C15.446 30.6328 17.4235 30.1527 19.2627 29.29C21.1019 28.4274 22.7214 27.2962 24.1211 25.8965C24.1536 25.8639 24.2025 25.8314 24.2676 25.7988C24.3327 25.7663 24.3978 25.75 24.4629 25.75C24.4954 25.75 24.528 25.75 24.5605 25.75C24.5931 25.75 24.6257 25.7663 24.6582 25.7988C24.7559 25.8314 24.8372 25.8883 24.9023 25.9697C24.9674 26.0511 25 26.1569 25 26.2871V45.2324ZM28.3203 35.7598C28.3203 36.2806 28.1657 36.7526 27.8564 37.1758C27.5472 37.599 27.1484 37.9082 26.6602 38.1035V33.416C27.1484 33.5788 27.5472 33.8717 27.8564 34.2949C28.1657 34.7181 28.3203 35.2064 28.3203 35.7598ZM48.3398 24.9199C48.3398 25.6035 48.0957 26.1895 47.6074 26.6777C47.1191 27.166 46.5332 27.4102 45.8496 27.4102H42.9688C42.8711 27.4102 42.7734 27.4346 42.6758 27.4834C42.5781 27.5322 42.4967 27.5892 42.4316 27.6543L34.4727 34.8809C34.4727 34.8809 34.4564 34.889 34.4238 34.9053C34.3913 34.9215 34.375 34.9297 34.375 34.9297C34.3424 34.9297 34.318 34.9297 34.3018 34.9297C34.2855 34.9297 34.2773 34.9134 34.2773 34.8809C34.2448 34.8809 34.2204 34.8646 34.2041 34.832C34.1878 34.7995 34.1797 34.7669 34.1797 34.7344V28.2402C34.1797 28.0124 34.0983 27.8171 33.9355 27.6543C33.7728 27.4915 33.5775 27.4102 33.3496 27.4102H26.6602V26.2871C26.6602 25.8314 26.5381 25.4245 26.2939 25.0664C26.0498 24.7083 25.7324 24.4316 25.3418 24.2363H25.293C25.1953 24.2038 25.0732 24.1712 24.9268 24.1387C24.7803 24.1061 24.6257 24.0898 24.4629 24.0898C24.1699 24.0898 23.8932 24.1468 23.6328 24.2607C23.3724 24.3747 23.1445 24.5293 22.9492 24.7246C22.5911 25.0501 22.2249 25.3675 21.8506 25.6768C21.4762 25.986 21.0938 26.2871 20.7031 26.5801H20.6543C20.459 26.3848 20.3044 26.1406 20.1904 25.8477C20.0765 25.5547 20.0195 25.2454 20.0195 24.9199V4.90039C20.0195 4.2168 20.2637 3.63086 20.752 3.14258C21.2402 2.6543 21.8262 2.41016 22.5098 2.41016H45.8496C46.5332 2.41016 47.1191 2.6543 47.6074 3.14258C48.0957 3.63086 48.3398 4.2168 48.3398 4.90039V24.9199ZM24.1699 8.26953H35.0098C35.2376 8.26953 35.4329 8.18815 35.5957 8.02539C35.7585 7.86263 35.8398 7.66732 35.8398 7.43945C35.8398 7.17904 35.7585 6.96745 35.5957 6.80469C35.4329 6.64193 35.2376 6.56055 35.0098 6.56055H24.1699C23.9421 6.56055 23.7467 6.64193 23.584 6.80469C23.4212 6.96745 23.3398 7.17904 23.3398 7.43945C23.3398 7.66732 23.4212 7.86263 23.584 8.02539C23.7467 8.18815 23.9421 8.26953 24.1699 8.26953ZM44.1895 12.4199H24.1699C23.9421 12.4199 23.7467 12.5013 23.584 12.6641C23.4212 12.8268 23.3398 13.0221 23.3398 13.25C23.3398 13.4779 23.4212 13.6732 23.584 13.8359C23.7467 13.9987 23.9421 14.0801 24.1699 14.0801H44.1895C44.4173 14.0801 44.6126 13.9987 44.7754 13.8359C44.9382 13.6732 45.0195 13.4779 45.0195 13.25C45.0195 13.0221 44.9382 12.8268 44.7754 12.6641C44.6126 12.5013 44.4173 12.4199 44.1895 12.4199ZM44.1895 16.5703H30.8105C30.5827 16.5703 30.3874 16.6517 30.2246 16.8145C30.0618 16.9772 29.9805 17.1725 29.9805 17.4004C29.9805 17.6283 30.0618 17.8236 30.2246 17.9863C30.3874 18.1491 30.5827 18.2305 30.8105 18.2305H44.1895C44.4173 18.2305 44.6126 18.1491 44.7754 17.9863C44.9382 17.8236 45.0195 17.6283 45.0195 17.4004C45.0195 17.1725 44.9382 16.9772 44.7754 16.8145C44.6126 16.6517 44.4173 16.5703 44.1895 16.5703ZM24.1699 18.2305H27.4902C27.7181 18.2305 27.9134 18.1491 28.0762 17.9863C28.2389 17.8236 28.3203 17.6283 28.3203 17.4004C28.3203 17.1725 28.2389 16.9772 28.0762 16.8145C27.9134 16.6517 27.7181 16.5703 27.4902 16.5703H24.1699C23.9421 16.5703 23.7467 16.6517 23.584 16.8145C23.4212 16.9772 23.3398 17.1725 23.3398 17.4004C23.3398 17.6283 23.4212 17.8236 23.584 17.9863C23.7467 18.1491 23.9421 18.2305 24.1699 18.2305ZM40.8203 20.7695H24.1699C23.9421 20.7695 23.7467 20.8509 23.584 21.0137C23.4212 21.1764 23.3398 21.3717 23.3398 21.5996C23.3398 21.8275 23.4212 22.0228 23.584 22.1855C23.7467 22.3483 23.9421 22.4297 24.1699 22.4297H40.8203C41.0482 22.4297 41.2435 22.3483 41.4062 22.1855C41.569 22.0228 41.6504 21.8275 41.6504 21.5996C41.6504 21.3717 41.569 21.1764 41.4062 21.0137C41.2435 20.8509 41.0482 20.7695 40.8203 20.7695Z" fill="#8742E8"/>
</g>
<defs>
<clipPath id="clip0_1_118">
<rect width="50" height="50" fill="white" transform="matrix(1 0 0 -1 0 50.75)"/>
</clipPath>
</defs>
</svg>
