<svg width="60" height="61" viewBox="0 0 60 61" fill="none" xmlns="http://www.w3.org/2000/svg">
<path d="M59.8242 48.514C59.668 47.9281 59.209 47.2347 58.4473 46.434C57.6855 45.6332 56.5234 45.2719 54.9609 45.35C54.9609 45.35 54.9512 45.35 54.9316 45.35C54.9121 45.35 54.9023 45.35 54.9023 45.35L51.9141 45.6429C52.6172 44.8617 53.1641 43.973 53.5547 42.9769C53.9453 41.9808 54.1406 40.9164 54.1406 39.7836V32.1664C54.1406 29.6664 53.6035 27.2836 52.5293 25.0179C51.4551 22.7523 49.9414 20.8187 47.9883 19.2172L44.5898 16.4047C44.9805 16.0531 45.293 15.6234 45.5273 15.1156C45.7617 14.6078 45.8789 14.0804 45.8789 13.5336C45.8789 12.8695 45.7227 12.2543 45.4102 11.6879C45.0977 11.1215 44.6875 10.6625 44.1797 10.3109L46.582 5.91638C46.7773 5.52576 46.8652 5.12537 46.8457 4.71521C46.8262 4.30505 46.7188 3.92419 46.5234 3.57263C46.2891 3.22107 45.9961 2.94763 45.6445 2.75232C45.293 2.55701 44.9023 2.45935 44.4727 2.45935H28.0078C27.5781 2.45935 27.1875 2.55701 26.8359 2.75232C26.4844 2.94763 26.2109 3.22107 26.0156 3.57263C25.7812 3.92419 25.6641 4.30505 25.6641 4.71521C25.6641 5.12537 25.7617 5.52576 25.957 5.91638L28.3008 10.3109C27.793 10.6625 27.3828 11.1215 27.0703 11.6879C26.7578 12.2543 26.6016 12.8695 26.6016 13.5336C26.6016 14.0804 26.7188 14.6078 26.9531 15.1156C27.1875 15.6234 27.5 16.0531 27.8906 16.4047L24.4922 19.2172C22.5391 20.8187 21.0352 22.7523 19.9805 25.0179C18.9258 27.2836 18.3984 29.6664 18.3984 32.1664V33.3969C18.3984 33.3969 18.3887 33.3969 18.3691 33.3969C18.3496 33.3969 18.3398 33.3969 18.3398 33.3969C17.0898 33.5922 16.0156 33.8754 15.1172 34.2465C14.2188 34.6176 13.5938 34.8812 13.2422 35.0375H11.4844V34.5687C11.4844 34.0219 11.25 33.5433 10.7812 33.1332C10.3125 32.723 9.74609 32.5179 9.08203 32.5179H2.40234C1.77734 32.5179 1.23047 32.723 0.761719 33.1332C0.292969 33.5433 0.0585938 34.0219 0.0585938 34.5687V36.7953C0.0585938 37.1078 0.175781 37.3812 0.410156 37.6156C0.644531 37.85 0.917969 37.9672 1.23047 37.9672C1.54297 37.9672 1.81641 37.85 2.05078 37.6156C2.28516 37.3812 2.40234 37.1078 2.40234 36.7953V34.8617H9.14062V49.4515C9.14062 49.4515 9.13086 49.4515 9.11133 49.4515C9.0918 49.4515 9.08203 49.4515 9.08203 49.4515H2.40234V47.5179C2.40234 47.1664 2.28516 46.8832 2.05078 46.6683C1.81641 46.4535 1.54297 46.3461 1.23047 46.3461C0.917969 46.3461 0.644531 46.4535 0.410156 46.6683C0.175781 46.8832 0.0585938 47.1664 0.0585938 47.5179V49.7445C0.0585938 50.3304 0.292969 50.8187 0.761719 51.2094C1.23047 51.6 1.77734 51.7953 2.40234 51.7953H9.08203C9.70703 51.7953 10.2441 51.6097 10.6934 51.2386C11.1426 50.8676 11.3867 50.4086 11.4258 49.8617H13.3008L24.3164 55.7797C24.3164 55.7797 24.3359 55.7797 24.375 55.7797C26.0156 56.6 27.7441 57.2152 29.5605 57.6254C31.377 58.0355 33.1836 58.2406 34.9805 58.2406C35.6836 58.2406 36.3867 58.2113 37.0898 58.1527C37.793 58.0941 38.4766 57.9867 39.1406 57.8304L56.8359 54.0219C56.875 53.9828 56.9043 53.9633 56.9238 53.9633C56.9434 53.9633 56.9727 53.9633 57.0117 53.9633C58.1445 53.5726 58.9746 52.8597 59.502 51.8246C60.0293 50.7894 60.1367 49.6859 59.8242 48.514ZM30.5273 15.057C30.0977 15.057 29.7266 14.9105 29.4141 14.6176C29.1016 14.3246 28.9453 13.9633 28.9453 13.5336C28.9453 13.1039 29.1016 12.7328 29.4141 12.4203C29.7266 12.1078 30.0977 11.9515 30.5273 11.9515H42.0117C42.4023 11.9515 42.7539 12.1078 43.0664 12.4203C43.3789 12.7328 43.5352 13.1039 43.5352 13.5336C43.5352 13.9633 43.3887 14.3246 43.0957 14.6176C42.8027 14.9105 42.4414 15.057 42.0117 15.057H30.5273ZM44.4727 4.8031L41.8945 9.60779H30.6445L28.0078 4.8031H44.4727ZM20.7422 32.1664C20.7422 30.0179 21.2012 27.9672 22.1191 26.014C23.0371 24.0609 24.3359 22.3812 26.0156 20.975L30.3516 17.4008H42.1875L46.5234 20.975C48.1641 22.3812 49.4531 24.0609 50.3906 26.014C51.3281 27.9672 51.7969 30.0179 51.7969 32.1664V39.7836C51.7969 41.2679 51.3574 42.5961 50.4785 43.7679C49.5996 44.9398 48.457 45.7406 47.0508 46.1703L43.125 46.5804C43.2422 45.7211 43.1152 44.9008 42.7441 44.1195C42.373 43.3383 41.8164 42.7328 41.0742 42.3031L30.5859 35.9164C28.7891 34.7836 27.041 34.0316 25.3418 33.6605C23.6426 33.2894 22.1094 33.1234 20.7422 33.1625V32.1664ZM56.3086 51.7367L38.6719 55.5453C36.6406 55.975 34.4336 56.0238 32.0508 55.6918C29.668 55.3597 27.4414 54.7054 25.3711 53.7289L14.1211 47.6351C14.043 47.5961 13.9551 47.5668 13.8574 47.5472C13.7598 47.5277 13.6719 47.5179 13.5938 47.5179H11.4844V37.3812H13.5938C13.6719 37.3812 13.7695 37.3715 13.8867 37.3519C14.0039 37.3324 14.1016 37.3031 14.1797 37.264C14.1797 37.225 14.6094 37.0101 15.4688 36.6195C16.3281 36.2289 17.4609 35.9164 18.8672 35.682C18.9844 35.6429 19.1113 35.6136 19.248 35.5941C19.3848 35.5746 19.5312 35.5648 19.6875 35.5648C21.3672 35.3695 23.0176 35.4672 24.6387 35.8578C26.2598 36.2484 27.8125 36.932 29.2969 37.9086C29.2969 37.9086 29.8438 38.2406 30.9375 38.9047C32.0703 39.5687 33.291 40.3011 34.5996 41.1019C35.9082 41.9027 37.1094 42.6351 38.2031 43.2992C39.3359 43.9633 39.9023 44.2953 39.9023 44.2953C40.293 44.5297 40.5664 44.8715 40.7227 45.3207C40.8789 45.7699 40.8789 46.2094 40.7227 46.639C40.5664 47.1469 40.2539 47.5179 39.7852 47.7523C39.3164 47.9867 38.8281 48.0453 38.3203 47.9281L30.4102 44.1195C30.0977 44.0023 29.7949 43.9926 29.502 44.0902C29.209 44.1879 28.9844 44.3929 28.8281 44.7054C28.6719 44.9789 28.6523 45.2719 28.7695 45.5844C28.8867 45.8969 29.082 46.1117 29.3555 46.2289C29.3555 46.2289 30.7129 46.8734 33.4277 48.1625C36.1426 49.4515 37.5195 50.1156 37.5586 50.1547C38.3789 50.389 39.1797 50.3988 39.9609 50.184C40.7422 49.9691 41.4062 49.5883 41.9531 49.0414L55.0781 47.6937C56.0547 47.6547 56.6992 47.85 57.0117 48.2797C57.3242 48.7094 57.5 48.9828 57.5391 49.1C57.5391 49.1 57.5391 49.1195 57.5391 49.1586C57.7344 49.7445 57.7148 50.2621 57.4805 50.7113C57.2461 51.1605 56.8555 51.5023 56.3086 51.7367ZM32.8125 34.4515C33.2422 34.725 33.623 34.9301 33.9551 35.0668C34.2871 35.2035 34.6484 35.2914 35.0391 35.3304V35.7406C35.0391 36.0531 35.1465 36.3265 35.3613 36.5609C35.5762 36.7953 35.8594 36.9125 36.2109 36.9125C36.5234 36.9125 36.7969 36.7953 37.0312 36.5609C37.2656 36.3265 37.3828 36.0531 37.3828 35.7406V35.2133C38.1641 34.9789 38.7891 34.559 39.2578 33.9535C39.7266 33.348 40.0195 32.6937 40.1367 31.9906C40.293 31.0922 40.1465 30.2719 39.6973 29.5297C39.248 28.7875 38.5938 28.2601 37.7344 27.9476C37.2266 27.7523 36.7383 27.557 36.2695 27.3617C35.8008 27.1664 35.4102 26.9515 35.0977 26.7172C35.0195 26.6781 34.9707 26.5902 34.9512 26.4535C34.9316 26.3168 34.9414 26.1703 34.9805 26.014C34.9805 25.9359 35.0293 25.7894 35.127 25.5746C35.2246 25.3597 35.4102 25.2133 35.6836 25.1351C36.2305 24.9789 36.7285 25.0179 37.1777 25.2523C37.627 25.4867 37.8516 25.6039 37.8516 25.6039C38.125 25.7992 38.418 25.8871 38.7305 25.8676C39.043 25.848 39.3164 25.7015 39.5508 25.4281C39.7461 25.1937 39.8242 24.9105 39.7852 24.5785C39.7461 24.2465 39.6094 23.9828 39.375 23.7875C39.3359 23.7875 39.1406 23.6605 38.7891 23.4066C38.4375 23.1527 37.9688 22.9672 37.3828 22.85V22.4398C37.3828 22.1273 37.2656 21.8539 37.0312 21.6195C36.7969 21.3851 36.5234 21.2679 36.2109 21.2679C35.8594 21.2679 35.5762 21.3851 35.3613 21.6195C35.1465 21.8539 35.0391 22.1273 35.0391 22.4398V22.9086C35 22.9086 34.9805 22.9086 34.9805 22.9086C34.3945 23.0648 33.8867 23.3871 33.457 23.8754C33.0273 24.3636 32.7539 24.9203 32.6367 25.5453C32.5195 26.1703 32.5586 26.7465 32.7539 27.2738C32.9492 27.8011 33.2617 28.2406 33.6914 28.5922C34.1211 28.9047 34.6191 29.1879 35.1855 29.4418C35.752 29.6957 36.3281 29.9203 36.9141 30.1156C37.4219 30.3109 37.7148 30.5648 37.793 30.8773C37.8711 31.1898 37.8906 31.4437 37.8516 31.639C37.7734 31.9515 37.5977 32.264 37.3242 32.5765C37.0508 32.889 36.6602 33.0453 36.1523 33.0453C35.6445 33.0453 35.2734 33.016 35.0391 32.9574C34.8047 32.8988 34.4922 32.7523 34.1016 32.5179C33.8281 32.3226 33.5352 32.264 33.2227 32.3422C32.9102 32.4203 32.6562 32.5961 32.4609 32.8695C32.3047 33.1039 32.2559 33.3871 32.3145 33.7191C32.373 34.0511 32.5391 34.2953 32.8125 34.4515ZM2.34375 42.1859C2.34375 42.4984 2.22656 42.7719 1.99219 43.0062C1.75781 43.2406 1.48438 43.3578 1.17188 43.3578C0.859375 43.3578 0.585938 43.2406 0.351562 43.0062C0.117188 42.7719 0 42.4984 0 42.1859C0 41.8344 0.117188 41.5511 0.351562 41.3363C0.585938 41.1215 0.859375 41.014 1.17188 41.014C1.48438 41.014 1.75781 41.1215 1.99219 41.3363C2.22656 41.5511 2.34375 41.8344 2.34375 42.1859Z" fill="#FFA415"/>
</svg>
