<svg width="301" height="59" viewBox="0 0 301 59" fill="none" xmlns="http://www.w3.org/2000/svg">
<path d="M65.1574 12.0909H75.6063L84.4699 33.7045H84.879L93.7427 12.0909H104.192V47H95.9756V25.5568H95.6858L87.2995 46.7784H82.0495L73.6631 25.4375H73.3733V47H65.1574V12.0909ZM116.835 47.4432C115.165 47.4432 113.682 47.1648 112.386 46.608C111.102 46.0398 110.085 45.1875 109.335 44.0511C108.596 42.9034 108.227 41.4659 108.227 39.7386C108.227 38.2841 108.483 37.0568 108.994 36.0568C109.505 35.0568 110.21 34.2443 111.108 33.6193C112.005 32.9943 113.04 32.5227 114.21 32.2045C115.38 31.875 116.63 31.6534 117.96 31.5398C119.449 31.4034 120.647 31.2614 121.557 31.1136C122.466 30.9545 123.125 30.733 123.534 30.4489C123.954 30.1534 124.165 29.7386 124.165 29.2045V29.1193C124.165 28.2443 123.863 27.5682 123.261 27.0909C122.659 26.6136 121.846 26.375 120.824 26.375C119.721 26.375 118.835 26.6136 118.165 27.0909C117.494 27.5682 117.068 28.2273 116.886 29.0682L109.199 28.7955C109.426 27.2045 110.011 25.7841 110.954 24.5341C111.909 23.2727 113.216 22.2841 114.875 21.5682C116.545 20.8409 118.551 20.4773 120.892 20.4773C122.562 20.4773 124.102 20.6761 125.511 21.0739C126.92 21.4602 128.147 22.0284 129.193 22.7784C130.238 23.517 131.045 24.4261 131.613 25.5057C132.193 26.5852 132.483 27.8182 132.483 29.2045V47H124.642V43.3523H124.437C123.971 44.2386 123.375 44.9886 122.647 45.6023C121.932 46.2159 121.085 46.6761 120.108 46.983C119.142 47.2898 118.051 47.4432 116.835 47.4432ZM119.409 41.9886C120.307 41.9886 121.113 41.8068 121.829 41.4432C122.557 41.0795 123.136 40.5795 123.568 39.9432C124 39.2955 124.216 38.5455 124.216 37.6932V35.2045C123.977 35.3295 123.687 35.4432 123.346 35.5455C123.017 35.6477 122.653 35.7443 122.255 35.8352C121.858 35.9261 121.449 36.0057 121.028 36.0739C120.608 36.142 120.204 36.2045 119.818 36.2614C119.034 36.3864 118.363 36.5795 117.807 36.8409C117.261 37.1023 116.841 37.4432 116.545 37.8636C116.261 38.2727 116.119 38.7614 116.119 39.3295C116.119 40.1932 116.426 40.8523 117.04 41.3068C117.665 41.7614 118.454 41.9886 119.409 41.9886ZM145.915 32.0682V47H137.579V20.8182H145.505V25.625H145.795C146.375 24.0227 147.363 22.767 148.761 21.858C150.159 20.9375 151.824 20.4773 153.755 20.4773C155.596 20.4773 157.193 20.892 158.545 21.7216C159.909 22.5398 160.966 23.6875 161.716 25.1648C162.477 26.6307 162.852 28.3466 162.841 30.3125V47H154.505V31.9489C154.517 30.4943 154.147 29.358 153.397 28.5398C152.659 27.7216 151.63 27.3125 150.312 27.3125C149.437 27.3125 148.665 27.5057 147.994 27.892C147.335 28.267 146.824 28.8068 146.46 29.5114C146.108 30.2159 145.926 31.0682 145.915 32.0682ZM239.405 20.8182V26.9545H222.888V20.8182H239.405ZM226.348 14.5455H234.683V38.767C234.683 39.2784 234.763 39.6932 234.922 40.0114C235.092 40.3182 235.336 40.5398 235.655 40.6761C235.973 40.8011 236.353 40.8636 236.797 40.8636C237.115 40.8636 237.45 40.8352 237.802 40.7784C238.166 40.7102 238.439 40.6534 238.62 40.608L239.882 46.625C239.484 46.7386 238.922 46.8807 238.194 47.0511C237.478 47.2216 236.62 47.3295 235.62 47.375C233.666 47.4659 231.99 47.2386 230.592 46.6932C229.206 46.1364 228.143 45.2727 227.405 44.1023C226.677 42.9318 226.325 41.4602 226.348 39.6875V14.5455ZM252.555 32.0682V47H244.22V12.0909H252.282V25.625H252.572C253.163 24.0114 254.129 22.75 255.47 21.8409C256.822 20.9318 258.476 20.4773 260.43 20.4773C262.271 20.4773 263.873 20.8864 265.237 21.7045C266.601 22.5114 267.657 23.6534 268.407 25.1307C269.169 26.608 269.544 28.3352 269.532 30.3125V47H261.197V31.9489C261.209 30.4943 260.845 29.358 260.106 28.5398C259.368 27.7216 258.328 27.3125 256.987 27.3125C256.112 27.3125 255.339 27.5057 254.669 27.892C254.01 28.267 253.493 28.8068 253.118 29.5114C252.754 30.2159 252.567 31.0682 252.555 32.0682ZM282.116 47.4432C280.446 47.4432 278.963 47.1648 277.667 46.608C276.383 46.0398 275.366 45.1875 274.616 44.0511C273.878 42.9034 273.508 41.4659 273.508 39.7386C273.508 38.2841 273.764 37.0568 274.275 36.0568C274.787 35.0568 275.491 34.2443 276.389 33.6193C277.287 32.9943 278.321 32.5227 279.491 32.2045C280.662 31.875 281.912 31.6534 283.241 31.5398C284.73 31.4034 285.929 31.2614 286.838 31.1136C287.747 30.9545 288.406 30.733 288.815 30.4489C289.236 30.1534 289.446 29.7386 289.446 29.2045V29.1193C289.446 28.2443 289.145 27.5682 288.542 27.0909C287.94 26.6136 287.128 26.375 286.105 26.375C285.003 26.375 284.116 26.6136 283.446 27.0909C282.775 27.5682 282.349 28.2273 282.167 29.0682L274.48 28.7955C274.707 27.2045 275.292 25.7841 276.236 24.5341C277.19 23.2727 278.497 22.2841 280.156 21.5682C281.826 20.8409 283.832 20.4773 286.173 20.4773C287.844 20.4773 289.383 20.6761 290.792 21.0739C292.201 21.4602 293.429 22.0284 294.474 22.7784C295.52 23.517 296.326 24.4261 296.895 25.5057C297.474 26.5852 297.764 27.8182 297.764 29.2045V47H289.923V43.3523H289.719C289.253 44.2386 288.656 44.9886 287.929 45.6023C287.213 46.2159 286.366 46.6761 285.389 46.983C284.423 47.2898 283.332 47.4432 282.116 47.4432ZM284.69 41.9886C285.588 41.9886 286.395 41.8068 287.111 41.4432C287.838 41.0795 288.417 40.5795 288.849 39.9432C289.281 39.2955 289.497 38.5455 289.497 37.6932V35.2045C289.258 35.3295 288.969 35.4432 288.628 35.5455C288.298 35.6477 287.934 35.7443 287.537 35.8352C287.139 35.9261 286.73 36.0057 286.309 36.0739C285.889 36.142 285.486 36.2045 285.099 36.2614C284.315 36.3864 283.645 36.5795 283.088 36.8409C282.542 37.1023 282.122 37.4432 281.826 37.8636C281.542 38.2727 281.4 38.7614 281.4 39.3295C281.4 40.1932 281.707 40.8523 282.321 41.3068C282.946 41.7614 283.736 41.9886 284.69 41.9886Z" fill="white"/>
<path d="M175.518 40.1307L175.552 30.1932H176.711L184.075 20.8182H193.518L182.575 34.25H180.376L175.518 40.1307ZM168.001 47V12.0909H176.336V47H168.001ZM184.263 47L177.41 36.125L182.899 30.2102L193.893 47H184.263ZM203.882 47.4432C202.211 47.4432 200.728 47.1648 199.433 46.608C198.149 46.0398 197.132 45.1875 196.382 44.0511C195.643 42.9034 195.274 41.4659 195.274 39.7386C195.274 38.2841 195.53 37.0568 196.041 36.0568C196.552 35.0568 197.257 34.2443 198.155 33.6193C199.052 32.9943 200.086 32.5227 201.257 32.2045C202.427 31.875 203.677 31.6534 205.007 31.5398C206.495 31.4034 207.694 31.2614 208.603 31.1136C209.513 30.9545 210.172 30.733 210.581 30.4489C211.001 30.1534 211.211 29.7386 211.211 29.2045V29.1193C211.211 28.2443 210.91 27.5682 210.308 27.0909C209.706 26.6136 208.893 26.375 207.87 26.375C206.768 26.375 205.882 26.6136 205.211 27.0909C204.541 27.5682 204.115 28.2273 203.933 29.0682L196.245 28.7955C196.473 27.2045 197.058 25.7841 198.001 24.5341C198.956 23.2727 200.263 22.2841 201.922 21.5682C203.592 20.8409 205.598 20.4773 207.939 20.4773C209.609 20.4773 211.149 20.6761 212.558 21.0739C213.967 21.4602 215.194 22.0284 216.24 22.7784C217.285 23.517 218.092 24.4261 218.66 25.5057C219.24 26.5852 219.53 27.8182 219.53 29.2045V47H211.689V43.3523H211.484C211.018 44.2386 210.422 44.9886 209.694 45.6023C208.978 46.2159 208.132 46.6761 207.155 46.983C206.189 47.2898 205.098 47.4432 203.882 47.4432ZM206.456 41.9886C207.353 41.9886 208.16 41.8068 208.876 41.4432C209.603 41.0795 210.183 40.5795 210.615 39.9432C211.047 39.2955 211.263 38.5455 211.263 37.6932V35.2045C211.024 35.3295 210.734 35.4432 210.393 35.5455C210.064 35.6477 209.7 35.7443 209.302 35.8352C208.905 35.9261 208.495 36.0057 208.075 36.0739C207.655 36.142 207.251 36.2045 206.865 36.2614C206.081 36.3864 205.41 36.5795 204.853 36.8409C204.308 37.1023 203.888 37.4432 203.592 37.8636C203.308 38.2727 203.166 38.7614 203.166 39.3295C203.166 40.1932 203.473 40.8523 204.086 41.3068C204.711 41.7614 205.501 41.9886 206.456 41.9886Z" fill="#FF5528"/>
<path d="M23.2579 0.741122C9.55233 3.64835 0 15.5888 0 29.8134C0 38.5351 3.01106 44.8687 9.86382 51.0985C26.1651 65.7385 51.9149 58.2628 58.0408 37.393C60.3251 29.3981 59.5982 27.5292 52.7455 24.7258C45.4774 21.7147 45.1659 19.2228 51.3957 13.5122C61.9863 3.85601 61.9863 3.75218 58.2485 1.57176C55.3412 0.0143138 29.7991 -0.608664 23.2579 0.741122Z" fill="#FC5528"/>
<path d="M23.8278 6.55435C15.3707 8.08921 8.49172 16.286 6.72845 26.9103C6.36926 29.0982 6.29307 30.0888 6.30396 32.5707C6.30396 34.6281 6.34749 35.4336 6.54341 36.6746C6.95702 39.4286 7.84954 42.531 8.86179 44.7951C9.29716 45.7857 10.1353 47.375 10.2006 47.375C10.2223 47.375 9.972 46.7872 9.65635 46.0796C5.7162 37.393 5.96654 26.17 10.2768 18.093C13.5203 12.0298 18.4401 8.10009 24.0455 7.10951C25.6238 6.82649 28.1163 6.85914 29.6945 7.19659C35.3109 8.37223 40.0129 12.2584 43.1694 18.3107C46.13 24.0147 47.1422 30.9052 46.0538 38.0897C45.6402 40.8328 44.7368 43.8808 43.6701 46.1558C43.3653 46.7872 43.1368 47.3206 43.1585 47.3315C43.1803 47.3532 43.4959 46.7437 43.8769 45.9926C45.4987 42.7487 46.4674 39.4612 46.8919 35.7819C47.1096 33.9423 47.0443 29.6752 46.783 27.9335C45.7381 21.0212 42.9735 15.3607 38.6524 11.3113C37.1395 9.8962 35.8551 8.99271 34.1462 8.14363C31.5666 6.87003 29.8578 6.4455 27.017 6.38018C25.3517 6.34753 24.7965 6.38018 23.8278 6.55435Z" fill="white"/>
<path d="M23.8278 6.55435C15.3707 8.08921 8.49172 16.286 6.72845 26.9103C6.36926 29.0982 6.29307 30.0888 6.30396 32.5707C6.30396 34.6281 6.34749 35.4336 6.54341 36.6746C6.95702 39.4286 7.84954 42.531 8.86179 44.7951C9.29716 45.7857 10.1353 47.375 10.2006 47.375C10.2223 47.375 9.972 46.7872 9.65635 46.0796C5.7162 37.393 5.96654 26.17 10.2768 18.093C13.5203 12.0298 18.4401 8.10009 24.0455 7.10951C25.6238 6.82649 28.1163 6.85914 29.6945 7.19659C35.3109 8.37223 40.0129 12.2584 43.1694 18.3107C46.13 24.0147 47.1422 30.9052 46.0538 38.0897C45.6402 40.8328 44.7368 43.8808 43.6701 46.1558C43.3653 46.7872 43.1368 47.3206 43.1585 47.3315C43.1803 47.3532 43.4959 46.7437 43.8769 45.9926C45.4987 42.7487 46.4674 39.4612 46.8919 35.7819C47.1096 33.9423 47.0443 29.6752 46.783 27.9335C45.7381 21.0212 42.9735 15.3607 38.6524 11.3113C37.1395 9.8962 35.8551 8.99271 34.1462 8.14363C31.5666 6.87003 29.8578 6.4455 27.017 6.38018C25.3517 6.34753 24.7965 6.38018 23.8278 6.55435Z" stroke="white"/>
<path d="M30.864 17.3713C30.8306 17.3995 30.7945 17.4264 30.7547 17.4529M30.864 17.3713C30.9353 17.3572 30.9981 17.3448 31.0523 17.3347C31.0317 17.275 31.0259 17.225 31.024 17.2012C30.9751 17.2661 30.9238 17.3209 30.864 17.3713ZM30.864 17.3713L30.7547 17.4529M30.7547 17.4529L30.7681 17.5233L30.7547 17.4529ZM32.9382 16.1374C32.9507 16.145 32.9639 16.1522 32.9778 16.1589C32.9793 16.154 32.9809 16.1491 32.9825 16.144L32.9444 16.1164C32.9424 16.1234 32.9403 16.1304 32.9382 16.1374ZM32.9455 16.1129L32.9832 16.1418C32.9922 16.1136 33.0026 16.0819 33.0144 16.0465C33.0148 16.0452 33.0153 16.0438 33.0157 16.0425C33.0193 16.0285 33.0223 16.0152 33.0248 16.0029L33.0247 16.0029L33.0264 15.9953L33.06 15.8397L33.0615 15.8327C33.0497 15.8299 33.0381 15.8276 33.0266 15.8257C33.0254 15.8303 33.0241 15.835 33.0229 15.8397C33.0068 15.8989 32.9888 15.9633 32.9692 16.0314C32.9615 16.058 32.9536 16.0852 32.9455 16.1129ZM30.7527 17.4542C30.7132 17.4804 30.6701 17.5062 30.6223 17.5327L30.7662 17.5234L30.7527 17.4542Z" fill="white" stroke="white"/>
<path d="M30.6743 17.1677C30.5546 17.2548 30.3369 17.331 30.1845 17.331C29.7274 17.331 29.39 17.5705 29.0961 18.0821C28.9437 18.3434 28.6934 18.6046 28.541 18.6482C28.2798 18.7461 28.2798 18.7352 28.4866 18.5828C28.8675 18.3107 28.9764 18.191 28.9764 18.093C28.9764 18.0277 28.8784 18.0386 28.7696 18.1148C28.5954 18.2236 28.4648 18.2019 28.073 18.0059C27.6594 17.7991 27.2349 17.6902 27.2349 17.7991C27.2349 17.8209 27.4417 18.0603 27.7029 18.3325C28.443 19.1271 28.8458 19.1271 29.3573 18.2998C29.5532 17.995 29.8036 17.7991 30.2172 17.614C30.5328 17.4725 30.8267 17.2766 30.8594 17.1786C30.9464 16.9718 30.9356 16.9718 30.6743 17.1677Z" fill="white"/>
<path d="M34.7666 18.3107C34.7666 18.5175 34.7884 18.6046 34.821 18.4957C34.8428 18.3978 34.8428 18.2236 34.821 18.1147C34.7884 18.0168 34.7666 18.1039 34.7666 18.3107Z" fill="white"/>
<path d="M26.636 18.2018C26.7557 18.2454 27.0496 18.4849 27.2891 18.7352C27.5394 19.0074 27.8115 19.1815 27.9639 19.1815C28.1054 19.1815 28.2143 19.2142 28.2143 19.2686C28.2143 19.3122 28.4102 19.3339 28.6387 19.3122C28.9109 19.2795 29.2483 19.3557 29.5748 19.4972C29.8796 19.6278 30.3041 19.7258 30.5979 19.7149L31.0986 19.704L30.6632 19.5625C30.4238 19.4863 30.0211 19.3122 29.7598 19.1815C29.3136 18.9421 28.9109 18.9421 28.3558 19.1489C28.236 19.1924 28.2034 19.1707 28.2578 19.0945C28.3013 19.0074 28.2578 18.9638 28.1381 18.9638C28.0292 18.9638 27.768 18.7679 27.5503 18.5284C27.2347 18.1801 27.0823 18.093 26.7884 18.1039C26.4836 18.1039 26.4619 18.1256 26.636 18.2018Z" fill="white"/>
<path d="M25.8849 18.7352C25.689 18.8114 25.689 18.8223 25.8631 18.8876C25.972 18.9312 26.1897 18.9638 26.3638 18.9638C26.5271 18.9638 26.8427 19.04 27.0713 19.138C27.5937 19.3448 27.659 19.2795 27.2672 18.9203C26.9516 18.6264 26.3529 18.5502 25.8849 18.7352Z" fill="white"/>
<mask id="path-9-inside-1_152_13" fill="white">
<path d="M32.5245 19.2577C32.4483 19.6061 32.1653 20.0088 32.0673 19.9217C32.0347 19.8782 32.1109 19.704 32.2524 19.519C32.5463 19.1162 32.4483 18.942 32.1 19.2577C31.9694 19.3775 31.5993 19.5843 31.2728 19.7149C30.6306 19.9871 29.9775 19.9653 29.3898 19.6605C28.9762 19.4428 28.9109 19.4754 29.1503 19.7367C29.4224 20.0415 29.8687 20.2592 30.4238 20.3789C30.8809 20.4769 30.8809 20.4769 30.315 20.4334C29.749 20.3898 29.4333 20.2592 28.7911 19.7911C28.5952 19.6496 28.149 19.4863 27.8115 19.421C27.4632 19.3557 27.0932 19.2686 26.9734 19.2251C26.5707 19.0727 26.8646 19.4428 27.3544 19.704C27.7571 19.9217 27.7789 19.9544 27.5068 19.9C27.3326 19.8564 26.9952 19.6931 26.7775 19.5516C26.5598 19.3884 26.1789 19.2577 25.9068 19.2251C25.4496 19.1815 25.4496 19.1924 25.7871 19.3013C25.9721 19.3666 26.353 19.6169 26.6251 19.8455C26.9081 20.0633 27.3109 20.3136 27.5394 20.3898C27.7571 20.466 28.149 20.6293 28.4102 20.7708C28.6714 20.9123 29.0959 21.0538 29.368 21.0974L29.8578 21.1627L29.651 21.4022C29.5422 21.5219 29.4007 21.707 29.3571 21.7941C29.3136 21.8811 29.4224 21.7832 29.6075 21.5655C29.9122 21.2171 30.5544 20.8252 30.6524 20.9341C30.6633 20.9559 30.7939 21.2824 30.9245 21.6525C31.1531 22.273 31.1639 22.3383 30.9898 22.5887C30.8918 22.7411 30.4673 23.133 30.032 23.4595C29.1939 24.1018 28.4864 24.7876 28.7585 24.6896C28.8673 24.6461 29.0306 24.8202 29.2701 25.2339L29.6184 25.8326L29.368 26.1918L29.1177 26.5619L28.6605 26.0176C28.3993 25.7237 28.0292 25.2339 27.8224 24.94L27.4524 24.3957L27.6701 23.9712C27.7898 23.7317 28.1163 23.2636 28.3884 22.9153L28.9 22.2839L28.432 22.7193C27.953 23.1765 27.3435 24.1236 27.3435 24.4175C27.3435 24.6134 27.9095 25.3972 28.5626 26.1265C28.802 26.3877 29.0415 26.7361 29.1068 26.9211C29.1721 27.1062 29.2918 27.2368 29.4007 27.2368C29.5095 27.2368 29.6945 27.3457 29.8252 27.4872L30.0646 27.7484L29.749 28.4451C29.0959 29.9038 28.8456 31.6128 28.8347 34.639C28.8347 35.8037 28.8673 37.012 28.9109 37.3168L28.9871 37.872L27.8115 38.3836C26.2877 39.0585 24.1979 39.7769 22.2279 40.2994C20.4102 40.7784 20.4537 40.8546 22.3149 40.4627C26.1898 39.6354 29.7707 38.2094 32.4374 36.446C33.9068 35.4771 35.485 34.1273 36.2796 33.1694C36.6497 32.7231 36.9762 32.353 36.998 32.353C37.0851 32.353 36.998 34.2797 36.8565 35.4445C36.5191 38.2203 35.8987 40.7348 35.1803 42.3241L34.8646 43.0208H35.115C35.5177 43.0208 36.4646 42.4874 36.7912 42.0629C37.651 40.9743 38.1844 39.1238 38.4347 36.4024C38.4891 35.7819 38.5653 35.2485 38.5871 35.2268C38.6524 35.1506 38.9681 36.4895 39.0987 37.3603C39.2402 38.4162 39.1422 40.7457 38.8919 41.8778C38.6415 43.0535 38.1191 44.5339 37.6075 45.5789C37.4116 45.9925 37.3136 46.2429 37.4116 46.1232C37.7055 45.764 38.5218 44.0005 38.8266 43.0752C39.4905 41.0941 39.7408 38.4489 39.4361 36.5875C39.2619 35.4989 38.8157 34.062 38.413 33.2565L38.0429 32.5381L37.9776 34.3015C37.847 37.2515 37.4442 39.4721 36.7912 40.811C36.334 41.7472 36.0946 41.9214 36.3776 41.1267C36.715 40.147 37.1177 38.3945 37.368 36.8705C37.5531 35.7493 37.6075 34.8349 37.6402 32.451L37.6837 29.4466L38.0755 28.5431C38.2823 28.0423 38.4347 27.5851 38.413 27.5307C38.3694 27.4001 36.8129 31.0685 36.8129 31.2971C36.8129 31.3733 36.617 31.7108 36.3776 32.0264C36.1381 32.3421 35.9422 32.5707 35.9422 32.5272C35.9422 32.4945 36.3776 31.4168 36.9109 30.1432C37.8687 27.8464 38.1408 27.128 37.9123 27.4545C37.847 27.5416 37.5857 28.1294 37.3354 28.7608L36.8783 29.9038L36.7259 29.3595C36.5408 28.7064 36.3014 28.4233 35.4959 27.9335C35.1476 27.7267 34.8429 27.4872 34.8102 27.3892C34.6469 26.9538 34.8211 25.321 35.0932 24.7985C35.1912 24.6134 35.2456 24.6678 35.5395 25.223C35.9748 26.0176 36.1925 26.1265 37.0633 25.9414C37.4334 25.8652 37.8796 25.7346 38.0647 25.6475C38.2388 25.5604 38.2932 25.5169 38.1735 25.5604C37.5204 25.7564 36.4211 25.8979 36.2252 25.8217C35.8225 25.6693 35.3653 24.6787 35.3436 23.9276C35.3327 23.5248 35.2456 23.1112 35.1259 22.8826C34.8755 22.3928 33.417 20.8906 32.7857 20.4551C32.5136 20.281 32.2742 20.1068 32.2524 20.085C32.2306 20.0741 32.285 19.9653 32.383 19.8564C32.481 19.7476 32.6007 19.4972 32.6333 19.3122C32.7204 18.8876 32.6225 18.8441 32.5245 19.2577ZM28.715 20.2919C29.183 20.6075 29.3354 20.6511 29.9884 20.6511C30.6741 20.6511 30.7068 20.662 30.4238 20.7817C30.0537 20.945 29.5095 20.8688 28.9762 20.5858C28.0728 20.0959 27.8442 19.9435 28.0075 19.9435C28.1054 19.9435 28.4211 20.1068 28.715 20.2919ZM32.0456 22.088C32.1871 22.3492 32.3286 22.556 32.3612 22.556C32.3939 22.556 32.383 22.3274 32.3395 22.0335C32.2088 21.2715 32.2415 21.1409 32.4156 21.6308C32.6333 22.2077 33.2211 24.4937 33.2211 24.7223C33.2102 24.9835 32.6442 24.2542 32.198 23.4269C31.8823 22.8282 31.3599 21.4022 31.3707 21.1518C31.3816 21.043 31.7844 21.609 32.0456 22.088ZM31.4578 23.1003C31.4252 23.318 30.968 23.7099 30.8592 23.601C30.8374 23.5902 30.9027 23.3071 31.0007 22.9915C31.1639 22.4363 31.1857 22.4145 31.3272 22.6105C31.4143 22.7302 31.4796 22.9479 31.4578 23.1003ZM34.4619 23.4486C34.4728 23.9167 34.2442 24.6243 34.0918 24.6243C34.0483 24.6243 33.983 24.4392 33.9503 24.2106C33.9068 23.9929 33.8524 23.6337 33.8197 23.4269C33.7544 23.0568 33.7544 23.0568 33.9068 23.3071L34.0592 23.5684L34.1354 23.1547C34.2442 22.6105 34.451 22.8064 34.4619 23.4486ZM30.6415 23.5466C30.5 24.0365 30.5 24.178 30.6524 24.8638C30.8809 25.8543 30.8809 26.4639 30.6633 26.5401C30.4456 26.6272 30.1735 26.3986 30.1735 26.1374C30.1735 26.0285 30.0864 25.9197 29.9884 25.887C29.8796 25.8543 29.6075 25.5278 29.3789 25.1577L28.9762 24.4937L29.2592 24.2651C29.4224 24.1453 29.8252 23.8079 30.1626 23.5248C30.5 23.2309 30.783 23.0023 30.783 22.9915C30.7939 22.9915 30.7286 23.2418 30.6415 23.5466ZM31.9803 24.0256C32.1762 24.5154 32.1762 24.5154 31.8497 24.5154C31.6211 24.5154 31.5775 24.4719 31.6211 24.2977C31.6755 24.0691 31.5449 23.9929 31.4252 24.1889C31.3925 24.2433 31.2728 24.2977 31.1748 24.2977C31.0551 24.2977 31.1204 24.1998 31.3707 23.9712C31.5775 23.797 31.7626 23.6555 31.7844 23.6446C31.8061 23.6446 31.8932 23.8188 31.9803 24.0256ZM31.8714 24.842H32.3068L32.6986 25.8108L33.0905 26.7905L32.4156 26.8558C31.5558 26.932 31.251 26.8994 31.0333 26.6816C30.9027 26.551 30.8918 26.4422 30.9571 26.2462C31.0116 26.1047 31.0224 25.6911 30.9789 25.3427C30.9136 24.7114 30.9136 24.7005 31.1639 24.7658C31.3054 24.8093 31.6211 24.842 31.8714 24.842ZM29.6728 26.5946C29.3136 26.9973 29.1503 26.7361 29.4769 26.268C29.6401 26.0394 29.6728 26.0285 29.7599 26.2027C29.836 26.3333 29.8143 26.4422 29.6728 26.5946ZM30.3694 26.6599C30.5326 26.7687 30.685 26.8776 30.7177 26.9211C30.7503 26.9538 30.9245 27.0626 31.1095 27.1606C31.7082 27.4654 31.6537 28.2165 31.0333 28.2165C30.7721 28.2165 30.5871 28.0968 30.1952 27.6613C29.5748 26.9756 29.5639 26.9538 29.8034 26.6816C30.032 26.4313 29.9993 26.4313 30.3694 26.6599ZM34.1354 26.8232C34.0918 26.8994 33.9395 27.128 33.798 27.3239C33.6238 27.5525 33.5803 27.6831 33.6674 27.6613C33.7544 27.6505 33.9395 27.6505 34.0918 27.6613L34.364 27.6722L34.1027 27.8791C33.9612 27.9879 33.8742 28.1294 33.9177 28.2056C33.9612 28.2818 33.9177 28.3254 33.7762 28.3254C33.6456 28.3254 33.4061 28.1076 33.1558 27.7702C32.7204 27.1715 32.7422 27.0844 33.3299 26.9538C33.4823 26.9211 33.7 26.8558 33.8197 26.8014C34.1354 26.6708 34.2225 26.6708 34.1354 26.8232ZM32.9708 29.9691C33.0143 30.9379 32.9708 31.874 32.8401 33.0606C32.7422 34.0076 32.6769 34.9546 32.7095 35.1723C32.7531 35.4989 32.7095 35.5969 32.481 35.771C32.0347 36.1194 30.3694 37.1426 30.2605 37.1426C30.217 37.1426 30.1735 37.012 30.1735 36.8596C30.1735 36.631 30.2061 36.5983 30.402 36.6528C30.6088 36.7181 30.6197 36.6963 30.5435 36.3044C30.4891 35.967 30.5 35.9126 30.6197 36.0214C30.6959 36.0976 30.8809 36.1629 31.0224 36.1629C31.2292 36.1629 31.2728 36.1085 31.2619 35.8581C31.251 35.6949 31.2401 35.4227 31.251 35.2594L31.2619 34.9546L31.5558 35.1723C31.915 35.4663 31.9803 35.4009 31.7517 34.9764C31.5775 34.6281 31.6537 34.5301 31.9041 34.7696C31.9803 34.8458 31.9367 34.6498 31.8061 34.3233C31.6755 33.9967 31.5449 33.4089 31.5122 33.017L31.4469 32.2986L31.8497 32.734C32.0782 32.9735 32.2415 33.0932 32.2088 33.0061C32.1871 32.919 32.1327 32.734 32.0891 32.6034C32.0238 32.4074 32.0456 32.3639 32.1762 32.4183C32.3939 32.5054 32.3939 32.4292 32.198 32.0482C32.1218 31.8849 32.0129 31.6346 31.9694 31.493C31.8932 31.2427 31.8932 31.2427 32.1435 31.4168C32.5463 31.689 32.568 31.6346 32.3503 30.9923L32.1435 30.3936L32.4156 30.5678C32.7313 30.7855 32.7313 30.8073 32.4483 30.067C32.3177 29.7296 32.285 29.5228 32.3612 29.599C32.5789 29.8167 32.6769 29.7622 32.5789 29.4901C32.5354 29.3595 32.4592 29.1091 32.4156 28.9349C32.3395 28.641 32.3503 28.6302 32.5245 28.7717C32.6986 28.9132 32.6986 28.8696 32.6442 28.1621L32.5789 27.4001L32.7422 27.9988C32.8293 28.3254 32.9381 29.218 32.9708 29.9691ZM34.9299 29.686C35.0388 30.0344 35.115 30.8181 35.1476 31.874L35.2021 33.5069L34.5381 34.0838C34.1789 34.3995 33.8742 34.5954 33.8742 34.5192C33.8742 34.4539 33.9939 34.1382 34.1463 33.8225C34.3422 33.4416 34.4619 32.919 34.549 32.2006C34.6905 30.9488 34.5925 30.3827 34.0592 29.2833C33.7109 28.5757 33.7109 28.554 33.9286 28.5104C34.2333 28.456 34.7123 29.0111 34.9299 29.686ZM36.6061 30.5133C36.4864 30.7964 36.4211 30.8726 36.3993 30.7419C36.3776 30.644 36.3014 30.3065 36.2143 29.9908L36.0728 29.4357L36.432 29.7731L36.7803 30.0997L36.6061 30.5133ZM34.3095 31.5366C34.3095 32.7666 34.168 33.6266 33.9177 33.9423C33.7762 34.1273 33.7653 34.0076 33.798 32.7884C33.8524 31.3733 34.0374 30.2412 34.2116 30.3501C34.266 30.3827 34.3095 30.9161 34.3095 31.5366ZM36.3014 31.21C36.2252 31.4386 36.1599 31.4168 36.1599 31.1447C36.1599 31.025 36.2034 30.9488 36.2687 30.9923C36.3231 31.025 36.3449 31.1229 36.3014 31.21Z"/>
</mask>
<path d="M32.5245 19.2577C32.4483 19.6061 32.1653 20.0088 32.0673 19.9217C32.0347 19.8782 32.1109 19.704 32.2524 19.519C32.5463 19.1162 32.4483 18.942 32.1 19.2577C31.9694 19.3775 31.5993 19.5843 31.2728 19.7149C30.6306 19.9871 29.9775 19.9653 29.3898 19.6605C28.9762 19.4428 28.9109 19.4754 29.1503 19.7367C29.4224 20.0415 29.8687 20.2592 30.4238 20.3789C30.8809 20.4769 30.8809 20.4769 30.315 20.4334C29.749 20.3898 29.4333 20.2592 28.7911 19.7911C28.5952 19.6496 28.149 19.4863 27.8115 19.421C27.4632 19.3557 27.0932 19.2686 26.9734 19.2251C26.5707 19.0727 26.8646 19.4428 27.3544 19.704C27.7571 19.9217 27.7789 19.9544 27.5068 19.9C27.3326 19.8564 26.9952 19.6931 26.7775 19.5516C26.5598 19.3884 26.1789 19.2577 25.9068 19.2251C25.4496 19.1815 25.4496 19.1924 25.7871 19.3013C25.9721 19.3666 26.353 19.6169 26.6251 19.8455C26.9081 20.0633 27.3109 20.3136 27.5394 20.3898C27.7571 20.466 28.149 20.6293 28.4102 20.7708C28.6714 20.9123 29.0959 21.0538 29.368 21.0974L29.8578 21.1627L29.651 21.4022C29.5422 21.5219 29.4007 21.707 29.3571 21.7941C29.3136 21.8811 29.4224 21.7832 29.6075 21.5655C29.9122 21.2171 30.5544 20.8252 30.6524 20.9341C30.6633 20.9559 30.7939 21.2824 30.9245 21.6525C31.1531 22.273 31.1639 22.3383 30.9898 22.5887C30.8918 22.7411 30.4673 23.133 30.032 23.4595C29.1939 24.1018 28.4864 24.7876 28.7585 24.6896C28.8673 24.6461 29.0306 24.8202 29.2701 25.2339L29.6184 25.8326L29.368 26.1918L29.1177 26.5619L28.6605 26.0176C28.3993 25.7237 28.0292 25.2339 27.8224 24.94L27.4524 24.3957L27.6701 23.9712C27.7898 23.7317 28.1163 23.2636 28.3884 22.9153L28.9 22.2839L28.432 22.7193C27.953 23.1765 27.3435 24.1236 27.3435 24.4175C27.3435 24.6134 27.9095 25.3972 28.5626 26.1265C28.802 26.3877 29.0415 26.7361 29.1068 26.9211C29.1721 27.1062 29.2918 27.2368 29.4007 27.2368C29.5095 27.2368 29.6945 27.3457 29.8252 27.4872L30.0646 27.7484L29.749 28.4451C29.0959 29.9038 28.8456 31.6128 28.8347 34.639C28.8347 35.8037 28.8673 37.012 28.9109 37.3168L28.9871 37.872L27.8115 38.3836C26.2877 39.0585 24.1979 39.7769 22.2279 40.2994C20.4102 40.7784 20.4537 40.8546 22.3149 40.4627C26.1898 39.6354 29.7707 38.2094 32.4374 36.446C33.9068 35.4771 35.485 34.1273 36.2796 33.1694C36.6497 32.7231 36.9762 32.353 36.998 32.353C37.0851 32.353 36.998 34.2797 36.8565 35.4445C36.5191 38.2203 35.8987 40.7348 35.1803 42.3241L34.8646 43.0208H35.115C35.5177 43.0208 36.4646 42.4874 36.7912 42.0629C37.651 40.9743 38.1844 39.1238 38.4347 36.4024C38.4891 35.7819 38.5653 35.2485 38.5871 35.2268C38.6524 35.1506 38.9681 36.4895 39.0987 37.3603C39.2402 38.4162 39.1422 40.7457 38.8919 41.8778C38.6415 43.0535 38.1191 44.5339 37.6075 45.5789C37.4116 45.9925 37.3136 46.2429 37.4116 46.1232C37.7055 45.764 38.5218 44.0005 38.8266 43.0752C39.4905 41.0941 39.7408 38.4489 39.4361 36.5875C39.2619 35.4989 38.8157 34.062 38.413 33.2565L38.0429 32.5381L37.9776 34.3015C37.847 37.2515 37.4442 39.4721 36.7912 40.811C36.334 41.7472 36.0946 41.9214 36.3776 41.1267C36.715 40.147 37.1177 38.3945 37.368 36.8705C37.5531 35.7493 37.6075 34.8349 37.6402 32.451L37.6837 29.4466L38.0755 28.5431C38.2823 28.0423 38.4347 27.5851 38.413 27.5307C38.3694 27.4001 36.8129 31.0685 36.8129 31.2971C36.8129 31.3733 36.617 31.7108 36.3776 32.0264C36.1381 32.3421 35.9422 32.5707 35.9422 32.5272C35.9422 32.4945 36.3776 31.4168 36.9109 30.1432C37.8687 27.8464 38.1408 27.128 37.9123 27.4545C37.847 27.5416 37.5857 28.1294 37.3354 28.7608L36.8783 29.9038L36.7259 29.3595C36.5408 28.7064 36.3014 28.4233 35.4959 27.9335C35.1476 27.7267 34.8429 27.4872 34.8102 27.3892C34.6469 26.9538 34.8211 25.321 35.0932 24.7985C35.1912 24.6134 35.2456 24.6678 35.5395 25.223C35.9748 26.0176 36.1925 26.1265 37.0633 25.9414C37.4334 25.8652 37.8796 25.7346 38.0647 25.6475C38.2388 25.5604 38.2932 25.5169 38.1735 25.5604C37.5204 25.7564 36.4211 25.8979 36.2252 25.8217C35.8225 25.6693 35.3653 24.6787 35.3436 23.9276C35.3327 23.5248 35.2456 23.1112 35.1259 22.8826C34.8755 22.3928 33.417 20.8906 32.7857 20.4551C32.5136 20.281 32.2742 20.1068 32.2524 20.085C32.2306 20.0741 32.285 19.9653 32.383 19.8564C32.481 19.7476 32.6007 19.4972 32.6333 19.3122C32.7204 18.8876 32.6225 18.8441 32.5245 19.2577ZM28.715 20.2919C29.183 20.6075 29.3354 20.6511 29.9884 20.6511C30.6741 20.6511 30.7068 20.662 30.4238 20.7817C30.0537 20.945 29.5095 20.8688 28.9762 20.5858C28.0728 20.0959 27.8442 19.9435 28.0075 19.9435C28.1054 19.9435 28.4211 20.1068 28.715 20.2919ZM32.0456 22.088C32.1871 22.3492 32.3286 22.556 32.3612 22.556C32.3939 22.556 32.383 22.3274 32.3395 22.0335C32.2088 21.2715 32.2415 21.1409 32.4156 21.6308C32.6333 22.2077 33.2211 24.4937 33.2211 24.7223C33.2102 24.9835 32.6442 24.2542 32.198 23.4269C31.8823 22.8282 31.3599 21.4022 31.3707 21.1518C31.3816 21.043 31.7844 21.609 32.0456 22.088ZM31.4578 23.1003C31.4252 23.318 30.968 23.7099 30.8592 23.601C30.8374 23.5902 30.9027 23.3071 31.0007 22.9915C31.1639 22.4363 31.1857 22.4145 31.3272 22.6105C31.4143 22.7302 31.4796 22.9479 31.4578 23.1003ZM34.4619 23.4486C34.4728 23.9167 34.2442 24.6243 34.0918 24.6243C34.0483 24.6243 33.983 24.4392 33.9503 24.2106C33.9068 23.9929 33.8524 23.6337 33.8197 23.4269C33.7544 23.0568 33.7544 23.0568 33.9068 23.3071L34.0592 23.5684L34.1354 23.1547C34.2442 22.6105 34.451 22.8064 34.4619 23.4486ZM30.6415 23.5466C30.5 24.0365 30.5 24.178 30.6524 24.8638C30.8809 25.8543 30.8809 26.4639 30.6633 26.5401C30.4456 26.6272 30.1735 26.3986 30.1735 26.1374C30.1735 26.0285 30.0864 25.9197 29.9884 25.887C29.8796 25.8543 29.6075 25.5278 29.3789 25.1577L28.9762 24.4937L29.2592 24.2651C29.4224 24.1453 29.8252 23.8079 30.1626 23.5248C30.5 23.2309 30.783 23.0023 30.783 22.9915C30.7939 22.9915 30.7286 23.2418 30.6415 23.5466ZM31.9803 24.0256C32.1762 24.5154 32.1762 24.5154 31.8497 24.5154C31.6211 24.5154 31.5775 24.4719 31.6211 24.2977C31.6755 24.0691 31.5449 23.9929 31.4252 24.1889C31.3925 24.2433 31.2728 24.2977 31.1748 24.2977C31.0551 24.2977 31.1204 24.1998 31.3707 23.9712C31.5775 23.797 31.7626 23.6555 31.7844 23.6446C31.8061 23.6446 31.8932 23.8188 31.9803 24.0256ZM31.8714 24.842H32.3068L32.6986 25.8108L33.0905 26.7905L32.4156 26.8558C31.5558 26.932 31.251 26.8994 31.0333 26.6816C30.9027 26.551 30.8918 26.4422 30.9571 26.2462C31.0116 26.1047 31.0224 25.6911 30.9789 25.3427C30.9136 24.7114 30.9136 24.7005 31.1639 24.7658C31.3054 24.8093 31.6211 24.842 31.8714 24.842ZM29.6728 26.5946C29.3136 26.9973 29.1503 26.7361 29.4769 26.268C29.6401 26.0394 29.6728 26.0285 29.7599 26.2027C29.836 26.3333 29.8143 26.4422 29.6728 26.5946ZM30.3694 26.6599C30.5326 26.7687 30.685 26.8776 30.7177 26.9211C30.7503 26.9538 30.9245 27.0626 31.1095 27.1606C31.7082 27.4654 31.6537 28.2165 31.0333 28.2165C30.7721 28.2165 30.5871 28.0968 30.1952 27.6613C29.5748 26.9756 29.5639 26.9538 29.8034 26.6816C30.032 26.4313 29.9993 26.4313 30.3694 26.6599ZM34.1354 26.8232C34.0918 26.8994 33.9395 27.128 33.798 27.3239C33.6238 27.5525 33.5803 27.6831 33.6674 27.6613C33.7544 27.6505 33.9395 27.6505 34.0918 27.6613L34.364 27.6722L34.1027 27.8791C33.9612 27.9879 33.8742 28.1294 33.9177 28.2056C33.9612 28.2818 33.9177 28.3254 33.7762 28.3254C33.6456 28.3254 33.4061 28.1076 33.1558 27.7702C32.7204 27.1715 32.7422 27.0844 33.3299 26.9538C33.4823 26.9211 33.7 26.8558 33.8197 26.8014C34.1354 26.6708 34.2225 26.6708 34.1354 26.8232ZM32.9708 29.9691C33.0143 30.9379 32.9708 31.874 32.8401 33.0606C32.7422 34.0076 32.6769 34.9546 32.7095 35.1723C32.7531 35.4989 32.7095 35.5969 32.481 35.771C32.0347 36.1194 30.3694 37.1426 30.2605 37.1426C30.217 37.1426 30.1735 37.012 30.1735 36.8596C30.1735 36.631 30.2061 36.5983 30.402 36.6528C30.6088 36.7181 30.6197 36.6963 30.5435 36.3044C30.4891 35.967 30.5 35.9126 30.6197 36.0214C30.6959 36.0976 30.8809 36.1629 31.0224 36.1629C31.2292 36.1629 31.2728 36.1085 31.2619 35.8581C31.251 35.6949 31.2401 35.4227 31.251 35.2594L31.2619 34.9546L31.5558 35.1723C31.915 35.4663 31.9803 35.4009 31.7517 34.9764C31.5775 34.6281 31.6537 34.5301 31.9041 34.7696C31.9803 34.8458 31.9367 34.6498 31.8061 34.3233C31.6755 33.9967 31.5449 33.4089 31.5122 33.017L31.4469 32.2986L31.8497 32.734C32.0782 32.9735 32.2415 33.0932 32.2088 33.0061C32.1871 32.919 32.1327 32.734 32.0891 32.6034C32.0238 32.4074 32.0456 32.3639 32.1762 32.4183C32.3939 32.5054 32.3939 32.4292 32.198 32.0482C32.1218 31.8849 32.0129 31.6346 31.9694 31.493C31.8932 31.2427 31.8932 31.2427 32.1435 31.4168C32.5463 31.689 32.568 31.6346 32.3503 30.9923L32.1435 30.3936L32.4156 30.5678C32.7313 30.7855 32.7313 30.8073 32.4483 30.067C32.3177 29.7296 32.285 29.5228 32.3612 29.599C32.5789 29.8167 32.6769 29.7622 32.5789 29.4901C32.5354 29.3595 32.4592 29.1091 32.4156 28.9349C32.3395 28.641 32.3503 28.6302 32.5245 28.7717C32.6986 28.9132 32.6986 28.8696 32.6442 28.1621L32.5789 27.4001L32.7422 27.9988C32.8293 28.3254 32.9381 29.218 32.9708 29.9691ZM34.9299 29.686C35.0388 30.0344 35.115 30.8181 35.1476 31.874L35.2021 33.5069L34.5381 34.0838C34.1789 34.3995 33.8742 34.5954 33.8742 34.5192C33.8742 34.4539 33.9939 34.1382 34.1463 33.8225C34.3422 33.4416 34.4619 32.919 34.549 32.2006C34.6905 30.9488 34.5925 30.3827 34.0592 29.2833C33.7109 28.5757 33.7109 28.554 33.9286 28.5104C34.2333 28.456 34.7123 29.0111 34.9299 29.686ZM36.6061 30.5133C36.4864 30.7964 36.4211 30.8726 36.3993 30.7419C36.3776 30.644 36.3014 30.3065 36.2143 29.9908L36.0728 29.4357L36.432 29.7731L36.7803 30.0997L36.6061 30.5133ZM34.3095 31.5366C34.3095 32.7666 34.168 33.6266 33.9177 33.9423C33.7762 34.1273 33.7653 34.0076 33.798 32.7884C33.8524 31.3733 34.0374 30.2412 34.2116 30.3501C34.266 30.3827 34.3095 30.9161 34.3095 31.5366ZM36.3014 31.21C36.2252 31.4386 36.1599 31.4168 36.1599 31.1447C36.1599 31.025 36.2034 30.9488 36.2687 30.9923C36.3231 31.025 36.3449 31.1229 36.3014 31.21Z" fill="white" stroke="white" stroke-width="50" mask="url(#path-9-inside-1_152_13)"/>
<path d="M24.8945 19.3013C24.9489 19.4537 26.1027 20.0524 26.353 20.0524C26.5707 20.0524 26.4727 19.8891 26.1136 19.6387C25.9176 19.5081 25.602 19.3993 25.4278 19.3993C25.2428 19.3993 25.036 19.334 24.9598 19.2578C24.851 19.1489 24.8401 19.1598 24.8945 19.3013Z" fill="white"/>
<mask id="path-11-inside-2_152_13" fill="white">
<path d="M33.8959 20.2919C33.8741 20.8688 33.8959 20.9232 34.1027 20.9232C34.3639 20.9232 34.7013 21.0865 35.0714 21.4022C35.2238 21.5219 35.1911 21.4675 34.9952 21.2716C34.7993 21.0756 34.4836 20.8906 34.3095 20.8579C34.0156 20.7926 33.9938 20.7491 33.9503 20.2266L33.9177 19.6714L33.8959 20.2919Z"/>
</mask>
<path d="M33.8959 20.2919C33.8741 20.8688 33.8959 20.9232 34.1027 20.9232C34.3639 20.9232 34.7013 21.0865 35.0714 21.4022C35.2238 21.5219 35.1911 21.4675 34.9952 21.2716C34.7993 21.0756 34.4836 20.8906 34.3095 20.8579C34.0156 20.7926 33.9938 20.7491 33.9503 20.2266L33.9177 19.6714L33.8959 20.2919Z" fill="white"/>
<path d="M33.8959 20.2919L34.8953 20.3269L34.8952 20.3296L33.8959 20.2919ZM35.0714 21.4022L34.4535 22.1885L34.4377 22.1761L34.4224 22.163L35.0714 21.4022ZM34.3095 20.8579L34.1252 21.8408L34.1088 21.8377L34.0925 21.8341L34.3095 20.8579ZM33.9503 20.2266L32.9538 20.3096L32.9527 20.2974L32.952 20.2853L33.9503 20.2266ZM33.9177 19.6714L32.9183 19.6363L34.9159 19.6127L33.9177 19.6714ZM34.8952 20.3296C34.8897 20.4737 34.8883 20.557 34.8896 20.6083C34.8914 20.6772 34.8974 20.6132 34.8623 20.5077C34.8408 20.4432 34.7976 20.3431 34.7122 20.2394C34.6218 20.1299 34.5112 20.0491 34.3969 19.9967C34.2919 19.9486 34.2037 19.9334 34.161 19.9279C34.1195 19.9226 34.0936 19.9232 34.1027 19.9232V21.9232C34.0496 21.9232 33.8112 21.9284 33.5632 21.8147C33.2282 21.661 33.0466 21.3853 32.9649 21.1401C32.9011 20.9489 32.8929 20.7631 32.8903 20.6595C32.8872 20.5384 32.8911 20.3985 32.8966 20.2542L34.8952 20.3296ZM34.1027 19.9232C34.7284 19.9232 35.2972 20.2804 35.7204 20.6414L34.4224 22.163C34.2835 22.0445 34.1758 21.9765 34.105 21.9417C34.0286 21.9041 34.0326 21.9232 34.1027 21.9232V19.9232ZM35.6893 20.6159C35.731 20.6487 35.7031 20.6231 35.6444 20.5899C35.6277 20.5804 35.5752 20.551 35.5012 20.5242C35.4644 20.5108 35.3939 20.4876 35.3016 20.4748C35.2219 20.4637 35.0331 20.4464 34.8127 20.5296C34.543 20.6314 34.3208 20.8496 34.2213 21.1389C34.1398 21.3759 34.1697 21.5762 34.1869 21.6609C34.2211 21.8292 34.2919 21.9451 34.302 21.9622C34.3579 22.0574 34.4159 22.1128 34.3742 22.0674C34.3596 22.0514 34.332 22.0225 34.2881 21.9786L35.7024 20.5645C35.7564 20.6186 35.8064 20.67 35.8482 20.7156C35.863 20.7317 35.9563 20.83 36.0259 20.9483C36.0393 20.9712 36.1122 21.0917 36.147 21.2633C36.1645 21.3497 36.1945 21.5513 36.1126 21.7893C36.0128 22.0796 35.7898 22.2985 35.5192 22.4007C35.2977 22.4843 35.1075 22.4671 35.0261 22.4557C34.932 22.4426 34.8594 22.4189 34.8202 22.4047C34.7414 22.3761 34.6826 22.3436 34.6583 22.3299C34.569 22.2793 34.4879 22.2155 34.4535 22.1885L35.6893 20.6159ZM34.2881 21.9786C34.2769 21.9674 34.256 21.9487 34.2255 21.9256C34.1956 21.9029 34.1629 21.8809 34.131 21.8618C34.0984 21.8423 34.0741 21.8304 34.0617 21.8249C34.0559 21.8224 34.0569 21.8231 34.0644 21.8256C34.0709 21.8278 34.092 21.8346 34.1252 21.8408L34.4938 19.8751C34.7545 19.9239 34.9975 20.0497 35.1573 20.1452C35.3372 20.2527 35.5343 20.3965 35.7024 20.5645L34.2881 21.9786ZM34.0925 21.8341C33.9854 21.8103 33.4567 21.7217 33.1652 21.2052C33.0538 21.0079 33.0151 20.8119 32.9964 20.6967C32.9765 20.574 32.9643 20.4358 32.9538 20.3096L34.9469 20.1435C34.9581 20.2786 34.965 20.3418 34.9705 20.3762C34.9774 20.4182 34.9707 20.3351 34.9069 20.2221C34.8702 20.1571 34.819 20.0893 34.7515 20.0278C34.6853 19.9676 34.6209 19.9293 34.573 19.906C34.5284 19.8843 34.4968 19.875 34.4933 19.874C34.49 19.873 34.4969 19.8752 34.5264 19.8817L34.0925 21.8341ZM32.952 20.2853L32.9194 19.7301L34.9159 19.6127L34.9486 20.1678L32.952 20.2853ZM34.917 19.7065L34.8953 20.3269L32.8965 20.2568L32.9183 19.6363L34.917 19.7065Z" fill="white" mask="url(#path-11-inside-2_152_13)"/>
<path d="M29.074 22.1968C28.9325 22.371 28.9434 22.3819 29.1176 22.2404C29.2917 22.0989 29.3462 22.0118 29.2591 22.0118C29.2373 22.0118 29.1502 22.0989 29.074 22.1968Z" fill="white"/>
<mask id="path-14-inside-3_152_13" fill="white">
<path d="M35.8334 22.937C35.9749 23.1765 36.1708 23.6446 36.2687 23.9711C36.4973 24.6678 36.5844 24.7114 37.847 24.7114L38.7177 24.7005L37.6075 24.5916C36.7912 24.5154 36.4864 24.4501 36.4864 24.3413C36.4864 24.08 36.051 23.0459 35.8225 22.7737C35.6048 22.5234 35.6157 22.5343 35.8334 22.937Z"/>
</mask>
<path d="M35.8334 22.937C35.9749 23.1765 36.1708 23.6446 36.2687 23.9711C36.4973 24.6678 36.5844 24.7114 37.847 24.7114L38.7177 24.7005L37.6075 24.5916C36.7912 24.5154 36.4864 24.4501 36.4864 24.3413C36.4864 24.08 36.051 23.0459 35.8225 22.7737C35.6048 22.5234 35.6157 22.5343 35.8334 22.937Z" fill="white"/>
<path d="M35.8334 22.937L34.9724 23.4457L34.9627 23.4293L34.9536 23.4125L35.8334 22.937ZM36.2687 23.9711L35.3186 24.2829L35.3146 24.2707L35.3109 24.2585L36.2687 23.9711ZM37.847 24.7114L37.8595 25.7114H37.847V24.7114ZM38.7177 24.7005L38.8153 23.7053L38.7302 25.7004L38.7177 24.7005ZM37.6075 24.5916L37.7005 23.5959L37.7051 23.5964L37.6075 24.5916ZM35.8225 22.7737L36.5771 22.1176L36.5827 22.124L36.5882 22.1306L35.8225 22.7737ZM36.6943 22.4283C36.8864 22.7534 37.1114 23.2999 37.2266 23.6838L35.3109 24.2585C35.2302 23.9893 35.0633 23.5996 34.9724 23.4457L36.6943 22.4283ZM37.2189 23.6594C37.246 23.7421 37.2651 23.7966 37.2809 23.8366C37.2965 23.8764 37.3018 23.8834 37.2961 23.8737C37.2886 23.8609 37.2663 23.8264 37.2247 23.7868C37.1814 23.7456 37.1353 23.7162 37.0959 23.6977C37.0351 23.6691 37.0272 23.6848 37.1787 23.6968C37.3227 23.7082 37.5265 23.7114 37.847 23.7114V25.7114C37.5361 25.7114 37.2556 25.7091 37.021 25.6906C36.7939 25.6726 36.5133 25.6339 36.2443 25.5073C35.5924 25.2005 35.4128 24.5701 35.3186 24.2829L37.2189 23.6594ZM37.8345 23.7114L38.7052 23.7006L38.7302 25.7004L37.8595 25.7113L37.8345 23.7114ZM38.6201 25.6957L37.5099 25.5869L37.7051 23.5964L38.8153 23.7053L38.6201 25.6957ZM37.5146 25.5873C37.1084 25.5494 36.7711 25.5096 36.5247 25.455C36.4113 25.43 36.2354 25.3851 36.0666 25.2928C35.9203 25.2127 35.4864 24.9269 35.4864 24.3413H37.4864C37.4864 24.0987 37.3946 23.8955 37.2806 23.7537C37.1797 23.6282 37.0736 23.5639 37.027 23.5384C36.9409 23.4913 36.8921 23.488 36.957 23.5023C37.0671 23.5267 37.2903 23.5577 37.7005 23.596L37.5146 25.5873ZM35.4864 24.3413C35.4864 24.4223 35.4997 24.4648 35.4926 24.4338C35.4887 24.4165 35.4796 24.3826 35.4629 24.3307C35.4297 24.2277 35.3794 24.0938 35.319 23.9508C35.2589 23.8085 35.1946 23.6711 35.1368 23.5607C35.0692 23.4316 35.0403 23.3973 35.0567 23.4169L36.5882 22.1306C36.719 22.2863 36.8302 22.4833 36.9085 22.6328C36.9966 22.801 37.084 22.9895 37.1613 23.1724C37.2383 23.3546 37.3111 23.5452 37.3668 23.7181C37.4077 23.8452 37.4864 24.0987 37.4864 24.3413H35.4864ZM35.0678 23.4299C35.0397 23.3975 35.0183 23.3729 35.0005 23.3526C34.9918 23.3427 34.9851 23.3352 34.98 23.3295C34.9747 23.3236 34.9725 23.3213 34.9727 23.3215C34.9729 23.3217 34.9744 23.3233 34.9769 23.3258C34.9793 23.3283 34.9838 23.3329 34.99 23.3388C34.9959 23.3446 35.0305 23.3783 35.0827 23.4164C35.1074 23.4345 35.1652 23.4753 35.2472 23.5135C35.3015 23.5387 35.5199 23.6386 35.8125 23.5953C35.9818 23.5703 36.1661 23.4979 36.326 23.3572C36.4808 23.2209 36.5644 23.0634 36.6081 22.9393C36.6851 22.7205 36.6632 22.5364 36.6569 22.4864C36.6413 22.3616 36.6042 22.2705 36.6018 22.2642C36.5919 22.2383 36.5838 22.221 36.5826 22.2186C36.5799 22.2128 36.5819 22.2174 36.5945 22.2414C36.6191 22.2881 36.6555 22.355 36.7131 22.4615L34.9536 23.4125C34.9024 23.3176 34.8558 23.2321 34.8239 23.1714C34.8083 23.1416 34.7887 23.1037 34.7711 23.0661C34.7625 23.0478 34.7486 23.0173 34.7346 22.9807C34.7281 22.9639 34.6887 22.8647 34.6724 22.7345C34.6658 22.6818 34.644 22.4956 34.7215 22.2754C34.7654 22.1506 34.8494 21.9925 35.0047 21.8558C35.165 21.7147 35.3499 21.642 35.5199 21.6168C35.8138 21.5734 36.034 21.6737 36.0906 21.7C36.1747 21.7391 36.2352 21.7816 36.2631 21.8019C36.3555 21.8695 36.425 21.9464 36.4307 21.9525C36.4737 21.9982 36.5306 22.0641 36.5771 22.1176L35.0678 23.4299Z" fill="#FFEAEA" mask="url(#path-14-inside-3_152_13)"/>
<path d="M39.3708 23.5466C39.3273 23.6664 39.3273 23.797 39.3599 23.8296C39.3926 23.8732 39.4253 23.8188 39.4253 23.7099C39.4253 23.5902 39.4906 23.5357 39.6212 23.5575C39.73 23.5793 39.7953 23.6772 39.7736 23.8079C39.7518 24.0256 39.7518 24.0256 39.8715 23.8188C39.9804 23.6446 39.9586 23.5793 39.7953 23.4595C39.5341 23.2636 39.447 23.2745 39.3708 23.5466Z" fill="white"/>
<path d="M38.9245 24.5372C38.7177 24.7876 38.7177 24.7876 38.9462 24.5916C39.2619 24.3304 39.5231 24.363 39.6428 24.6896C39.7952 25.0706 39.7734 25.1795 39.5449 25.4951C39.3598 25.7346 39.3054 25.7455 39.0333 25.6149C38.7721 25.4951 38.7503 25.506 38.8809 25.6475C39.3598 26.2462 40.1326 25.2339 39.7517 24.5046C39.5993 24.2215 39.1748 24.2433 38.9245 24.5372Z" fill="white"/>
<path d="M38.3586 26.1374C38.13 26.6817 38.13 26.6817 37.7926 26.5728C37.1613 26.3442 37.3355 26.5728 38.0538 26.8994C38.9681 27.313 39.2076 27.3892 39.2076 27.2477C39.2076 27.1933 39.1096 27.1062 38.9899 27.0735C38.7287 26.9865 38.7178 26.9103 38.9355 26.3986C39.1205 25.9523 39.1314 25.8979 39.0008 25.9741C38.9572 26.0068 38.8484 26.2571 38.7722 26.5293C38.6307 27.0409 38.598 27.0735 38.3477 26.9211C38.2171 26.8341 38.228 26.7361 38.4239 26.2462C38.5545 25.9306 38.6525 25.6584 38.6307 25.6366C38.6089 25.6149 38.4892 25.8435 38.3586 26.1374Z" fill="white"/>
<path d="M18.1572 40.8328C17.9177 41.0941 16.9272 41.5077 15.6429 41.8887C13.8252 42.4112 12.7367 43.0644 12.1925 43.9461C11.9204 44.4033 11.9422 44.5448 12.2469 44.142C12.8238 43.3583 13.8034 42.8249 15.9803 42.1064C17.2537 41.6819 18.1027 41.2247 18.3095 40.8546C18.451 40.5716 18.3966 40.5607 18.1572 40.8328Z" fill="white"/>
<path d="M20.2468 40.811C20.3121 40.8328 20.4428 40.8328 20.5189 40.811C20.5843 40.7784 20.5298 40.7566 20.3775 40.7566C20.2251 40.7566 20.1706 40.7784 20.2468 40.811Z" fill="white"/>
<path d="M20.9217 41.2247C16.9924 42.2588 17.0251 42.2479 17.5693 42.2588C18.4944 42.2588 20.8019 41.6601 22.1516 41.0614C22.8047 40.7675 22.4781 40.811 20.9217 41.2247Z" fill="white"/>
<path d="M37.2484 47.1029C36.1818 47.2988 35.3546 47.5492 29.9668 49.2473C27.4851 50.0202 25.0144 50.7604 24.4702 50.8802C23.0443 51.185 19.3871 51.272 17.5912 51.0326C15.2075 50.7169 13.4443 50.1726 12.2361 49.378L11.5068 48.899L12.0837 49.4433C12.715 50.042 13.7599 50.5863 15.0769 51.0108C17.232 51.7075 21.2484 52.2082 24.8946 52.2082C27.1259 52.2191 27.5178 52.1864 28.5192 51.9687C30.2715 51.5768 32.209 50.9128 34.5818 49.9114C39.5233 47.7996 40.6335 47.5057 41.6457 48.0173C42.0593 48.235 42.0593 48.235 41.8634 48.0173C41.5913 47.7234 40.4702 47.2009 39.7736 47.0593C39.0335 46.907 38.2716 46.9178 37.2484 47.1029ZM40.6444 47.5057C41.0362 47.6472 41.0253 47.6472 40.1002 47.6472C38.9355 47.6472 37.6729 48.0282 34.3097 49.3888C29.6729 51.2612 26.5491 51.9578 23.0225 51.9361L21.5205 51.9252L22.7722 51.7728C24.8076 51.5333 24.579 51.5986 33.4933 48.6813C35.2892 48.0935 37.1069 47.5383 37.5205 47.4403C38.4022 47.2444 40.024 47.2771 40.6444 47.5057Z" fill="white"/>
</svg>
