<svg width="60" height="57" viewBox="0 0 60 57" fill="none" xmlns="http://www.w3.org/2000/svg">
<path d="M59.8242 46.5136C59.668 45.9277 59.209 45.2343 58.4473 44.4336C57.6855 43.6328 56.5234 43.2715 54.9609 43.3496C54.9609 43.3496 54.9512 43.3496 54.9316 43.3496C54.9121 43.3496 54.9023 43.3496 54.9023 43.3496L51.9141 43.6425C52.6172 42.8613 53.1641 41.9726 53.5547 40.9765C53.9453 39.9804 54.1406 38.916 54.1406 37.7832V30.166C54.1406 27.666 53.6035 25.2832 52.5293 23.0175C51.4551 20.7519 49.9414 18.8183 47.9883 17.2168L44.5898 14.4043C44.9805 14.0527 45.293 13.623 45.5273 13.1152C45.7617 12.6074 45.8789 12.08 45.8789 11.5332C45.8789 10.8691 45.7227 10.2539 45.4102 9.68753C45.0977 9.12113 44.6875 8.66213 44.1797 8.31053L46.582 3.91601C46.7773 3.52539 46.8652 3.125 46.8457 2.71484C46.8262 2.30468 46.7188 1.92382 46.5234 1.57226C46.2891 1.2207 45.9961 0.947264 45.6445 0.751954C45.293 0.556644 44.9023 0.458984 44.4727 0.458984H28.0078C27.5781 0.458984 27.1875 0.556644 26.8359 0.751954C26.4844 0.947264 26.2109 1.2207 26.0156 1.57226C25.7812 1.92382 25.6641 2.30468 25.6641 2.71484C25.6641 3.125 25.7617 3.52539 25.957 3.91601L28.3008 8.31053C27.793 8.66213 27.3828 9.12113 27.0703 9.68753C26.7578 10.2539 26.6016 10.8691 26.6016 11.5332C26.6016 12.08 26.7188 12.6074 26.9531 13.1152C27.1875 13.623 27.5 14.0527 27.8906 14.4043L24.4922 17.2168C22.5391 18.8183 21.0352 20.7519 19.9805 23.0175C18.9258 25.2832 18.3984 27.666 18.3984 30.166V31.3965C18.3984 31.3965 18.3887 31.3965 18.3691 31.3965C18.3496 31.3965 18.3398 31.3965 18.3398 31.3965C17.0898 31.5918 16.0156 31.875 15.1172 32.2461C14.2188 32.6172 13.5938 32.8808 13.2422 33.0371H11.4844V32.5683C11.4844 32.0215 11.25 31.5429 10.7812 31.1328C10.3125 30.7226 9.74609 30.5175 9.08203 30.5175H2.40234C1.77734 30.5175 1.23047 30.7226 0.761719 31.1328C0.292969 31.5429 0.0585938 32.0215 0.0585938 32.5683V34.7949C0.0585938 35.1074 0.175781 35.3808 0.410156 35.6152C0.644531 35.8496 0.917969 35.9668 1.23047 35.9668C1.54297 35.9668 1.81641 35.8496 2.05078 35.6152C2.28516 35.3808 2.40234 35.1074 2.40234 34.7949V32.8613H9.14062V47.4511C9.14062 47.4511 9.13086 47.4511 9.11133 47.4511C9.0918 47.4511 9.08203 47.4511 9.08203 47.4511H2.40234V45.5175C2.40234 45.166 2.28516 44.8828 2.05078 44.6679C1.81641 44.4531 1.54297 44.3457 1.23047 44.3457C0.917969 44.3457 0.644531 44.4531 0.410156 44.6679C0.175781 44.8828 0.0585938 45.166 0.0585938 45.5175V47.7441C0.0585938 48.33 0.292969 48.8183 0.761719 49.209C1.23047 49.5996 1.77734 49.7949 2.40234 49.7949H9.08203C9.70703 49.7949 10.2441 49.6093 10.6934 49.2382C11.1426 48.8672 11.3867 48.4082 11.4258 47.8613H13.3008L24.3164 53.7793C24.3164 53.7793 24.3359 53.7793 24.375 53.7793C26.0156 54.5996 27.7441 55.2148 29.5605 55.625C31.377 56.0351 33.1836 56.2402 34.9805 56.2402C35.6836 56.2402 36.3867 56.2109 37.0898 56.1523C37.793 56.0937 38.4766 55.9863 39.1406 55.83L56.8359 52.0215C56.875 51.9824 56.9043 51.9629 56.9238 51.9629C56.9434 51.9629 56.9727 51.9629 57.0117 51.9629C58.1445 51.5722 58.9746 50.8593 59.502 49.8242C60.0293 48.789 60.1367 47.6855 59.8242 46.5136ZM30.5273 13.0566C30.0977 13.0566 29.7266 12.9101 29.4141 12.6172C29.1016 12.3242 28.9453 11.9629 28.9453 11.5332C28.9453 11.1035 29.1016 10.7324 29.4141 10.4199C29.7266 10.1074 30.0977 9.95113 30.5273 9.95113H42.0117C42.4023 9.95113 42.7539 10.1074 43.0664 10.4199C43.3789 10.7324 43.5352 11.1035 43.5352 11.5332C43.5352 11.9629 43.3887 12.3242 43.0957 12.6172C42.8027 12.9101 42.4414 13.0566 42.0117 13.0566H30.5273ZM44.4727 2.80273L41.8945 7.60742H30.6445L28.0078 2.80273H44.4727ZM20.7422 30.166C20.7422 28.0175 21.2012 25.9668 22.1191 24.0136C23.0371 22.0605 24.3359 20.3808 26.0156 18.9746L30.3516 15.4004H42.1875L46.5234 18.9746C48.1641 20.3808 49.4531 22.0605 50.3906 24.0136C51.3281 25.9668 51.7969 28.0175 51.7969 30.166V37.7832C51.7969 39.2675 51.3574 40.5957 50.4785 41.7675C49.5996 42.9394 48.457 43.7402 47.0508 44.1699L43.125 44.58C43.2422 43.7207 43.1152 42.9004 42.7441 42.1191C42.373 41.3379 41.8164 40.7324 41.0742 40.3027L30.5859 33.916C28.7891 32.7832 27.041 32.0312 25.3418 31.6601C23.6426 31.289 22.1094 31.123 20.7422 31.1621V30.166ZM56.3086 49.7363L38.6719 53.5449C36.6406 53.9746 34.4336 54.0234 32.0508 53.6914C29.668 53.3593 27.4414 52.705 25.3711 51.7285L14.1211 45.6347C14.043 45.5957 13.9551 45.5664 13.8574 45.5468C13.7598 45.5273 13.6719 45.5175 13.5938 45.5175H11.4844V35.3808H13.5938C13.6719 35.3808 13.7695 35.3711 13.8867 35.3515C14.0039 35.332 14.1016 35.3027 14.1797 35.2636C14.1797 35.2246 14.6094 35.0097 15.4688 34.6191C16.3281 34.2285 17.4609 33.916 18.8672 33.6816C18.9844 33.6425 19.1113 33.6132 19.248 33.5937C19.3848 33.5742 19.5312 33.5644 19.6875 33.5644C21.3672 33.3691 23.0176 33.4668 24.6387 33.8574C26.2598 34.248 27.8125 34.9316 29.2969 35.9082C29.2969 35.9082 29.8438 36.2402 30.9375 36.9043C32.0703 37.5683 33.291 38.3007 34.5996 39.1015C35.9082 39.9023 37.1094 40.6347 38.2031 41.2988C39.3359 41.9629 39.9023 42.2949 39.9023 42.2949C40.293 42.5293 40.5664 42.8711 40.7227 43.3203C40.8789 43.7695 40.8789 44.209 40.7227 44.6386C40.5664 45.1465 40.2539 45.5175 39.7852 45.7519C39.3164 45.9863 38.8281 46.0449 38.3203 45.9277L30.4102 42.1191C30.0977 42.0019 29.7949 41.9922 29.502 42.0898C29.209 42.1875 28.9844 42.3925 28.8281 42.705C28.6719 42.9785 28.6523 43.2715 28.7695 43.584C28.8867 43.8965 29.082 44.1113 29.3555 44.2285C29.3555 44.2285 30.7129 44.873 33.4277 46.1621C36.1426 47.4511 37.5195 48.1152 37.5586 48.1543C38.3789 48.3886 39.1797 48.3984 39.9609 48.1836C40.7422 47.9687 41.4062 47.5879 41.9531 47.041L55.0781 45.6933C56.0547 45.6543 56.6992 45.8496 57.0117 46.2793C57.3242 46.709 57.5 46.9824 57.5391 47.0996C57.5391 47.0996 57.5391 47.1191 57.5391 47.1582C57.7344 47.7441 57.7148 48.2617 57.4805 48.7109C57.2461 49.1601 56.8555 49.5019 56.3086 49.7363ZM32.8125 32.4511C33.2422 32.7246 33.623 32.9297 33.9551 33.0664C34.2871 33.2031 34.6484 33.291 35.0391 33.33V33.7402C35.0391 34.0527 35.1465 34.3261 35.3613 34.5605C35.5762 34.7949 35.8594 34.9121 36.2109 34.9121C36.5234 34.9121 36.7969 34.7949 37.0312 34.5605C37.2656 34.3261 37.3828 34.0527 37.3828 33.7402V33.2129C38.1641 32.9785 38.7891 32.5586 39.2578 31.9531C39.7266 31.3476 40.0195 30.6933 40.1367 29.9902C40.293 29.0918 40.1465 28.2715 39.6973 27.5293C39.248 26.7871 38.5938 26.2597 37.7344 25.9472C37.2266 25.7519 36.7383 25.5566 36.2695 25.3613C35.8008 25.166 35.4102 24.9511 35.0977 24.7168C35.0195 24.6777 34.9707 24.5898 34.9512 24.4531C34.9316 24.3164 34.9414 24.1699 34.9805 24.0136C34.9805 23.9355 35.0293 23.789 35.127 23.5742C35.2246 23.3593 35.4102 23.2129 35.6836 23.1347C36.2305 22.9785 36.7285 23.0175 37.1777 23.2519C37.627 23.4863 37.8516 23.6035 37.8516 23.6035C38.125 23.7988 38.418 23.8867 38.7305 23.8672C39.043 23.8476 39.3164 23.7011 39.5508 23.4277C39.7461 23.1933 39.8242 22.9101 39.7852 22.5781C39.7461 22.2461 39.6094 21.9824 39.375 21.7871C39.3359 21.7871 39.1406 21.6601 38.7891 21.4062C38.4375 21.1523 37.9688 20.9668 37.3828 20.8496V20.4394C37.3828 20.1269 37.2656 19.8535 37.0312 19.6191C36.7969 19.3847 36.5234 19.2675 36.2109 19.2675C35.8594 19.2675 35.5762 19.3847 35.3613 19.6191C35.1465 19.8535 35.0391 20.1269 35.0391 20.4394V20.9082C35 20.9082 34.9805 20.9082 34.9805 20.9082C34.3945 21.0644 33.8867 21.3867 33.457 21.875C33.0273 22.3632 32.7539 22.9199 32.6367 23.5449C32.5195 24.1699 32.5586 24.7461 32.7539 25.2734C32.9492 25.8007 33.2617 26.2402 33.6914 26.5918C34.1211 26.9043 34.6191 27.1875 35.1855 27.4414C35.752 27.6953 36.3281 27.9199 36.9141 28.1152C37.4219 28.3105 37.7148 28.5644 37.793 28.8769C37.8711 29.1894 37.8906 29.4433 37.8516 29.6386C37.7734 29.9511 37.5977 30.2636 37.3242 30.5761C37.0508 30.8886 36.6602 31.0449 36.1523 31.0449C35.6445 31.0449 35.2734 31.0156 35.0391 30.957C34.8047 30.8984 34.4922 30.7519 34.1016 30.5175C33.8281 30.3222 33.5352 30.2636 33.2227 30.3418C32.9102 30.4199 32.6562 30.5957 32.4609 30.8691C32.3047 31.1035 32.2559 31.3867 32.3145 31.7187C32.373 32.0507 32.5391 32.2949 32.8125 32.4511ZM2.34375 40.1855C2.34375 40.498 2.22656 40.7715 1.99219 41.0058C1.75781 41.2402 1.48438 41.3574 1.17188 41.3574C0.859375 41.3574 0.585938 41.2402 0.351562 41.0058C0.117188 40.7715 0 40.498 0 40.1855C0 39.834 0.117188 39.5507 0.351562 39.3359C0.585938 39.1211 0.859375 39.0136 1.17188 39.0136C1.48438 39.0136 1.75781 39.1211 1.99219 39.3359C2.22656 39.5507 2.34375 39.834 2.34375 40.1855Z" fill="#1EA8DF"/>
</svg>
