<svg width="60" height="61" viewBox="0 0 60 61" fill="none" xmlns="http://www.w3.org/2000/svg">
<g clip-path="url(#clip0_1_1075)">
<path d="M40.8984 18.3383C41.3672 17.4789 41.7188 16.5707 41.9531 15.6136C42.1875 14.6566 42.3047 13.6703 42.3047 12.6547C42.3047 10.975 41.9727 9.37341 41.3086 7.84998C40.6836 6.3656 39.8145 5.06677 38.7012 3.95349C37.5879 2.84021 36.2891 1.97107 34.8047 1.34607C33.2812 0.682007 31.6797 0.349976 30 0.349976C28.3203 0.349976 26.7188 0.682007 25.1953 1.34607C23.7109 1.97107 22.4121 2.84021 21.2988 3.95349C20.1855 5.06677 19.3164 6.3656 18.6914 7.84998C18.0273 9.37341 17.6953 10.975 17.6953 12.6547C17.6953 13.6703 17.8125 14.6566 18.0469 15.6136C18.2812 16.5707 18.6328 17.4789 19.1016 18.3383C16.9141 18.7679 14.8828 19.5687 13.0078 20.7406C11.1328 21.9125 9.50195 23.3383 8.11523 25.0179C6.72852 26.6976 5.625 28.6117 4.80469 30.7601C4.02344 32.8695 3.63281 35.1156 3.63281 37.4984V39.9594C3.63281 42.8109 4.16992 45.5258 5.24414 48.1039C6.31836 50.682 7.85156 52.9867 9.84375 55.0179C10.4297 55.6039 11.1133 56.0531 11.8945 56.3656C12.6758 56.6781 13.4766 56.8344 14.2969 56.8344C15.6641 56.8344 16.8848 56.4437 17.959 55.6625C19.0332 54.8812 19.7852 53.8461 20.2148 52.557C21.4258 53.6117 22.7734 54.764 24.2578 56.014C25.7422 57.264 27.2656 58.5726 28.8281 59.9398C29.0234 60.057 29.2188 60.1547 29.4141 60.2328C29.6094 60.3109 29.8047 60.35 30 60.35C30.1953 60.35 30.3906 60.3109 30.5859 60.2328C30.7812 60.1547 30.9766 60.057 31.1719 59.9398C32.7344 58.5726 34.2578 57.264 35.7422 56.014C37.2266 54.764 38.5742 53.6117 39.7852 52.557C40.2148 53.8461 40.9668 54.8812 42.041 55.6625C43.1152 56.4437 44.3359 56.8344 45.7031 56.8344C46.5234 56.8344 47.3242 56.6781 48.1055 56.3656C48.8867 56.0531 49.5703 55.6039 50.1562 55.0179C52.1484 52.9867 53.6816 50.682 54.7559 48.1039C55.8301 45.5258 56.3672 42.8109 56.3672 39.9594V37.4984C56.3672 35.1156 55.9766 32.8695 55.1953 30.7601C54.375 28.6117 53.2715 26.6976 51.8848 25.0179C50.498 23.3383 48.8672 21.9125 46.9922 20.7406C45.1172 19.5687 43.0859 18.7679 40.8984 18.3383ZM30 3.8656C32.4219 3.8656 34.4922 4.72498 36.2109 6.44373C37.9297 8.16248 38.7891 10.2328 38.7891 12.6547C38.7891 15.0765 37.9297 17.1469 36.2109 18.8656C34.4922 20.5844 32.4219 21.4437 30 21.4437C27.5781 21.4437 25.5078 20.5844 23.7891 18.8656C22.0703 17.1469 21.2109 15.0765 21.2109 12.6547C21.2109 10.2328 22.0703 8.16248 23.7891 6.44373C25.5078 4.72498 27.5781 3.8656 30 3.8656ZM41.0742 46.3461C40.7617 46.6976 40.4297 47.0492 40.0781 47.4008C39.7266 47.7523 39.3359 48.1429 38.9062 48.5726C37.7344 49.6664 36.3965 50.848 34.8926 52.1176C33.3887 53.3871 31.7578 54.764 30 56.2484C27.8906 54.4515 25.9766 52.85 24.2578 51.4437C22.5391 49.9984 21.0742 48.641 19.8633 47.3715C18.6523 46.1019 17.7148 44.8617 17.0508 43.6508C16.3867 42.4398 16.0547 41.1898 16.0547 39.9008C16.0547 37.9476 16.6309 36.3265 17.7832 35.0375C18.9355 33.7484 20.3906 33.1039 22.1484 33.1039C23.0859 33.1039 23.9453 33.3187 24.7266 33.7484C25.5078 34.1781 26.2109 34.8226 26.8359 35.682C27.3438 36.4242 27.7148 37.098 27.9492 37.7035C28.1836 38.309 28.3008 38.6117 28.3008 38.6117C28.418 39.0023 28.6328 39.3148 28.9453 39.5492C29.2578 39.7836 29.6094 39.9008 30 39.9008C30.3906 39.9008 30.7422 39.7836 31.0547 39.5492C31.3672 39.3148 31.582 39.0023 31.6992 38.6117C31.6992 38.6117 31.8164 38.309 32.0508 37.7035C32.2852 37.098 32.6562 36.4242 33.1641 35.682C33.7891 34.8226 34.4922 34.1781 35.2734 33.7484C36.0547 33.3187 36.9141 33.1039 37.8516 33.1039C39.6094 33.1039 41.0645 33.7484 42.2168 35.0375C43.3691 36.3265 43.9453 37.9476 43.9453 39.9008C43.9453 40.9554 43.7207 41.9906 43.2715 43.0062C42.8223 44.0219 42.0898 45.1351 41.0742 46.3461ZM52.8516 39.9594C52.8516 42.3422 52.4023 44.6078 51.5039 46.7562C50.6055 48.9047 49.3164 50.8187 47.6367 52.4984C47.4023 52.7719 47.1094 52.9769 46.7578 53.1136C46.4062 53.2504 46.0547 53.3187 45.7031 53.3187C44.4922 53.3187 43.6621 52.7816 43.2129 51.7074C42.7637 50.6332 42.9102 49.6469 43.6523 48.7484C44.7461 47.4984 45.6543 46.1508 46.377 44.7054C47.0996 43.2601 47.4609 41.6586 47.4609 39.9008C47.4609 37.0883 46.5625 34.6664 44.7656 32.6351C42.9688 30.6039 40.6641 29.5883 37.8516 29.5883C36.3281 29.5883 34.9219 29.9398 33.6328 30.6429C32.3438 31.3461 31.2109 32.3812 30.2344 33.7484C30.1953 33.7875 30.1562 33.8461 30.1172 33.9242C30.0781 34.0023 30.0391 34.0609 30 34.1C29.9609 34.0609 29.9219 34.0023 29.8828 33.9242C29.8438 33.8461 29.8047 33.7875 29.7656 33.7484C28.7891 32.3812 27.6562 31.3461 26.3672 30.6429C25.0781 29.9398 23.6719 29.5883 22.1484 29.5883C19.3359 29.5883 17.0312 30.6039 15.2344 32.6351C13.4375 34.6664 12.5391 37.0883 12.5391 39.9008C12.5391 41.5804 12.8906 43.1429 13.5938 44.5883C14.2969 46.0336 15.2148 47.4008 16.3477 48.6898C17.0898 49.5883 17.2363 50.5844 16.7871 51.6781C16.3379 52.7719 15.5078 53.3187 14.2969 53.3187C13.9453 53.3187 13.5938 53.2504 13.2422 53.1136C12.8906 52.9769 12.5977 52.7719 12.3633 52.4984C10.6836 50.8187 9.39453 48.9047 8.49609 46.7562C7.59766 44.6078 7.14844 42.3422 7.14844 39.9594V37.4984C7.14844 35.4281 7.51953 33.475 8.26172 31.639C9.00391 29.8031 10.0195 28.1625 11.3086 26.7172C12.5977 25.2719 14.1211 24.1 15.8789 23.2015C17.5977 22.264 19.4531 21.6976 21.4453 21.5023C22.5781 22.557 23.877 23.3969 25.3418 24.0219C26.8066 24.6469 28.3594 24.9594 30 24.9594C31.6406 24.9594 33.1934 24.6469 34.6582 24.0219C36.123 23.3969 37.4219 22.557 38.5547 21.5023C40.5469 21.6976 42.4023 22.264 44.1211 23.2015C45.8789 24.1 47.4023 25.2719 48.6914 26.7172C49.9805 28.1625 50.9961 29.8031 51.7383 31.639C52.4805 33.475 52.8516 35.4281 52.8516 37.4984V39.9594Z" fill="#FC5528"/>
</g>
<defs>
<clipPath id="clip0_1_1075">
<rect width="60" height="60" fill="white" transform="matrix(1 0 0 -1 0 60.35)"/>
</clipPath>
</defs>
</svg>
